G04 #@! TF.GenerationSoftware,KiCad,Pcbnew,(5.1.2-1)-1*
G04 #@! TF.CreationDate,2023-02-15T13:47:50+00:00*
G04 #@! TF.ProjectId,WT32-ETH01 Programmer,57543332-2d45-4544-9830-312050726f67,rev?*
G04 #@! TF.SameCoordinates,Original*
G04 #@! TF.FileFunction,Soldermask,Top*
G04 #@! TF.FilePolarity,Negative*
%FSLAX46Y46*%
G04 Gerber Fmt 4.6, Leading zero omitted, Abs format (unit mm)*
G04 Created by KiCad (PCBNEW (5.1.2-1)-1) date 2023-02-15 13:47:50*
%MOMM*%
%LPD*%
G04 APERTURE LIST*
%ADD10C,0.010000*%
%ADD11C,0.100000*%
G04 APERTURE END LIST*
D10*
G36*
X160334666Y-71137934D02*
G01*
X160424778Y-71871836D01*
X160453938Y-72124922D01*
X160475652Y-72344799D01*
X160488551Y-72514717D01*
X160491267Y-72617926D01*
X160487587Y-72640686D01*
X160423800Y-72673453D01*
X160351349Y-72689007D01*
X160242414Y-72702382D01*
X160049499Y-71131215D01*
X160334666Y-71137934D01*
X160334666Y-71137934D01*
G37*
X160334666Y-71137934D02*
X160424778Y-71871836D01*
X160453938Y-72124922D01*
X160475652Y-72344799D01*
X160488551Y-72514717D01*
X160491267Y-72617926D01*
X160487587Y-72640686D01*
X160423800Y-72673453D01*
X160351349Y-72689007D01*
X160242414Y-72702382D01*
X160049499Y-71131215D01*
X160334666Y-71137934D01*
G36*
X157747726Y-62323318D02*
G01*
X157888113Y-62336192D01*
X158085213Y-62355486D01*
X158319726Y-62379179D01*
X158572358Y-62405246D01*
X158823810Y-62431664D01*
X159054783Y-62456407D01*
X159245981Y-62477455D01*
X159378107Y-62492783D01*
X159428020Y-62499516D01*
X159485903Y-62492022D01*
X159500036Y-62425450D01*
X159495229Y-62371457D01*
X159489577Y-62290880D01*
X159508816Y-62243765D01*
X159570618Y-62223738D01*
X159692652Y-62224421D01*
X159866877Y-62237332D01*
X160145015Y-62260053D01*
X160221255Y-62880979D01*
X160251450Y-63143375D01*
X160266880Y-63325164D01*
X160267820Y-63438604D01*
X160254541Y-63495952D01*
X160235251Y-63509547D01*
X160156448Y-63510335D01*
X160018618Y-63504335D01*
X159901923Y-63496543D01*
X159749418Y-63482442D01*
X159666465Y-63459392D01*
X159628794Y-63411636D01*
X159612130Y-63323413D01*
X159610109Y-63307079D01*
X159589381Y-63138263D01*
X159001699Y-63080014D01*
X158775531Y-63058204D01*
X158583901Y-63040869D01*
X158445918Y-63029653D01*
X158380687Y-63026206D01*
X158379034Y-63026335D01*
X158359846Y-63070249D01*
X158361212Y-63170384D01*
X158361965Y-63176799D01*
X158366986Y-63275675D01*
X158330784Y-63312511D01*
X158227465Y-63312949D01*
X158224642Y-63312769D01*
X158066093Y-63264353D01*
X157887570Y-63145370D01*
X157870588Y-63130967D01*
X157764384Y-63033781D01*
X157700870Y-62950054D01*
X157664368Y-62847168D01*
X157639191Y-62692505D01*
X157631926Y-62634579D01*
X157592081Y-62310068D01*
X157747726Y-62323318D01*
X157747726Y-62323318D01*
G37*
X157747726Y-62323318D02*
X157888113Y-62336192D01*
X158085213Y-62355486D01*
X158319726Y-62379179D01*
X158572358Y-62405246D01*
X158823810Y-62431664D01*
X159054783Y-62456407D01*
X159245981Y-62477455D01*
X159378107Y-62492783D01*
X159428020Y-62499516D01*
X159485903Y-62492022D01*
X159500036Y-62425450D01*
X159495229Y-62371457D01*
X159489577Y-62290880D01*
X159508816Y-62243765D01*
X159570618Y-62223738D01*
X159692652Y-62224421D01*
X159866877Y-62237332D01*
X160145015Y-62260053D01*
X160221255Y-62880979D01*
X160251450Y-63143375D01*
X160266880Y-63325164D01*
X160267820Y-63438604D01*
X160254541Y-63495952D01*
X160235251Y-63509547D01*
X160156448Y-63510335D01*
X160018618Y-63504335D01*
X159901923Y-63496543D01*
X159749418Y-63482442D01*
X159666465Y-63459392D01*
X159628794Y-63411636D01*
X159612130Y-63323413D01*
X159610109Y-63307079D01*
X159589381Y-63138263D01*
X159001699Y-63080014D01*
X158775531Y-63058204D01*
X158583901Y-63040869D01*
X158445918Y-63029653D01*
X158380687Y-63026206D01*
X158379034Y-63026335D01*
X158359846Y-63070249D01*
X158361212Y-63170384D01*
X158361965Y-63176799D01*
X158366986Y-63275675D01*
X158330784Y-63312511D01*
X158227465Y-63312949D01*
X158224642Y-63312769D01*
X158066093Y-63264353D01*
X157887570Y-63145370D01*
X157870588Y-63130967D01*
X157764384Y-63033781D01*
X157700870Y-62950054D01*
X157664368Y-62847168D01*
X157639191Y-62692505D01*
X157631926Y-62634579D01*
X157592081Y-62310068D01*
X157747726Y-62323318D01*
G36*
X157923457Y-63673124D02*
G01*
X158069904Y-63530043D01*
X158971367Y-63619990D01*
X159257083Y-63649032D01*
X159514125Y-63676164D01*
X159726442Y-63699610D01*
X159877983Y-63717597D01*
X159952698Y-63728349D01*
X159954055Y-63728648D01*
X160034116Y-63771377D01*
X160144944Y-63858531D01*
X160201570Y-63911170D01*
X160277690Y-63990096D01*
X160329081Y-64062659D01*
X160363942Y-64152108D01*
X160390470Y-64281687D01*
X160416865Y-64474648D01*
X160425826Y-64547098D01*
X160483794Y-65019215D01*
X160210008Y-65298144D01*
X159814176Y-65258535D01*
X159735087Y-64614407D01*
X159754853Y-64570164D01*
X159753186Y-64472347D01*
X159710953Y-64355532D01*
X159651634Y-64320703D01*
X159574382Y-64310139D01*
X159433102Y-64293196D01*
X159250392Y-64272342D01*
X159048847Y-64250045D01*
X158851067Y-64228771D01*
X158679648Y-64210986D01*
X158557188Y-64199157D01*
X158506565Y-64195707D01*
X158498604Y-64238246D01*
X158504734Y-64338939D01*
X158506326Y-64352526D01*
X158525292Y-64506987D01*
X159112734Y-64563270D01*
X159338879Y-64584296D01*
X159530461Y-64600899D01*
X159668363Y-64611509D01*
X159733467Y-64614555D01*
X159735087Y-64614407D01*
X159814176Y-65258535D01*
X159231552Y-65200236D01*
X158253097Y-65102328D01*
X158071308Y-64917420D01*
X157987331Y-64828520D01*
X157931447Y-64751045D01*
X157894583Y-64660488D01*
X157867670Y-64532347D01*
X157841636Y-64342114D01*
X157833265Y-64274359D01*
X157777011Y-63816205D01*
X157923457Y-63673124D01*
X157923457Y-63673124D01*
G37*
X157923457Y-63673124D02*
X158069904Y-63530043D01*
X158971367Y-63619990D01*
X159257083Y-63649032D01*
X159514125Y-63676164D01*
X159726442Y-63699610D01*
X159877983Y-63717597D01*
X159952698Y-63728349D01*
X159954055Y-63728648D01*
X160034116Y-63771377D01*
X160144944Y-63858531D01*
X160201570Y-63911170D01*
X160277690Y-63990096D01*
X160329081Y-64062659D01*
X160363942Y-64152108D01*
X160390470Y-64281687D01*
X160416865Y-64474648D01*
X160425826Y-64547098D01*
X160483794Y-65019215D01*
X160210008Y-65298144D01*
X159814176Y-65258535D01*
X159735087Y-64614407D01*
X159754853Y-64570164D01*
X159753186Y-64472347D01*
X159710953Y-64355532D01*
X159651634Y-64320703D01*
X159574382Y-64310139D01*
X159433102Y-64293196D01*
X159250392Y-64272342D01*
X159048847Y-64250045D01*
X158851067Y-64228771D01*
X158679648Y-64210986D01*
X158557188Y-64199157D01*
X158506565Y-64195707D01*
X158498604Y-64238246D01*
X158504734Y-64338939D01*
X158506326Y-64352526D01*
X158525292Y-64506987D01*
X159112734Y-64563270D01*
X159338879Y-64584296D01*
X159530461Y-64600899D01*
X159668363Y-64611509D01*
X159733467Y-64614555D01*
X159735087Y-64614407D01*
X159814176Y-65258535D01*
X159231552Y-65200236D01*
X158253097Y-65102328D01*
X158071308Y-64917420D01*
X157987331Y-64828520D01*
X157931447Y-64751045D01*
X157894583Y-64660488D01*
X157867670Y-64532347D01*
X157841636Y-64342114D01*
X157833265Y-64274359D01*
X157777011Y-63816205D01*
X157923457Y-63673124D01*
G36*
X157985919Y-65488214D02*
G01*
X157988928Y-65394825D01*
X158014618Y-65353200D01*
X158047528Y-65343951D01*
X158115198Y-65346406D01*
X158262904Y-65357567D01*
X158477128Y-65376218D01*
X158744360Y-65401141D01*
X159051081Y-65431122D01*
X159329383Y-65459326D01*
X160529308Y-65582856D01*
X160581774Y-65896025D01*
X160606411Y-66074257D01*
X160605951Y-66175772D01*
X160580033Y-66214612D01*
X160573663Y-66215931D01*
X160524781Y-66216646D01*
X160432458Y-66211085D01*
X160284104Y-66198153D01*
X160067127Y-66176757D01*
X159777934Y-66146748D01*
X159703935Y-66148594D01*
X159684557Y-66193431D01*
X159699911Y-66283220D01*
X159724579Y-66365541D01*
X159768319Y-66413304D01*
X159855651Y-66440029D01*
X160011090Y-66459230D01*
X160020962Y-66460223D01*
X160212228Y-66480646D01*
X160396095Y-66502318D01*
X160489692Y-66514590D01*
X160670541Y-66540122D01*
X160707580Y-66841784D01*
X160724284Y-67007448D01*
X160721221Y-67100997D01*
X160695442Y-67142874D01*
X160662779Y-67152338D01*
X160595142Y-67150034D01*
X160447478Y-67138917D01*
X160233296Y-67120207D01*
X159966106Y-67095127D01*
X159659417Y-67064898D01*
X159380852Y-67036389D01*
X158180766Y-66911549D01*
X158128372Y-66598953D01*
X158103764Y-66420905D01*
X158104294Y-66319567D01*
X158130320Y-66280896D01*
X158136553Y-66279621D01*
X158185434Y-66278906D01*
X158277757Y-66284467D01*
X158426112Y-66297398D01*
X158643089Y-66318795D01*
X158932281Y-66348805D01*
X159006281Y-66346959D01*
X159025659Y-66302121D01*
X159010304Y-66212333D01*
X158985637Y-66130012D01*
X158941896Y-66082248D01*
X158854565Y-66055524D01*
X158699126Y-66036322D01*
X158689254Y-66035330D01*
X158497988Y-66014906D01*
X158314120Y-65993235D01*
X158220524Y-65980963D01*
X158039675Y-65955430D01*
X158002635Y-65653768D01*
X157985919Y-65488214D01*
X157985919Y-65488214D01*
G37*
X157985919Y-65488214D02*
X157988928Y-65394825D01*
X158014618Y-65353200D01*
X158047528Y-65343951D01*
X158115198Y-65346406D01*
X158262904Y-65357567D01*
X158477128Y-65376218D01*
X158744360Y-65401141D01*
X159051081Y-65431122D01*
X159329383Y-65459326D01*
X160529308Y-65582856D01*
X160581774Y-65896025D01*
X160606411Y-66074257D01*
X160605951Y-66175772D01*
X160580033Y-66214612D01*
X160573663Y-66215931D01*
X160524781Y-66216646D01*
X160432458Y-66211085D01*
X160284104Y-66198153D01*
X160067127Y-66176757D01*
X159777934Y-66146748D01*
X159703935Y-66148594D01*
X159684557Y-66193431D01*
X159699911Y-66283220D01*
X159724579Y-66365541D01*
X159768319Y-66413304D01*
X159855651Y-66440029D01*
X160011090Y-66459230D01*
X160020962Y-66460223D01*
X160212228Y-66480646D01*
X160396095Y-66502318D01*
X160489692Y-66514590D01*
X160670541Y-66540122D01*
X160707580Y-66841784D01*
X160724284Y-67007448D01*
X160721221Y-67100997D01*
X160695442Y-67142874D01*
X160662779Y-67152338D01*
X160595142Y-67150034D01*
X160447478Y-67138917D01*
X160233296Y-67120207D01*
X159966106Y-67095127D01*
X159659417Y-67064898D01*
X159380852Y-67036389D01*
X158180766Y-66911549D01*
X158128372Y-66598953D01*
X158103764Y-66420905D01*
X158104294Y-66319567D01*
X158130320Y-66280896D01*
X158136553Y-66279621D01*
X158185434Y-66278906D01*
X158277757Y-66284467D01*
X158426112Y-66297398D01*
X158643089Y-66318795D01*
X158932281Y-66348805D01*
X159006281Y-66346959D01*
X159025659Y-66302121D01*
X159010304Y-66212333D01*
X158985637Y-66130012D01*
X158941896Y-66082248D01*
X158854565Y-66055524D01*
X158699126Y-66036322D01*
X158689254Y-66035330D01*
X158497988Y-66014906D01*
X158314120Y-65993235D01*
X158220524Y-65980963D01*
X158039675Y-65955430D01*
X158002635Y-65653768D01*
X157985919Y-65488214D01*
G36*
X158265770Y-67780070D02*
G01*
X158244043Y-67556756D01*
X158231385Y-67383590D01*
X158229040Y-67276575D01*
X158234127Y-67249640D01*
X158294723Y-67242548D01*
X158420323Y-67245923D01*
X158566823Y-67257492D01*
X158866691Y-67287464D01*
X158894635Y-67515049D01*
X158915256Y-67651694D01*
X158948186Y-67721995D01*
X159015921Y-67753126D01*
X159103303Y-67767147D01*
X159209683Y-67780016D01*
X159379193Y-67798755D01*
X159593544Y-67821517D01*
X159834450Y-67846457D01*
X160083625Y-67871733D01*
X160322780Y-67895499D01*
X160533629Y-67915911D01*
X160697886Y-67931122D01*
X160797262Y-67939291D01*
X160817843Y-67940091D01*
X160834985Y-67981393D01*
X160857454Y-68092948D01*
X160880640Y-68251461D01*
X160882583Y-68267067D01*
X160901200Y-68439238D01*
X160902398Y-68537016D01*
X160883589Y-68578903D01*
X160842183Y-68583407D01*
X160838418Y-68582808D01*
X160769355Y-68574161D01*
X160628158Y-68558517D01*
X160432551Y-68537681D01*
X160200261Y-68513454D01*
X159949013Y-68487644D01*
X159696529Y-68462053D01*
X159460536Y-68438487D01*
X159258758Y-68418751D01*
X159108920Y-68404646D01*
X159028747Y-68397980D01*
X159020442Y-68397735D01*
X159015875Y-68440989D01*
X159022877Y-68549445D01*
X159032392Y-68636985D01*
X159061509Y-68874126D01*
X158905986Y-68861868D01*
X158748163Y-68846940D01*
X158578270Y-68827520D01*
X158569906Y-68826455D01*
X158389350Y-68803302D01*
X158295325Y-68037531D01*
X158265770Y-67780070D01*
X158265770Y-67780070D01*
G37*
X158265770Y-67780070D02*
X158244043Y-67556756D01*
X158231385Y-67383590D01*
X158229040Y-67276575D01*
X158234127Y-67249640D01*
X158294723Y-67242548D01*
X158420323Y-67245923D01*
X158566823Y-67257492D01*
X158866691Y-67287464D01*
X158894635Y-67515049D01*
X158915256Y-67651694D01*
X158948186Y-67721995D01*
X159015921Y-67753126D01*
X159103303Y-67767147D01*
X159209683Y-67780016D01*
X159379193Y-67798755D01*
X159593544Y-67821517D01*
X159834450Y-67846457D01*
X160083625Y-67871733D01*
X160322780Y-67895499D01*
X160533629Y-67915911D01*
X160697886Y-67931122D01*
X160797262Y-67939291D01*
X160817843Y-67940091D01*
X160834985Y-67981393D01*
X160857454Y-68092948D01*
X160880640Y-68251461D01*
X160882583Y-68267067D01*
X160901200Y-68439238D01*
X160902398Y-68537016D01*
X160883589Y-68578903D01*
X160842183Y-68583407D01*
X160838418Y-68582808D01*
X160769355Y-68574161D01*
X160628158Y-68558517D01*
X160432551Y-68537681D01*
X160200261Y-68513454D01*
X159949013Y-68487644D01*
X159696529Y-68462053D01*
X159460536Y-68438487D01*
X159258758Y-68418751D01*
X159108920Y-68404646D01*
X159028747Y-68397980D01*
X159020442Y-68397735D01*
X159015875Y-68440989D01*
X159022877Y-68549445D01*
X159032392Y-68636985D01*
X159061509Y-68874126D01*
X158905986Y-68861868D01*
X158748163Y-68846940D01*
X158578270Y-68827520D01*
X158569906Y-68826455D01*
X158389350Y-68803302D01*
X158295325Y-68037531D01*
X158265770Y-67780070D01*
G36*
X158445406Y-69221784D02*
G01*
X158450279Y-69109959D01*
X158485043Y-69051124D01*
X158557053Y-69031692D01*
X158673669Y-69038076D01*
X158823033Y-69054685D01*
X159063109Y-69080137D01*
X159134469Y-69551776D01*
X159168200Y-69765733D01*
X159195670Y-69903860D01*
X159223248Y-69983548D01*
X159257303Y-70022188D01*
X159304205Y-70037173D01*
X159312700Y-70038450D01*
X159411765Y-70048971D01*
X159454666Y-70049822D01*
X159464069Y-70004911D01*
X159461394Y-69886740D01*
X159447582Y-69715213D01*
X159432436Y-69579296D01*
X159411631Y-69382957D01*
X159401323Y-69226483D01*
X159402456Y-69129803D01*
X159410158Y-69108393D01*
X159476437Y-69111271D01*
X159593358Y-69123606D01*
X159613752Y-69126186D01*
X159770166Y-69145260D01*
X159911371Y-69160693D01*
X159912539Y-69160809D01*
X159971502Y-69169390D01*
X160012168Y-69192779D01*
X160041663Y-69248206D01*
X160067108Y-69352902D01*
X160095628Y-69524100D01*
X160114778Y-69650022D01*
X160186776Y-70126443D01*
X160316977Y-70125453D01*
X160447178Y-70124461D01*
X160392340Y-69677839D01*
X160366329Y-69463990D01*
X160359629Y-69328278D01*
X160384156Y-69255058D01*
X160451825Y-69228685D01*
X160574553Y-69233515D01*
X160718828Y-69249163D01*
X160982951Y-69277483D01*
X161073900Y-69910996D01*
X161164848Y-70544510D01*
X160875179Y-70827523D01*
X159903571Y-70729487D01*
X159579780Y-70696858D01*
X159334533Y-70670200D01*
X159152889Y-70644944D01*
X159019909Y-70616526D01*
X158920656Y-70580378D01*
X158840189Y-70531937D01*
X158763569Y-70466632D01*
X158675857Y-70379901D01*
X158639147Y-70343012D01*
X158599922Y-70258276D01*
X158558792Y-70080447D01*
X158515676Y-69809133D01*
X158495892Y-69658746D01*
X158463062Y-69400184D01*
X158445406Y-69221784D01*
X158445406Y-69221784D01*
G37*
X158445406Y-69221784D02*
X158450279Y-69109959D01*
X158485043Y-69051124D01*
X158557053Y-69031692D01*
X158673669Y-69038076D01*
X158823033Y-69054685D01*
X159063109Y-69080137D01*
X159134469Y-69551776D01*
X159168200Y-69765733D01*
X159195670Y-69903860D01*
X159223248Y-69983548D01*
X159257303Y-70022188D01*
X159304205Y-70037173D01*
X159312700Y-70038450D01*
X159411765Y-70048971D01*
X159454666Y-70049822D01*
X159464069Y-70004911D01*
X159461394Y-69886740D01*
X159447582Y-69715213D01*
X159432436Y-69579296D01*
X159411631Y-69382957D01*
X159401323Y-69226483D01*
X159402456Y-69129803D01*
X159410158Y-69108393D01*
X159476437Y-69111271D01*
X159593358Y-69123606D01*
X159613752Y-69126186D01*
X159770166Y-69145260D01*
X159911371Y-69160693D01*
X159912539Y-69160809D01*
X159971502Y-69169390D01*
X160012168Y-69192779D01*
X160041663Y-69248206D01*
X160067108Y-69352902D01*
X160095628Y-69524100D01*
X160114778Y-69650022D01*
X160186776Y-70126443D01*
X160316977Y-70125453D01*
X160447178Y-70124461D01*
X160392340Y-69677839D01*
X160366329Y-69463990D01*
X160359629Y-69328278D01*
X160384156Y-69255058D01*
X160451825Y-69228685D01*
X160574553Y-69233515D01*
X160718828Y-69249163D01*
X160982951Y-69277483D01*
X161073900Y-69910996D01*
X161164848Y-70544510D01*
X160875179Y-70827523D01*
X159903571Y-70729487D01*
X159579780Y-70696858D01*
X159334533Y-70670200D01*
X159152889Y-70644944D01*
X159019909Y-70616526D01*
X158920656Y-70580378D01*
X158840189Y-70531937D01*
X158763569Y-70466632D01*
X158675857Y-70379901D01*
X158639147Y-70343012D01*
X158599922Y-70258276D01*
X158558792Y-70080447D01*
X158515676Y-69809133D01*
X158495892Y-69658746D01*
X158463062Y-69400184D01*
X158445406Y-69221784D01*
G36*
X158967474Y-73502694D02*
G01*
X158957645Y-73363220D01*
X158965564Y-73269497D01*
X158994251Y-73197728D01*
X159046729Y-73124115D01*
X159070400Y-73094599D01*
X159158440Y-73003084D01*
X159251914Y-72951239D01*
X159361754Y-72942281D01*
X159498891Y-72979425D01*
X159674255Y-73065888D01*
X159898778Y-73204886D01*
X160183391Y-73399635D01*
X160237971Y-73438117D01*
X160886679Y-73896884D01*
X160851801Y-73501314D01*
X160839623Y-73321547D01*
X160837246Y-73183516D01*
X160844760Y-73109028D01*
X160850153Y-73101928D01*
X160915105Y-73104945D01*
X161031239Y-73117324D01*
X161051929Y-73119944D01*
X161209050Y-73139105D01*
X161351504Y-73154688D01*
X161352395Y-73154776D01*
X161484314Y-73167775D01*
X161578789Y-73937212D01*
X161613322Y-74221042D01*
X161636176Y-74424925D01*
X161647160Y-74562287D01*
X161646082Y-74646550D01*
X161632749Y-74691139D01*
X161606971Y-74709479D01*
X161568555Y-74714994D01*
X161567670Y-74715065D01*
X161397146Y-74720816D01*
X161242191Y-74704123D01*
X161085968Y-74658036D01*
X160911637Y-74575611D01*
X160702357Y-74449896D01*
X160441292Y-74273948D01*
X160358995Y-74216404D01*
X160143811Y-74066347D01*
X159955956Y-73937598D01*
X159808609Y-73839009D01*
X159714946Y-73779430D01*
X159687883Y-73765665D01*
X159663522Y-73799928D01*
X159685757Y-73862289D01*
X159737307Y-73911790D01*
X159751798Y-73917126D01*
X159797592Y-73954650D01*
X159831984Y-74051656D01*
X159860603Y-74224700D01*
X159863070Y-74244431D01*
X159901015Y-74553462D01*
X159698582Y-74545120D01*
X159541535Y-74534107D01*
X159433914Y-74505750D01*
X159337972Y-74443055D01*
X159215960Y-74329027D01*
X159213715Y-74326816D01*
X159136018Y-74245919D01*
X159084107Y-74171331D01*
X159049271Y-74078871D01*
X159022792Y-73944364D01*
X158995958Y-73743629D01*
X158992027Y-73711715D01*
X158967474Y-73502694D01*
X158967474Y-73502694D01*
G37*
X158967474Y-73502694D02*
X158957645Y-73363220D01*
X158965564Y-73269497D01*
X158994251Y-73197728D01*
X159046729Y-73124115D01*
X159070400Y-73094599D01*
X159158440Y-73003084D01*
X159251914Y-72951239D01*
X159361754Y-72942281D01*
X159498891Y-72979425D01*
X159674255Y-73065888D01*
X159898778Y-73204886D01*
X160183391Y-73399635D01*
X160237971Y-73438117D01*
X160886679Y-73896884D01*
X160851801Y-73501314D01*
X160839623Y-73321547D01*
X160837246Y-73183516D01*
X160844760Y-73109028D01*
X160850153Y-73101928D01*
X160915105Y-73104945D01*
X161031239Y-73117324D01*
X161051929Y-73119944D01*
X161209050Y-73139105D01*
X161351504Y-73154688D01*
X161352395Y-73154776D01*
X161484314Y-73167775D01*
X161578789Y-73937212D01*
X161613322Y-74221042D01*
X161636176Y-74424925D01*
X161647160Y-74562287D01*
X161646082Y-74646550D01*
X161632749Y-74691139D01*
X161606971Y-74709479D01*
X161568555Y-74714994D01*
X161567670Y-74715065D01*
X161397146Y-74720816D01*
X161242191Y-74704123D01*
X161085968Y-74658036D01*
X160911637Y-74575611D01*
X160702357Y-74449896D01*
X160441292Y-74273948D01*
X160358995Y-74216404D01*
X160143811Y-74066347D01*
X159955956Y-73937598D01*
X159808609Y-73839009D01*
X159714946Y-73779430D01*
X159687883Y-73765665D01*
X159663522Y-73799928D01*
X159685757Y-73862289D01*
X159737307Y-73911790D01*
X159751798Y-73917126D01*
X159797592Y-73954650D01*
X159831984Y-74051656D01*
X159860603Y-74224700D01*
X159863070Y-74244431D01*
X159901015Y-74553462D01*
X159698582Y-74545120D01*
X159541535Y-74534107D01*
X159433914Y-74505750D01*
X159337972Y-74443055D01*
X159215960Y-74329027D01*
X159213715Y-74326816D01*
X159136018Y-74245919D01*
X159084107Y-74171331D01*
X159049271Y-74078871D01*
X159022792Y-73944364D01*
X158995958Y-73743629D01*
X158992027Y-73711715D01*
X158967474Y-73502694D01*
G36*
X159303597Y-74925884D02*
G01*
X159387282Y-74849355D01*
X159460280Y-74808847D01*
X159554816Y-74795551D01*
X159703117Y-74800655D01*
X159750646Y-74803663D01*
X159947646Y-74826741D01*
X160097668Y-74876424D01*
X160247260Y-74969166D01*
X160273480Y-74988513D01*
X160494352Y-75153835D01*
X160597811Y-75029608D01*
X160656405Y-74965234D01*
X160715308Y-74929635D01*
X160801394Y-74916319D01*
X160941535Y-74918799D01*
X161036267Y-74923714D01*
X161219844Y-74938176D01*
X161343513Y-74965544D01*
X161441443Y-75018717D01*
X161547800Y-75110595D01*
X161558683Y-75120946D01*
X161746100Y-75299845D01*
X161805697Y-75785245D01*
X161865296Y-76270644D01*
X161728293Y-76409215D01*
X161638739Y-76491218D01*
X161558139Y-76528575D01*
X161447010Y-76533570D01*
X161351709Y-76526364D01*
X161112128Y-76504943D01*
X161059650Y-76191677D01*
X161034774Y-76020962D01*
X161032399Y-75922889D01*
X161053688Y-75878472D01*
X161079336Y-75869550D01*
X161131807Y-75822530D01*
X161134862Y-75725197D01*
X161103655Y-75624049D01*
X161022751Y-75571685D01*
X160964907Y-75556504D01*
X160848260Y-75534977D01*
X160774105Y-75527973D01*
X160771868Y-75528180D01*
X160756980Y-75573259D01*
X160756393Y-75686603D01*
X160769864Y-75840229D01*
X160807580Y-76147400D01*
X160652100Y-76135491D01*
X160482477Y-76120626D01*
X160383579Y-76094456D01*
X160332580Y-76035776D01*
X160306650Y-75923382D01*
X160291032Y-75800079D01*
X160267801Y-75630195D01*
X160239132Y-75531928D01*
X160188120Y-75483518D01*
X160097859Y-75463211D01*
X160023679Y-75455988D01*
X159918635Y-75452958D01*
X159881047Y-75486605D01*
X159885080Y-75581539D01*
X159885784Y-75587310D01*
X159921799Y-75702056D01*
X159976946Y-75750817D01*
X160022256Y-75787699D01*
X160056455Y-75883135D01*
X160085121Y-76053733D01*
X160088968Y-76084217D01*
X160127660Y-76399342D01*
X159879188Y-76374575D01*
X159708764Y-76345063D01*
X159580877Y-76282540D01*
X159450868Y-76166875D01*
X159367733Y-76078729D01*
X159312360Y-76001457D01*
X159275741Y-75910600D01*
X159248869Y-75781696D01*
X159222734Y-75590286D01*
X159214767Y-75525788D01*
X159158513Y-75067635D01*
X159303597Y-74925884D01*
X159303597Y-74925884D01*
G37*
X159303597Y-74925884D02*
X159387282Y-74849355D01*
X159460280Y-74808847D01*
X159554816Y-74795551D01*
X159703117Y-74800655D01*
X159750646Y-74803663D01*
X159947646Y-74826741D01*
X160097668Y-74876424D01*
X160247260Y-74969166D01*
X160273480Y-74988513D01*
X160494352Y-75153835D01*
X160597811Y-75029608D01*
X160656405Y-74965234D01*
X160715308Y-74929635D01*
X160801394Y-74916319D01*
X160941535Y-74918799D01*
X161036267Y-74923714D01*
X161219844Y-74938176D01*
X161343513Y-74965544D01*
X161441443Y-75018717D01*
X161547800Y-75110595D01*
X161558683Y-75120946D01*
X161746100Y-75299845D01*
X161805697Y-75785245D01*
X161865296Y-76270644D01*
X161728293Y-76409215D01*
X161638739Y-76491218D01*
X161558139Y-76528575D01*
X161447010Y-76533570D01*
X161351709Y-76526364D01*
X161112128Y-76504943D01*
X161059650Y-76191677D01*
X161034774Y-76020962D01*
X161032399Y-75922889D01*
X161053688Y-75878472D01*
X161079336Y-75869550D01*
X161131807Y-75822530D01*
X161134862Y-75725197D01*
X161103655Y-75624049D01*
X161022751Y-75571685D01*
X160964907Y-75556504D01*
X160848260Y-75534977D01*
X160774105Y-75527973D01*
X160771868Y-75528180D01*
X160756980Y-75573259D01*
X160756393Y-75686603D01*
X160769864Y-75840229D01*
X160807580Y-76147400D01*
X160652100Y-76135491D01*
X160482477Y-76120626D01*
X160383579Y-76094456D01*
X160332580Y-76035776D01*
X160306650Y-75923382D01*
X160291032Y-75800079D01*
X160267801Y-75630195D01*
X160239132Y-75531928D01*
X160188120Y-75483518D01*
X160097859Y-75463211D01*
X160023679Y-75455988D01*
X159918635Y-75452958D01*
X159881047Y-75486605D01*
X159885080Y-75581539D01*
X159885784Y-75587310D01*
X159921799Y-75702056D01*
X159976946Y-75750817D01*
X160022256Y-75787699D01*
X160056455Y-75883135D01*
X160085121Y-76053733D01*
X160088968Y-76084217D01*
X160127660Y-76399342D01*
X159879188Y-76374575D01*
X159708764Y-76345063D01*
X159580877Y-76282540D01*
X159450868Y-76166875D01*
X159367733Y-76078729D01*
X159312360Y-76001457D01*
X159275741Y-75910600D01*
X159248869Y-75781696D01*
X159222734Y-75590286D01*
X159214767Y-75525788D01*
X159158513Y-75067635D01*
X159303597Y-74925884D01*
G36*
X159412244Y-77117356D02*
G01*
X159390517Y-76894042D01*
X159377859Y-76720876D01*
X159375515Y-76613861D01*
X159380601Y-76586926D01*
X159441198Y-76579833D01*
X159566797Y-76583209D01*
X159713297Y-76594778D01*
X160013166Y-76624750D01*
X160041110Y-76852335D01*
X160061731Y-76988981D01*
X160094660Y-77059281D01*
X160162395Y-77090412D01*
X160249777Y-77104432D01*
X160356158Y-77117302D01*
X160525668Y-77136040D01*
X160740019Y-77158802D01*
X160980925Y-77183743D01*
X161230099Y-77209020D01*
X161469254Y-77232785D01*
X161680103Y-77253196D01*
X161844361Y-77268409D01*
X161943737Y-77276577D01*
X161964318Y-77277377D01*
X161981460Y-77318679D01*
X162003929Y-77430235D01*
X162027114Y-77588746D01*
X162029058Y-77604353D01*
X162047675Y-77776524D01*
X162048873Y-77874301D01*
X162030064Y-77916190D01*
X161988658Y-77920692D01*
X161984893Y-77920094D01*
X161915829Y-77911447D01*
X161774632Y-77895804D01*
X161579026Y-77874966D01*
X161346736Y-77850741D01*
X161095488Y-77824930D01*
X160843004Y-77799340D01*
X160607011Y-77775774D01*
X160405233Y-77756036D01*
X160255395Y-77741933D01*
X160175222Y-77735266D01*
X160166916Y-77735021D01*
X160162349Y-77778275D01*
X160169351Y-77886731D01*
X160178866Y-77974271D01*
X160207984Y-78211413D01*
X160052460Y-78199153D01*
X159894638Y-78184226D01*
X159724745Y-78164807D01*
X159716381Y-78163742D01*
X159535824Y-78140589D01*
X159441799Y-77374818D01*
X159412244Y-77117356D01*
X159412244Y-77117356D01*
G37*
X159412244Y-77117356D02*
X159390517Y-76894042D01*
X159377859Y-76720876D01*
X159375515Y-76613861D01*
X159380601Y-76586926D01*
X159441198Y-76579833D01*
X159566797Y-76583209D01*
X159713297Y-76594778D01*
X160013166Y-76624750D01*
X160041110Y-76852335D01*
X160061731Y-76988981D01*
X160094660Y-77059281D01*
X160162395Y-77090412D01*
X160249777Y-77104432D01*
X160356158Y-77117302D01*
X160525668Y-77136040D01*
X160740019Y-77158802D01*
X160980925Y-77183743D01*
X161230099Y-77209020D01*
X161469254Y-77232785D01*
X161680103Y-77253196D01*
X161844361Y-77268409D01*
X161943737Y-77276577D01*
X161964318Y-77277377D01*
X161981460Y-77318679D01*
X162003929Y-77430235D01*
X162027114Y-77588746D01*
X162029058Y-77604353D01*
X162047675Y-77776524D01*
X162048873Y-77874301D01*
X162030064Y-77916190D01*
X161988658Y-77920692D01*
X161984893Y-77920094D01*
X161915829Y-77911447D01*
X161774632Y-77895804D01*
X161579026Y-77874966D01*
X161346736Y-77850741D01*
X161095488Y-77824930D01*
X160843004Y-77799340D01*
X160607011Y-77775774D01*
X160405233Y-77756036D01*
X160255395Y-77741933D01*
X160175222Y-77735266D01*
X160166916Y-77735021D01*
X160162349Y-77778275D01*
X160169351Y-77886731D01*
X160178866Y-77974271D01*
X160207984Y-78211413D01*
X160052460Y-78199153D01*
X159894638Y-78184226D01*
X159724745Y-78164807D01*
X159716381Y-78163742D01*
X159535824Y-78140589D01*
X159441799Y-77374818D01*
X159412244Y-77117356D01*
G36*
X159822168Y-80442330D02*
G01*
X159817598Y-80326104D01*
X159823549Y-80279573D01*
X159875532Y-80274328D01*
X160003905Y-80278619D01*
X160191579Y-80291410D01*
X160421467Y-80311666D01*
X160526822Y-80322184D01*
X160827811Y-80350231D01*
X161048058Y-80363191D01*
X161199644Y-80361259D01*
X161294651Y-80344628D01*
X161317586Y-80334946D01*
X161426761Y-80277344D01*
X161299377Y-80178776D01*
X161221679Y-80134384D01*
X161105955Y-80097870D01*
X160936803Y-80066079D01*
X160698818Y-80035853D01*
X160505234Y-80016061D01*
X160263003Y-79991719D01*
X160053895Y-79968751D01*
X159895976Y-79949289D01*
X159807313Y-79935466D01*
X159795947Y-79932337D01*
X159767371Y-79878041D01*
X159739987Y-79762371D01*
X159718002Y-79617815D01*
X159705625Y-79476858D01*
X159707068Y-79371986D01*
X159718831Y-79337213D01*
X159775535Y-79331915D01*
X159906930Y-79336315D01*
X160094252Y-79349344D01*
X160318736Y-79369932D01*
X160351179Y-79373264D01*
X160650905Y-79402410D01*
X160872140Y-79418123D01*
X161029536Y-79420160D01*
X161137744Y-79408279D01*
X161211420Y-79382238D01*
X161246707Y-79358447D01*
X161275369Y-79298352D01*
X161210768Y-79241972D01*
X161053647Y-79189532D01*
X160804752Y-79141261D01*
X160464828Y-79097387D01*
X160355020Y-79086076D01*
X159643325Y-79016113D01*
X159607331Y-78722964D01*
X159593354Y-78566489D01*
X159592760Y-78450547D01*
X159603710Y-78404002D01*
X159659087Y-78399836D01*
X159791813Y-78404688D01*
X159985696Y-78417533D01*
X160224547Y-78437344D01*
X160416300Y-78455451D01*
X161196517Y-78532713D01*
X161714302Y-78895649D01*
X161925786Y-79045811D01*
X162071738Y-79156249D01*
X162164901Y-79239435D01*
X162218010Y-79307835D01*
X162243807Y-79373921D01*
X162252017Y-79422005D01*
X162256190Y-79525555D01*
X162223661Y-79595307D01*
X162134635Y-79661663D01*
X162072633Y-79697524D01*
X161957691Y-79768599D01*
X161887658Y-79824362D01*
X161877269Y-79841799D01*
X161915819Y-79882626D01*
X162011617Y-79955333D01*
X162112871Y-80023791D01*
X162250914Y-80122075D01*
X162325936Y-80206253D01*
X162359566Y-80303261D01*
X162364633Y-80337394D01*
X162370579Y-80411433D01*
X162358227Y-80469886D01*
X162314170Y-80526938D01*
X162225005Y-80596775D01*
X162077327Y-80693579D01*
X161955707Y-80770099D01*
X161526671Y-81039018D01*
X161120004Y-81007666D01*
X160865577Y-80986671D01*
X160576773Y-80960772D01*
X160312732Y-80935288D01*
X160293393Y-80933318D01*
X159873449Y-80890322D01*
X159837658Y-80598824D01*
X159822168Y-80442330D01*
X159822168Y-80442330D01*
G37*
X159822168Y-80442330D02*
X159817598Y-80326104D01*
X159823549Y-80279573D01*
X159875532Y-80274328D01*
X160003905Y-80278619D01*
X160191579Y-80291410D01*
X160421467Y-80311666D01*
X160526822Y-80322184D01*
X160827811Y-80350231D01*
X161048058Y-80363191D01*
X161199644Y-80361259D01*
X161294651Y-80344628D01*
X161317586Y-80334946D01*
X161426761Y-80277344D01*
X161299377Y-80178776D01*
X161221679Y-80134384D01*
X161105955Y-80097870D01*
X160936803Y-80066079D01*
X160698818Y-80035853D01*
X160505234Y-80016061D01*
X160263003Y-79991719D01*
X160053895Y-79968751D01*
X159895976Y-79949289D01*
X159807313Y-79935466D01*
X159795947Y-79932337D01*
X159767371Y-79878041D01*
X159739987Y-79762371D01*
X159718002Y-79617815D01*
X159705625Y-79476858D01*
X159707068Y-79371986D01*
X159718831Y-79337213D01*
X159775535Y-79331915D01*
X159906930Y-79336315D01*
X160094252Y-79349344D01*
X160318736Y-79369932D01*
X160351179Y-79373264D01*
X160650905Y-79402410D01*
X160872140Y-79418123D01*
X161029536Y-79420160D01*
X161137744Y-79408279D01*
X161211420Y-79382238D01*
X161246707Y-79358447D01*
X161275369Y-79298352D01*
X161210768Y-79241972D01*
X161053647Y-79189532D01*
X160804752Y-79141261D01*
X160464828Y-79097387D01*
X160355020Y-79086076D01*
X159643325Y-79016113D01*
X159607331Y-78722964D01*
X159593354Y-78566489D01*
X159592760Y-78450547D01*
X159603710Y-78404002D01*
X159659087Y-78399836D01*
X159791813Y-78404688D01*
X159985696Y-78417533D01*
X160224547Y-78437344D01*
X160416300Y-78455451D01*
X161196517Y-78532713D01*
X161714302Y-78895649D01*
X161925786Y-79045811D01*
X162071738Y-79156249D01*
X162164901Y-79239435D01*
X162218010Y-79307835D01*
X162243807Y-79373921D01*
X162252017Y-79422005D01*
X162256190Y-79525555D01*
X162223661Y-79595307D01*
X162134635Y-79661663D01*
X162072633Y-79697524D01*
X161957691Y-79768599D01*
X161887658Y-79824362D01*
X161877269Y-79841799D01*
X161915819Y-79882626D01*
X162011617Y-79955333D01*
X162112871Y-80023791D01*
X162250914Y-80122075D01*
X162325936Y-80206253D01*
X162359566Y-80303261D01*
X162364633Y-80337394D01*
X162370579Y-80411433D01*
X162358227Y-80469886D01*
X162314170Y-80526938D01*
X162225005Y-80596775D01*
X162077327Y-80693579D01*
X161955707Y-80770099D01*
X161526671Y-81039018D01*
X161120004Y-81007666D01*
X160865577Y-80986671D01*
X160576773Y-80960772D01*
X160312732Y-80935288D01*
X160293393Y-80933318D01*
X159873449Y-80890322D01*
X159837658Y-80598824D01*
X159822168Y-80442330D01*
G36*
X163122206Y-74488235D02*
G01*
X163140883Y-74506912D01*
X163122206Y-74525588D01*
X163103530Y-74506912D01*
X163122206Y-74488235D01*
X163122206Y-74488235D01*
G37*
X163122206Y-74488235D02*
X163140883Y-74506912D01*
X163122206Y-74525588D01*
X163103530Y-74506912D01*
X163122206Y-74488235D01*
G36*
X163271618Y-70304706D02*
G01*
X163290294Y-70323382D01*
X163271618Y-70342059D01*
X163252941Y-70323382D01*
X163271618Y-70304706D01*
X163271618Y-70304706D01*
G37*
X163271618Y-70304706D02*
X163290294Y-70323382D01*
X163271618Y-70342059D01*
X163252941Y-70323382D01*
X163271618Y-70304706D01*
G36*
X163271618Y-70379412D02*
G01*
X163290294Y-70398088D01*
X163271618Y-70416765D01*
X163252941Y-70398088D01*
X163271618Y-70379412D01*
X163271618Y-70379412D01*
G37*
X163271618Y-70379412D02*
X163290294Y-70398088D01*
X163271618Y-70416765D01*
X163252941Y-70398088D01*
X163271618Y-70379412D01*
G36*
X163346324Y-61302647D02*
G01*
X163365000Y-61321324D01*
X163346324Y-61340000D01*
X163327647Y-61321324D01*
X163346324Y-61302647D01*
X163346324Y-61302647D01*
G37*
X163346324Y-61302647D02*
X163365000Y-61321324D01*
X163346324Y-61340000D01*
X163327647Y-61321324D01*
X163346324Y-61302647D01*
G36*
X163315303Y-77855816D02*
G01*
X163343108Y-77792272D01*
X163365224Y-77775294D01*
X163398973Y-77805240D01*
X163460457Y-77885212D01*
X163540283Y-78000410D01*
X163629056Y-78136036D01*
X163717381Y-78277289D01*
X163795863Y-78409370D01*
X163855109Y-78517481D01*
X163885723Y-78586821D01*
X163887941Y-78598741D01*
X163906700Y-78665438D01*
X163926228Y-78684527D01*
X163935562Y-78696656D01*
X163919559Y-78694755D01*
X163866639Y-78657900D01*
X163834581Y-78614038D01*
X163774497Y-78530584D01*
X163723476Y-78476188D01*
X163678012Y-78427885D01*
X163673050Y-78410294D01*
X163662742Y-78386173D01*
X163613257Y-78324863D01*
X163576044Y-78283561D01*
X163438504Y-78127183D01*
X163353340Y-78008637D01*
X163314919Y-77918680D01*
X163315303Y-77855816D01*
X163315303Y-77855816D01*
G37*
X163315303Y-77855816D02*
X163343108Y-77792272D01*
X163365224Y-77775294D01*
X163398973Y-77805240D01*
X163460457Y-77885212D01*
X163540283Y-78000410D01*
X163629056Y-78136036D01*
X163717381Y-78277289D01*
X163795863Y-78409370D01*
X163855109Y-78517481D01*
X163885723Y-78586821D01*
X163887941Y-78598741D01*
X163906700Y-78665438D01*
X163926228Y-78684527D01*
X163935562Y-78696656D01*
X163919559Y-78694755D01*
X163866639Y-78657900D01*
X163834581Y-78614038D01*
X163774497Y-78530584D01*
X163723476Y-78476188D01*
X163678012Y-78427885D01*
X163673050Y-78410294D01*
X163662742Y-78386173D01*
X163613257Y-78324863D01*
X163576044Y-78283561D01*
X163438504Y-78127183D01*
X163353340Y-78008637D01*
X163314919Y-77918680D01*
X163315303Y-77855816D01*
G36*
X163975098Y-64340686D02*
G01*
X164019428Y-64336216D01*
X164024902Y-64340686D01*
X164019775Y-64362893D01*
X164000000Y-64365588D01*
X163969255Y-64351921D01*
X163975098Y-64340686D01*
X163975098Y-64340686D01*
G37*
X163975098Y-64340686D02*
X164019428Y-64336216D01*
X164024902Y-64340686D01*
X164019775Y-64362893D01*
X164000000Y-64365588D01*
X163969255Y-64351921D01*
X163975098Y-64340686D01*
G36*
X163315077Y-76703720D02*
G01*
X163330791Y-76669594D01*
X163365674Y-76630259D01*
X163394082Y-76614933D01*
X163422322Y-76632240D01*
X163456700Y-76690803D01*
X163503522Y-76799245D01*
X163569096Y-76966189D01*
X163593084Y-77028235D01*
X163658034Y-77196324D01*
X163661501Y-77009559D01*
X163676075Y-76848947D01*
X163711011Y-76759502D01*
X163764056Y-76741189D01*
X163832957Y-76793973D01*
X163915462Y-76917820D01*
X163964859Y-77014193D01*
X163997468Y-77092018D01*
X164047641Y-77223531D01*
X164111370Y-77397177D01*
X164184650Y-77601401D01*
X164263476Y-77824648D01*
X164343842Y-78055364D01*
X164421740Y-78281993D01*
X164493167Y-78492981D01*
X164554116Y-78676772D01*
X164600580Y-78821811D01*
X164628556Y-78916544D01*
X164635000Y-78947229D01*
X164610403Y-78979764D01*
X164583705Y-79004012D01*
X164510957Y-79030087D01*
X164476297Y-79025050D01*
X164431991Y-78981898D01*
X164365198Y-78885750D01*
X164284199Y-78751686D01*
X164232864Y-78659026D01*
X164232864Y-78387345D01*
X164246492Y-78386595D01*
X164241608Y-78344804D01*
X164216546Y-78254755D01*
X164169641Y-78109237D01*
X164099225Y-77901034D01*
X164094545Y-77887353D01*
X164024870Y-77685014D01*
X163960871Y-77501504D01*
X163907619Y-77351181D01*
X163870182Y-77248404D01*
X163857196Y-77215000D01*
X163833499Y-77165808D01*
X163821978Y-77172007D01*
X163818466Y-77241614D01*
X163818372Y-77289706D01*
X163822495Y-77384868D01*
X163832768Y-77497405D01*
X163846628Y-77609196D01*
X163861509Y-77702116D01*
X163874845Y-77758041D01*
X163884072Y-77758847D01*
X163884459Y-77756618D01*
X163900305Y-77769928D01*
X163937084Y-77838665D01*
X163987616Y-77949043D01*
X164001220Y-77980735D01*
X164068815Y-78126530D01*
X164140518Y-78259930D01*
X164201087Y-78352633D01*
X164202391Y-78354265D01*
X164232864Y-78387345D01*
X164232864Y-78659026D01*
X164197275Y-78594787D01*
X164112707Y-78430131D01*
X164038776Y-78272801D01*
X163983763Y-78137874D01*
X163974615Y-78111471D01*
X163906618Y-77906029D01*
X163895025Y-78046103D01*
X163876710Y-78144252D01*
X163838233Y-78183560D01*
X163817859Y-78186176D01*
X163752490Y-78150627D01*
X163733922Y-78124932D01*
X163733922Y-77793971D01*
X163715146Y-77570572D01*
X163700698Y-77448636D01*
X163682338Y-77359827D01*
X163667566Y-77327778D01*
X163626902Y-77282925D01*
X163593639Y-77233676D01*
X163565733Y-77193606D01*
X163560473Y-77211673D01*
X163573051Y-77286131D01*
X163600622Y-77397626D01*
X163642785Y-77536438D01*
X163665754Y-77603631D01*
X163733922Y-77793971D01*
X163733922Y-78124932D01*
X163679439Y-78049533D01*
X163602125Y-77891228D01*
X163523967Y-77684044D01*
X163448383Y-77436314D01*
X163378792Y-77156370D01*
X163360384Y-77071138D01*
X163326330Y-76894176D01*
X163311548Y-76776059D01*
X163315077Y-76703720D01*
X163315077Y-76703720D01*
G37*
X163315077Y-76703720D02*
X163330791Y-76669594D01*
X163365674Y-76630259D01*
X163394082Y-76614933D01*
X163422322Y-76632240D01*
X163456700Y-76690803D01*
X163503522Y-76799245D01*
X163569096Y-76966189D01*
X163593084Y-77028235D01*
X163658034Y-77196324D01*
X163661501Y-77009559D01*
X163676075Y-76848947D01*
X163711011Y-76759502D01*
X163764056Y-76741189D01*
X163832957Y-76793973D01*
X163915462Y-76917820D01*
X163964859Y-77014193D01*
X163997468Y-77092018D01*
X164047641Y-77223531D01*
X164111370Y-77397177D01*
X164184650Y-77601401D01*
X164263476Y-77824648D01*
X164343842Y-78055364D01*
X164421740Y-78281993D01*
X164493167Y-78492981D01*
X164554116Y-78676772D01*
X164600580Y-78821811D01*
X164628556Y-78916544D01*
X164635000Y-78947229D01*
X164610403Y-78979764D01*
X164583705Y-79004012D01*
X164510957Y-79030087D01*
X164476297Y-79025050D01*
X164431991Y-78981898D01*
X164365198Y-78885750D01*
X164284199Y-78751686D01*
X164232864Y-78659026D01*
X164232864Y-78387345D01*
X164246492Y-78386595D01*
X164241608Y-78344804D01*
X164216546Y-78254755D01*
X164169641Y-78109237D01*
X164099225Y-77901034D01*
X164094545Y-77887353D01*
X164024870Y-77685014D01*
X163960871Y-77501504D01*
X163907619Y-77351181D01*
X163870182Y-77248404D01*
X163857196Y-77215000D01*
X163833499Y-77165808D01*
X163821978Y-77172007D01*
X163818466Y-77241614D01*
X163818372Y-77289706D01*
X163822495Y-77384868D01*
X163832768Y-77497405D01*
X163846628Y-77609196D01*
X163861509Y-77702116D01*
X163874845Y-77758041D01*
X163884072Y-77758847D01*
X163884459Y-77756618D01*
X163900305Y-77769928D01*
X163937084Y-77838665D01*
X163987616Y-77949043D01*
X164001220Y-77980735D01*
X164068815Y-78126530D01*
X164140518Y-78259930D01*
X164201087Y-78352633D01*
X164202391Y-78354265D01*
X164232864Y-78387345D01*
X164232864Y-78659026D01*
X164197275Y-78594787D01*
X164112707Y-78430131D01*
X164038776Y-78272801D01*
X163983763Y-78137874D01*
X163974615Y-78111471D01*
X163906618Y-77906029D01*
X163895025Y-78046103D01*
X163876710Y-78144252D01*
X163838233Y-78183560D01*
X163817859Y-78186176D01*
X163752490Y-78150627D01*
X163733922Y-78124932D01*
X163733922Y-77793971D01*
X163715146Y-77570572D01*
X163700698Y-77448636D01*
X163682338Y-77359827D01*
X163667566Y-77327778D01*
X163626902Y-77282925D01*
X163593639Y-77233676D01*
X163565733Y-77193606D01*
X163560473Y-77211673D01*
X163573051Y-77286131D01*
X163600622Y-77397626D01*
X163642785Y-77536438D01*
X163665754Y-77603631D01*
X163733922Y-77793971D01*
X163733922Y-78124932D01*
X163679439Y-78049533D01*
X163602125Y-77891228D01*
X163523967Y-77684044D01*
X163448383Y-77436314D01*
X163378792Y-77156370D01*
X163360384Y-77071138D01*
X163326330Y-76894176D01*
X163311548Y-76776059D01*
X163315077Y-76703720D01*
G36*
X163319869Y-80990838D02*
G01*
X163331049Y-80964872D01*
X163365832Y-80925677D01*
X163394184Y-80910478D01*
X163422405Y-80927905D01*
X163456793Y-80986588D01*
X163503651Y-81095158D01*
X163569276Y-81262243D01*
X163593084Y-81323824D01*
X163658034Y-81491912D01*
X163661501Y-81305147D01*
X163672407Y-81151585D01*
X163700540Y-81065165D01*
X163749559Y-81039567D01*
X163804704Y-81057787D01*
X163858027Y-81111822D01*
X163923917Y-81224972D01*
X164003517Y-81399943D01*
X164097967Y-81639440D01*
X164208410Y-81946167D01*
X164326762Y-82295000D01*
X164419324Y-82574146D01*
X164490615Y-82790991D01*
X164542866Y-82954145D01*
X164578307Y-83072222D01*
X164599167Y-83153833D01*
X164607677Y-83207589D01*
X164606066Y-83242103D01*
X164596565Y-83265986D01*
X164583212Y-83285370D01*
X164519694Y-83325323D01*
X164479916Y-83322027D01*
X164434263Y-83278309D01*
X164366259Y-83181528D01*
X164284221Y-83046740D01*
X164237207Y-82962236D01*
X164237207Y-82701245D01*
X164238498Y-82678847D01*
X164219336Y-82598899D01*
X164183866Y-82474393D01*
X164136234Y-82318319D01*
X164080587Y-82143668D01*
X164021070Y-81963431D01*
X163961829Y-81790598D01*
X163907011Y-81638159D01*
X163860761Y-81519106D01*
X163857208Y-81510588D01*
X163831067Y-81453605D01*
X163819740Y-81457631D01*
X163816241Y-81528986D01*
X163815928Y-81547941D01*
X163819196Y-81684058D01*
X163831173Y-81820664D01*
X163849035Y-81939408D01*
X163869959Y-82021937D01*
X163891121Y-82049902D01*
X163893033Y-82049059D01*
X163922738Y-82057768D01*
X163925294Y-82073426D01*
X163942026Y-82132302D01*
X163985432Y-82235663D01*
X164045329Y-82363014D01*
X164111536Y-82493858D01*
X164173869Y-82607700D01*
X164222145Y-82684043D01*
X164237207Y-82701245D01*
X164237207Y-82962236D01*
X164196465Y-82889005D01*
X164111306Y-82723380D01*
X164037061Y-82564923D01*
X163982044Y-82428692D01*
X163974615Y-82407059D01*
X163906618Y-82201618D01*
X163895025Y-82341691D01*
X163876710Y-82439840D01*
X163838233Y-82479148D01*
X163817859Y-82481765D01*
X163750609Y-82445054D01*
X163737843Y-82426633D01*
X163737843Y-82089559D01*
X163716651Y-81865879D01*
X163701008Y-81743961D01*
X163681977Y-81655185D01*
X163667111Y-81623085D01*
X163626840Y-81578497D01*
X163593639Y-81529265D01*
X163565733Y-81489194D01*
X163560473Y-81507261D01*
X163573051Y-81581720D01*
X163600922Y-81692942D01*
X163643931Y-81831457D01*
X163667715Y-81899220D01*
X163737843Y-82089559D01*
X163737843Y-82426633D01*
X163675272Y-82336340D01*
X163593007Y-82157752D01*
X163504974Y-81911419D01*
X163502189Y-81902794D01*
X163429291Y-81659351D01*
X163372543Y-81435100D01*
X163334011Y-81241375D01*
X163315764Y-81089510D01*
X163319869Y-80990838D01*
X163319869Y-80990838D01*
G37*
X163319869Y-80990838D02*
X163331049Y-80964872D01*
X163365832Y-80925677D01*
X163394184Y-80910478D01*
X163422405Y-80927905D01*
X163456793Y-80986588D01*
X163503651Y-81095158D01*
X163569276Y-81262243D01*
X163593084Y-81323824D01*
X163658034Y-81491912D01*
X163661501Y-81305147D01*
X163672407Y-81151585D01*
X163700540Y-81065165D01*
X163749559Y-81039567D01*
X163804704Y-81057787D01*
X163858027Y-81111822D01*
X163923917Y-81224972D01*
X164003517Y-81399943D01*
X164097967Y-81639440D01*
X164208410Y-81946167D01*
X164326762Y-82295000D01*
X164419324Y-82574146D01*
X164490615Y-82790991D01*
X164542866Y-82954145D01*
X164578307Y-83072222D01*
X164599167Y-83153833D01*
X164607677Y-83207589D01*
X164606066Y-83242103D01*
X164596565Y-83265986D01*
X164583212Y-83285370D01*
X164519694Y-83325323D01*
X164479916Y-83322027D01*
X164434263Y-83278309D01*
X164366259Y-83181528D01*
X164284221Y-83046740D01*
X164237207Y-82962236D01*
X164237207Y-82701245D01*
X164238498Y-82678847D01*
X164219336Y-82598899D01*
X164183866Y-82474393D01*
X164136234Y-82318319D01*
X164080587Y-82143668D01*
X164021070Y-81963431D01*
X163961829Y-81790598D01*
X163907011Y-81638159D01*
X163860761Y-81519106D01*
X163857208Y-81510588D01*
X163831067Y-81453605D01*
X163819740Y-81457631D01*
X163816241Y-81528986D01*
X163815928Y-81547941D01*
X163819196Y-81684058D01*
X163831173Y-81820664D01*
X163849035Y-81939408D01*
X163869959Y-82021937D01*
X163891121Y-82049902D01*
X163893033Y-82049059D01*
X163922738Y-82057768D01*
X163925294Y-82073426D01*
X163942026Y-82132302D01*
X163985432Y-82235663D01*
X164045329Y-82363014D01*
X164111536Y-82493858D01*
X164173869Y-82607700D01*
X164222145Y-82684043D01*
X164237207Y-82701245D01*
X164237207Y-82962236D01*
X164196465Y-82889005D01*
X164111306Y-82723380D01*
X164037061Y-82564923D01*
X163982044Y-82428692D01*
X163974615Y-82407059D01*
X163906618Y-82201618D01*
X163895025Y-82341691D01*
X163876710Y-82439840D01*
X163838233Y-82479148D01*
X163817859Y-82481765D01*
X163750609Y-82445054D01*
X163737843Y-82426633D01*
X163737843Y-82089559D01*
X163716651Y-81865879D01*
X163701008Y-81743961D01*
X163681977Y-81655185D01*
X163667111Y-81623085D01*
X163626840Y-81578497D01*
X163593639Y-81529265D01*
X163565733Y-81489194D01*
X163560473Y-81507261D01*
X163573051Y-81581720D01*
X163600922Y-81692942D01*
X163643931Y-81831457D01*
X163667715Y-81899220D01*
X163737843Y-82089559D01*
X163737843Y-82426633D01*
X163675272Y-82336340D01*
X163593007Y-82157752D01*
X163504974Y-81911419D01*
X163502189Y-81902794D01*
X163429291Y-81659351D01*
X163372543Y-81435100D01*
X163334011Y-81241375D01*
X163315764Y-81089510D01*
X163319869Y-80990838D01*
G36*
X163259066Y-70499348D02*
G01*
X163267960Y-70460122D01*
X163283192Y-70485216D01*
X163303235Y-70579084D01*
X163310417Y-70624384D01*
X163346040Y-70835970D01*
X163391286Y-71064464D01*
X163442669Y-71295988D01*
X163496703Y-71516666D01*
X163549904Y-71712621D01*
X163598785Y-71869977D01*
X163639862Y-71974856D01*
X163656936Y-72003993D01*
X163728122Y-72094490D01*
X163714424Y-71750554D01*
X163711143Y-71586904D01*
X163716958Y-71496660D01*
X163731396Y-71479137D01*
X163753980Y-71533650D01*
X163784235Y-71659515D01*
X163821688Y-71856049D01*
X163833018Y-71921411D01*
X163864548Y-72094611D01*
X163895521Y-72217759D01*
X163935917Y-72314763D01*
X163995714Y-72409531D01*
X164084889Y-72525972D01*
X164085832Y-72527162D01*
X164174280Y-72636418D01*
X164243302Y-72717326D01*
X164281560Y-72756752D01*
X164285507Y-72758415D01*
X164283285Y-72720135D01*
X164267213Y-72633627D01*
X164255808Y-72582223D01*
X164229349Y-72465083D01*
X164194245Y-72305375D01*
X164157196Y-72133642D01*
X164149527Y-72097647D01*
X164115733Y-71945143D01*
X164084469Y-71815417D01*
X164061009Y-71729995D01*
X164055711Y-71714779D01*
X164052212Y-71660926D01*
X164088675Y-71649412D01*
X164140725Y-71682602D01*
X164170434Y-71752132D01*
X164204912Y-71891034D01*
X164257245Y-72079337D01*
X164321003Y-72295792D01*
X164389755Y-72519153D01*
X164457070Y-72728172D01*
X164516519Y-72901600D01*
X164527192Y-72930939D01*
X164575276Y-73075333D01*
X164607131Y-73198940D01*
X164617673Y-73280861D01*
X164615722Y-73294836D01*
X164615811Y-73361689D01*
X164633481Y-73385385D01*
X164670602Y-73434972D01*
X164672353Y-73447269D01*
X164647638Y-73453161D01*
X164587102Y-73417847D01*
X164576732Y-73409912D01*
X164485728Y-73324801D01*
X164400091Y-73224862D01*
X164399305Y-73223800D01*
X164250902Y-73028988D01*
X164120285Y-72869980D01*
X164013646Y-72753604D01*
X163937172Y-72686687D01*
X163900628Y-72673748D01*
X163858461Y-72653325D01*
X163818335Y-72562456D01*
X163810469Y-72534981D01*
X163775372Y-72413170D01*
X163747863Y-72353309D01*
X163718774Y-72344545D01*
X163678937Y-72376025D01*
X163677451Y-72377508D01*
X163612413Y-72426408D01*
X163565484Y-72413194D01*
X163524493Y-72332434D01*
X163515053Y-72305030D01*
X163488180Y-72201516D01*
X163454931Y-72040082D01*
X163417911Y-71836973D01*
X163379720Y-71608435D01*
X163342962Y-71370711D01*
X163310240Y-71140046D01*
X163284155Y-70932686D01*
X163267311Y-70764876D01*
X163266388Y-70752941D01*
X163258033Y-70598439D01*
X163259066Y-70499348D01*
X163259066Y-70499348D01*
G37*
X163259066Y-70499348D02*
X163267960Y-70460122D01*
X163283192Y-70485216D01*
X163303235Y-70579084D01*
X163310417Y-70624384D01*
X163346040Y-70835970D01*
X163391286Y-71064464D01*
X163442669Y-71295988D01*
X163496703Y-71516666D01*
X163549904Y-71712621D01*
X163598785Y-71869977D01*
X163639862Y-71974856D01*
X163656936Y-72003993D01*
X163728122Y-72094490D01*
X163714424Y-71750554D01*
X163711143Y-71586904D01*
X163716958Y-71496660D01*
X163731396Y-71479137D01*
X163753980Y-71533650D01*
X163784235Y-71659515D01*
X163821688Y-71856049D01*
X163833018Y-71921411D01*
X163864548Y-72094611D01*
X163895521Y-72217759D01*
X163935917Y-72314763D01*
X163995714Y-72409531D01*
X164084889Y-72525972D01*
X164085832Y-72527162D01*
X164174280Y-72636418D01*
X164243302Y-72717326D01*
X164281560Y-72756752D01*
X164285507Y-72758415D01*
X164283285Y-72720135D01*
X164267213Y-72633627D01*
X164255808Y-72582223D01*
X164229349Y-72465083D01*
X164194245Y-72305375D01*
X164157196Y-72133642D01*
X164149527Y-72097647D01*
X164115733Y-71945143D01*
X164084469Y-71815417D01*
X164061009Y-71729995D01*
X164055711Y-71714779D01*
X164052212Y-71660926D01*
X164088675Y-71649412D01*
X164140725Y-71682602D01*
X164170434Y-71752132D01*
X164204912Y-71891034D01*
X164257245Y-72079337D01*
X164321003Y-72295792D01*
X164389755Y-72519153D01*
X164457070Y-72728172D01*
X164516519Y-72901600D01*
X164527192Y-72930939D01*
X164575276Y-73075333D01*
X164607131Y-73198940D01*
X164617673Y-73280861D01*
X164615722Y-73294836D01*
X164615811Y-73361689D01*
X164633481Y-73385385D01*
X164670602Y-73434972D01*
X164672353Y-73447269D01*
X164647638Y-73453161D01*
X164587102Y-73417847D01*
X164576732Y-73409912D01*
X164485728Y-73324801D01*
X164400091Y-73224862D01*
X164399305Y-73223800D01*
X164250902Y-73028988D01*
X164120285Y-72869980D01*
X164013646Y-72753604D01*
X163937172Y-72686687D01*
X163900628Y-72673748D01*
X163858461Y-72653325D01*
X163818335Y-72562456D01*
X163810469Y-72534981D01*
X163775372Y-72413170D01*
X163747863Y-72353309D01*
X163718774Y-72344545D01*
X163678937Y-72376025D01*
X163677451Y-72377508D01*
X163612413Y-72426408D01*
X163565484Y-72413194D01*
X163524493Y-72332434D01*
X163515053Y-72305030D01*
X163488180Y-72201516D01*
X163454931Y-72040082D01*
X163417911Y-71836973D01*
X163379720Y-71608435D01*
X163342962Y-71370711D01*
X163310240Y-71140046D01*
X163284155Y-70932686D01*
X163267311Y-70764876D01*
X163266388Y-70752941D01*
X163258033Y-70598439D01*
X163259066Y-70499348D01*
G36*
X163265761Y-59884931D02*
G01*
X163306321Y-59891413D01*
X163377774Y-59945563D01*
X163483270Y-60050302D01*
X163625962Y-60208548D01*
X163809001Y-60423223D01*
X163864901Y-60490221D01*
X164078542Y-60747629D01*
X164249106Y-60954665D01*
X164381549Y-61118175D01*
X164480826Y-61245004D01*
X164551892Y-61341999D01*
X164599703Y-61416005D01*
X164629214Y-61473867D01*
X164645381Y-61522433D01*
X164653158Y-61568547D01*
X164654412Y-61580929D01*
X164653897Y-61664729D01*
X164627723Y-61705268D01*
X164568248Y-61701560D01*
X164467835Y-61652619D01*
X164318841Y-61557457D01*
X164282737Y-61532926D01*
X164155317Y-61446382D01*
X164047182Y-61374035D01*
X163976494Y-61327999D01*
X163964595Y-61320712D01*
X163968882Y-61337336D01*
X164014305Y-61403045D01*
X164094450Y-61509302D01*
X164202905Y-61647572D01*
X164311904Y-61783084D01*
X164445506Y-61948879D01*
X164562402Y-62096543D01*
X164654412Y-62215538D01*
X164713361Y-62295325D01*
X164731001Y-62323207D01*
X164725223Y-62387388D01*
X164699060Y-62437246D01*
X164669862Y-62467311D01*
X164637905Y-62464622D01*
X164591073Y-62420553D01*
X164517253Y-62326478D01*
X164487698Y-62286763D01*
X164402234Y-62173782D01*
X164330005Y-62082634D01*
X164285875Y-62032044D01*
X164284388Y-62030655D01*
X164225485Y-61965781D01*
X164137542Y-61855060D01*
X164032947Y-61714810D01*
X163924091Y-61561351D01*
X163887649Y-61508088D01*
X163792627Y-61381716D01*
X163670873Y-61238295D01*
X163563099Y-61123612D01*
X163467134Y-61021362D01*
X163396764Y-60934047D01*
X163365491Y-60878644D01*
X163365000Y-60874534D01*
X163380171Y-60785789D01*
X163416089Y-60720456D01*
X163444827Y-60705000D01*
X163491839Y-60729902D01*
X163591952Y-60803502D01*
X163743089Y-60924141D01*
X163943168Y-61090159D01*
X164185449Y-61295903D01*
X164389573Y-61470735D01*
X164187482Y-61209265D01*
X164071648Y-61059712D01*
X163932810Y-60880923D01*
X163793977Y-60702514D01*
X163737672Y-60630294D01*
X163563493Y-60402849D01*
X163424500Y-60212531D01*
X163324276Y-60064562D01*
X163266402Y-59964167D01*
X163252941Y-59923196D01*
X163265761Y-59884931D01*
X163265761Y-59884931D01*
G37*
X163265761Y-59884931D02*
X163306321Y-59891413D01*
X163377774Y-59945563D01*
X163483270Y-60050302D01*
X163625962Y-60208548D01*
X163809001Y-60423223D01*
X163864901Y-60490221D01*
X164078542Y-60747629D01*
X164249106Y-60954665D01*
X164381549Y-61118175D01*
X164480826Y-61245004D01*
X164551892Y-61341999D01*
X164599703Y-61416005D01*
X164629214Y-61473867D01*
X164645381Y-61522433D01*
X164653158Y-61568547D01*
X164654412Y-61580929D01*
X164653897Y-61664729D01*
X164627723Y-61705268D01*
X164568248Y-61701560D01*
X164467835Y-61652619D01*
X164318841Y-61557457D01*
X164282737Y-61532926D01*
X164155317Y-61446382D01*
X164047182Y-61374035D01*
X163976494Y-61327999D01*
X163964595Y-61320712D01*
X163968882Y-61337336D01*
X164014305Y-61403045D01*
X164094450Y-61509302D01*
X164202905Y-61647572D01*
X164311904Y-61783084D01*
X164445506Y-61948879D01*
X164562402Y-62096543D01*
X164654412Y-62215538D01*
X164713361Y-62295325D01*
X164731001Y-62323207D01*
X164725223Y-62387388D01*
X164699060Y-62437246D01*
X164669862Y-62467311D01*
X164637905Y-62464622D01*
X164591073Y-62420553D01*
X164517253Y-62326478D01*
X164487698Y-62286763D01*
X164402234Y-62173782D01*
X164330005Y-62082634D01*
X164285875Y-62032044D01*
X164284388Y-62030655D01*
X164225485Y-61965781D01*
X164137542Y-61855060D01*
X164032947Y-61714810D01*
X163924091Y-61561351D01*
X163887649Y-61508088D01*
X163792627Y-61381716D01*
X163670873Y-61238295D01*
X163563099Y-61123612D01*
X163467134Y-61021362D01*
X163396764Y-60934047D01*
X163365491Y-60878644D01*
X163365000Y-60874534D01*
X163380171Y-60785789D01*
X163416089Y-60720456D01*
X163444827Y-60705000D01*
X163491839Y-60729902D01*
X163591952Y-60803502D01*
X163743089Y-60924141D01*
X163943168Y-61090159D01*
X164185449Y-61295903D01*
X164389573Y-61470735D01*
X164187482Y-61209265D01*
X164071648Y-61059712D01*
X163932810Y-60880923D01*
X163793977Y-60702514D01*
X163737672Y-60630294D01*
X163563493Y-60402849D01*
X163424500Y-60212531D01*
X163324276Y-60064562D01*
X163266402Y-59964167D01*
X163252941Y-59923196D01*
X163265761Y-59884931D01*
G36*
X164728383Y-64141471D02*
G01*
X164747059Y-64160147D01*
X164728383Y-64178824D01*
X164709706Y-64160147D01*
X164728383Y-64141471D01*
X164728383Y-64141471D01*
G37*
X164728383Y-64141471D02*
X164747059Y-64160147D01*
X164728383Y-64178824D01*
X164709706Y-64160147D01*
X164728383Y-64141471D01*
G36*
X164759510Y-65386569D02*
G01*
X164781716Y-65391696D01*
X164784412Y-65411471D01*
X164770745Y-65442216D01*
X164759510Y-65436373D01*
X164755040Y-65392043D01*
X164759510Y-65386569D01*
X164759510Y-65386569D01*
G37*
X164759510Y-65386569D02*
X164781716Y-65391696D01*
X164784412Y-65411471D01*
X164770745Y-65442216D01*
X164759510Y-65436373D01*
X164755040Y-65392043D01*
X164759510Y-65386569D01*
G36*
X164759510Y-71101569D02*
G01*
X164781716Y-71106696D01*
X164784412Y-71126471D01*
X164770745Y-71157216D01*
X164759510Y-71151373D01*
X164755040Y-71107043D01*
X164759510Y-71101569D01*
X164759510Y-71101569D01*
G37*
X164759510Y-71101569D02*
X164781716Y-71106696D01*
X164784412Y-71126471D01*
X164770745Y-71157216D01*
X164759510Y-71151373D01*
X164755040Y-71107043D01*
X164759510Y-71101569D01*
G36*
X164759510Y-81186863D02*
G01*
X164781716Y-81191990D01*
X164784412Y-81211765D01*
X164770745Y-81242510D01*
X164759510Y-81236667D01*
X164755040Y-81192337D01*
X164759510Y-81186863D01*
X164759510Y-81186863D01*
G37*
X164759510Y-81186863D02*
X164781716Y-81191990D01*
X164784412Y-81211765D01*
X164770745Y-81242510D01*
X164759510Y-81236667D01*
X164755040Y-81192337D01*
X164759510Y-81186863D01*
G36*
X163269155Y-64956819D02*
G01*
X163311653Y-64928974D01*
X163348186Y-64925851D01*
X163391765Y-64956261D01*
X163455402Y-65029018D01*
X163544895Y-65143583D01*
X163803555Y-65477413D01*
X164028994Y-65765365D01*
X164218689Y-66004278D01*
X164370119Y-66190987D01*
X164480763Y-66322331D01*
X164517897Y-66363971D01*
X164655121Y-66518577D01*
X164751522Y-66638397D01*
X164805361Y-66719592D01*
X164814901Y-66758321D01*
X164778406Y-66750745D01*
X164694136Y-66693026D01*
X164651375Y-66658910D01*
X164558679Y-66576657D01*
X164431982Y-66455695D01*
X164287905Y-66312255D01*
X164143069Y-66162571D01*
X164142038Y-66161482D01*
X164021219Y-66034988D01*
X163925195Y-65936494D01*
X163861984Y-65874059D01*
X163839606Y-65855743D01*
X163841810Y-65859706D01*
X163873454Y-65913373D01*
X163931198Y-66018392D01*
X164006895Y-66159721D01*
X164092401Y-66322316D01*
X164094460Y-66326268D01*
X164189892Y-66501573D01*
X164287214Y-66667073D01*
X164374404Y-66803045D01*
X164434342Y-66883947D01*
X164521620Y-66996359D01*
X164556880Y-67064958D01*
X164547007Y-67091887D01*
X164498883Y-67079285D01*
X164419392Y-67029294D01*
X164315419Y-66944054D01*
X164193845Y-66825707D01*
X164171777Y-66802292D01*
X164080164Y-66709046D01*
X164008449Y-66645649D01*
X163970673Y-66624367D01*
X163969109Y-66625205D01*
X163981653Y-66661492D01*
X164029637Y-66747448D01*
X164105995Y-66871307D01*
X164203661Y-67021301D01*
X164235273Y-67068469D01*
X164370002Y-67270308D01*
X164465078Y-67418365D01*
X164524342Y-67519597D01*
X164551636Y-67580959D01*
X164550801Y-67609408D01*
X164536276Y-67613512D01*
X164497372Y-67583824D01*
X164425593Y-67505318D01*
X164330565Y-67390612D01*
X164221914Y-67252326D01*
X164109267Y-67103080D01*
X164002249Y-66955491D01*
X163910486Y-66822180D01*
X163843605Y-66715766D01*
X163824202Y-66680038D01*
X163768699Y-66578260D01*
X163722817Y-66510944D01*
X163702916Y-66494706D01*
X163657181Y-66463799D01*
X163597985Y-66386602D01*
X163539074Y-66286402D01*
X163494192Y-66186487D01*
X163477059Y-66112035D01*
X163487513Y-66027301D01*
X163523918Y-65999156D01*
X163593839Y-66027631D01*
X163704844Y-66112757D01*
X163705097Y-66112971D01*
X163792064Y-66184085D01*
X163830168Y-66207170D01*
X163825449Y-66184860D01*
X163809573Y-66158529D01*
X163764922Y-66083398D01*
X163697387Y-65963716D01*
X163619021Y-65820967D01*
X163589543Y-65766324D01*
X163498364Y-65596762D01*
X163402575Y-65419156D01*
X163320339Y-65267175D01*
X163307424Y-65243382D01*
X163185680Y-65019265D01*
X163269155Y-64956819D01*
X163269155Y-64956819D01*
G37*
X163269155Y-64956819D02*
X163311653Y-64928974D01*
X163348186Y-64925851D01*
X163391765Y-64956261D01*
X163455402Y-65029018D01*
X163544895Y-65143583D01*
X163803555Y-65477413D01*
X164028994Y-65765365D01*
X164218689Y-66004278D01*
X164370119Y-66190987D01*
X164480763Y-66322331D01*
X164517897Y-66363971D01*
X164655121Y-66518577D01*
X164751522Y-66638397D01*
X164805361Y-66719592D01*
X164814901Y-66758321D01*
X164778406Y-66750745D01*
X164694136Y-66693026D01*
X164651375Y-66658910D01*
X164558679Y-66576657D01*
X164431982Y-66455695D01*
X164287905Y-66312255D01*
X164143069Y-66162571D01*
X164142038Y-66161482D01*
X164021219Y-66034988D01*
X163925195Y-65936494D01*
X163861984Y-65874059D01*
X163839606Y-65855743D01*
X163841810Y-65859706D01*
X163873454Y-65913373D01*
X163931198Y-66018392D01*
X164006895Y-66159721D01*
X164092401Y-66322316D01*
X164094460Y-66326268D01*
X164189892Y-66501573D01*
X164287214Y-66667073D01*
X164374404Y-66803045D01*
X164434342Y-66883947D01*
X164521620Y-66996359D01*
X164556880Y-67064958D01*
X164547007Y-67091887D01*
X164498883Y-67079285D01*
X164419392Y-67029294D01*
X164315419Y-66944054D01*
X164193845Y-66825707D01*
X164171777Y-66802292D01*
X164080164Y-66709046D01*
X164008449Y-66645649D01*
X163970673Y-66624367D01*
X163969109Y-66625205D01*
X163981653Y-66661492D01*
X164029637Y-66747448D01*
X164105995Y-66871307D01*
X164203661Y-67021301D01*
X164235273Y-67068469D01*
X164370002Y-67270308D01*
X164465078Y-67418365D01*
X164524342Y-67519597D01*
X164551636Y-67580959D01*
X164550801Y-67609408D01*
X164536276Y-67613512D01*
X164497372Y-67583824D01*
X164425593Y-67505318D01*
X164330565Y-67390612D01*
X164221914Y-67252326D01*
X164109267Y-67103080D01*
X164002249Y-66955491D01*
X163910486Y-66822180D01*
X163843605Y-66715766D01*
X163824202Y-66680038D01*
X163768699Y-66578260D01*
X163722817Y-66510944D01*
X163702916Y-66494706D01*
X163657181Y-66463799D01*
X163597985Y-66386602D01*
X163539074Y-66286402D01*
X163494192Y-66186487D01*
X163477059Y-66112035D01*
X163487513Y-66027301D01*
X163523918Y-65999156D01*
X163593839Y-66027631D01*
X163704844Y-66112757D01*
X163705097Y-66112971D01*
X163792064Y-66184085D01*
X163830168Y-66207170D01*
X163825449Y-66184860D01*
X163809573Y-66158529D01*
X163764922Y-66083398D01*
X163697387Y-65963716D01*
X163619021Y-65820967D01*
X163589543Y-65766324D01*
X163498364Y-65596762D01*
X163402575Y-65419156D01*
X163320339Y-65267175D01*
X163307424Y-65243382D01*
X163185680Y-65019265D01*
X163269155Y-64956819D01*
G36*
X164796863Y-69719510D02*
G01*
X164819069Y-69724637D01*
X164821765Y-69744412D01*
X164808098Y-69775157D01*
X164796863Y-69769314D01*
X164792393Y-69724985D01*
X164796863Y-69719510D01*
X164796863Y-69719510D01*
G37*
X164796863Y-69719510D02*
X164819069Y-69724637D01*
X164821765Y-69744412D01*
X164808098Y-69775157D01*
X164796863Y-69769314D01*
X164792393Y-69724985D01*
X164796863Y-69719510D01*
G36*
X163269155Y-72277995D02*
G01*
X163311622Y-72250176D01*
X163348196Y-72247011D01*
X163391901Y-72277281D01*
X163455760Y-72349763D01*
X163546213Y-72464760D01*
X163661222Y-72611821D01*
X163782193Y-72764933D01*
X163884320Y-72892709D01*
X163890803Y-72900735D01*
X163988353Y-73022917D01*
X164107821Y-73174723D01*
X164225803Y-73326389D01*
X164243223Y-73348971D01*
X164349389Y-73483932D01*
X164452429Y-73610097D01*
X164533942Y-73705056D01*
X164549932Y-73722500D01*
X164663474Y-73849956D01*
X164753453Y-73963640D01*
X164809065Y-74049152D01*
X164821765Y-74084891D01*
X164796079Y-74082169D01*
X164729290Y-74040053D01*
X164651375Y-73980086D01*
X164558679Y-73897833D01*
X164431982Y-73776871D01*
X164287905Y-73633432D01*
X164143069Y-73483747D01*
X164142038Y-73482659D01*
X164021219Y-73356165D01*
X163925195Y-73257670D01*
X163861984Y-73195235D01*
X163839606Y-73176919D01*
X163841810Y-73180882D01*
X163873454Y-73234550D01*
X163931198Y-73339569D01*
X164006895Y-73480897D01*
X164092401Y-73643493D01*
X164094460Y-73647444D01*
X164189892Y-73822749D01*
X164287214Y-73988250D01*
X164374404Y-74124222D01*
X164434342Y-74205124D01*
X164522457Y-74318151D01*
X164558389Y-74386798D01*
X164548489Y-74413106D01*
X164499109Y-74399116D01*
X164416598Y-74346867D01*
X164307308Y-74258400D01*
X164177590Y-74135756D01*
X164158750Y-74116580D01*
X164065972Y-74025556D01*
X163996891Y-73965846D01*
X163963853Y-73947899D01*
X163962647Y-73950578D01*
X163982508Y-73992721D01*
X164037082Y-74084441D01*
X164118855Y-74213684D01*
X164220314Y-74368401D01*
X164261471Y-74429885D01*
X164388690Y-74620623D01*
X164477074Y-74758175D01*
X164530843Y-74850402D01*
X164554219Y-74905169D01*
X164551421Y-74930338D01*
X164532280Y-74934386D01*
X164492780Y-74904062D01*
X164420723Y-74824429D01*
X164325484Y-74708005D01*
X164216437Y-74567310D01*
X164102957Y-74414862D01*
X163994417Y-74263180D01*
X163900191Y-74124783D01*
X163829654Y-74012191D01*
X163799633Y-73955956D01*
X163752695Y-73868696D01*
X163713375Y-73819730D01*
X163704504Y-73815882D01*
X163657973Y-73784957D01*
X163598140Y-73707693D01*
X163538831Y-73607354D01*
X163493877Y-73507207D01*
X163477059Y-73433211D01*
X163487513Y-73348478D01*
X163523918Y-73320333D01*
X163593839Y-73348808D01*
X163704844Y-73433934D01*
X163705097Y-73434148D01*
X163792064Y-73505261D01*
X163830168Y-73528346D01*
X163825449Y-73506037D01*
X163809573Y-73479706D01*
X163764922Y-73404574D01*
X163697387Y-73284892D01*
X163619021Y-73142143D01*
X163589543Y-73087500D01*
X163498364Y-72917938D01*
X163402575Y-72740333D01*
X163320339Y-72588351D01*
X163307424Y-72564559D01*
X163185680Y-72340441D01*
X163269155Y-72277995D01*
X163269155Y-72277995D01*
G37*
X163269155Y-72277995D02*
X163311622Y-72250176D01*
X163348196Y-72247011D01*
X163391901Y-72277281D01*
X163455760Y-72349763D01*
X163546213Y-72464760D01*
X163661222Y-72611821D01*
X163782193Y-72764933D01*
X163884320Y-72892709D01*
X163890803Y-72900735D01*
X163988353Y-73022917D01*
X164107821Y-73174723D01*
X164225803Y-73326389D01*
X164243223Y-73348971D01*
X164349389Y-73483932D01*
X164452429Y-73610097D01*
X164533942Y-73705056D01*
X164549932Y-73722500D01*
X164663474Y-73849956D01*
X164753453Y-73963640D01*
X164809065Y-74049152D01*
X164821765Y-74084891D01*
X164796079Y-74082169D01*
X164729290Y-74040053D01*
X164651375Y-73980086D01*
X164558679Y-73897833D01*
X164431982Y-73776871D01*
X164287905Y-73633432D01*
X164143069Y-73483747D01*
X164142038Y-73482659D01*
X164021219Y-73356165D01*
X163925195Y-73257670D01*
X163861984Y-73195235D01*
X163839606Y-73176919D01*
X163841810Y-73180882D01*
X163873454Y-73234550D01*
X163931198Y-73339569D01*
X164006895Y-73480897D01*
X164092401Y-73643493D01*
X164094460Y-73647444D01*
X164189892Y-73822749D01*
X164287214Y-73988250D01*
X164374404Y-74124222D01*
X164434342Y-74205124D01*
X164522457Y-74318151D01*
X164558389Y-74386798D01*
X164548489Y-74413106D01*
X164499109Y-74399116D01*
X164416598Y-74346867D01*
X164307308Y-74258400D01*
X164177590Y-74135756D01*
X164158750Y-74116580D01*
X164065972Y-74025556D01*
X163996891Y-73965846D01*
X163963853Y-73947899D01*
X163962647Y-73950578D01*
X163982508Y-73992721D01*
X164037082Y-74084441D01*
X164118855Y-74213684D01*
X164220314Y-74368401D01*
X164261471Y-74429885D01*
X164388690Y-74620623D01*
X164477074Y-74758175D01*
X164530843Y-74850402D01*
X164554219Y-74905169D01*
X164551421Y-74930338D01*
X164532280Y-74934386D01*
X164492780Y-74904062D01*
X164420723Y-74824429D01*
X164325484Y-74708005D01*
X164216437Y-74567310D01*
X164102957Y-74414862D01*
X163994417Y-74263180D01*
X163900191Y-74124783D01*
X163829654Y-74012191D01*
X163799633Y-73955956D01*
X163752695Y-73868696D01*
X163713375Y-73819730D01*
X163704504Y-73815882D01*
X163657973Y-73784957D01*
X163598140Y-73707693D01*
X163538831Y-73607354D01*
X163493877Y-73507207D01*
X163477059Y-73433211D01*
X163487513Y-73348478D01*
X163523918Y-73320333D01*
X163593839Y-73348808D01*
X163704844Y-73433934D01*
X163705097Y-73434148D01*
X163792064Y-73505261D01*
X163830168Y-73528346D01*
X163825449Y-73506037D01*
X163809573Y-73479706D01*
X163764922Y-73404574D01*
X163697387Y-73284892D01*
X163619021Y-73142143D01*
X163589543Y-73087500D01*
X163498364Y-72917938D01*
X163402575Y-72740333D01*
X163320339Y-72588351D01*
X163307424Y-72564559D01*
X163185680Y-72340441D01*
X163269155Y-72277995D01*
G36*
X163136950Y-74757633D02*
G01*
X163141571Y-74748420D01*
X163162001Y-74659494D01*
X163155859Y-74612338D01*
X163163637Y-74596609D01*
X163208739Y-74629575D01*
X163281671Y-74701715D01*
X163372941Y-74803505D01*
X163473058Y-74925425D01*
X163491460Y-74948998D01*
X163557948Y-75026750D01*
X163605788Y-75067885D01*
X163617946Y-75069506D01*
X163615182Y-75027618D01*
X163587837Y-74940513D01*
X163560782Y-74872240D01*
X163485494Y-74665350D01*
X163439034Y-74473666D01*
X163421772Y-74308158D01*
X163434076Y-74179797D01*
X163476316Y-74099553D01*
X163534019Y-74077353D01*
X163649876Y-74110940D01*
X163782846Y-74205027D01*
X163925362Y-74349600D01*
X164069858Y-74534648D01*
X164208766Y-74750158D01*
X164334521Y-74986118D01*
X164439555Y-75232515D01*
X164467982Y-75313214D01*
X164530271Y-75532369D01*
X164552385Y-75691801D01*
X164535557Y-75790230D01*
X164481025Y-75826373D01*
X164421097Y-75808316D01*
X164421097Y-75651364D01*
X164430059Y-75623425D01*
X164426721Y-75608824D01*
X164394720Y-75519868D01*
X164342828Y-75401317D01*
X164315184Y-75344232D01*
X164237819Y-75202255D01*
X164142684Y-75045803D01*
X164037041Y-74884669D01*
X163928152Y-74728650D01*
X163823280Y-74587540D01*
X163729688Y-74471133D01*
X163654638Y-74389225D01*
X163605393Y-74351610D01*
X163589118Y-74364996D01*
X163598004Y-74454820D01*
X163619467Y-74543560D01*
X163645710Y-74605433D01*
X163665576Y-74617888D01*
X163694055Y-74640992D01*
X163747492Y-74717987D01*
X163817511Y-74835905D01*
X163875808Y-74943285D01*
X163952219Y-75077003D01*
X164041790Y-75215165D01*
X164136922Y-75348592D01*
X164230018Y-75468105D01*
X164313477Y-75564524D01*
X164379703Y-75628670D01*
X164421097Y-75651364D01*
X164421097Y-75808316D01*
X164390021Y-75798951D01*
X164263781Y-75706683D01*
X164172077Y-75620107D01*
X164061798Y-75501106D01*
X163966925Y-75384754D01*
X163905525Y-75293465D01*
X163899938Y-75282523D01*
X163854419Y-75208371D01*
X163815374Y-75179849D01*
X163809574Y-75181528D01*
X163808067Y-75222525D01*
X163837651Y-75309067D01*
X163889689Y-75423429D01*
X163955542Y-75547890D01*
X164026575Y-75664726D01*
X164083374Y-75743331D01*
X164161536Y-75845751D01*
X164229116Y-75943847D01*
X164230918Y-75946706D01*
X164291057Y-76032794D01*
X164385601Y-76157390D01*
X164500150Y-76302446D01*
X164620304Y-76449909D01*
X164731663Y-76581731D01*
X164791447Y-76649311D01*
X164858033Y-76724710D01*
X164876425Y-76756917D01*
X164849540Y-76757230D01*
X164816921Y-76748023D01*
X164781727Y-76737476D01*
X164751690Y-76724804D01*
X164719087Y-76702055D01*
X164676196Y-76661278D01*
X164615293Y-76594520D01*
X164528654Y-76493832D01*
X164408557Y-76351260D01*
X164263713Y-76178456D01*
X164133391Y-76023713D01*
X164020766Y-75891344D01*
X163934116Y-75790969D01*
X163881720Y-75732208D01*
X163869987Y-75720882D01*
X163871558Y-75754046D01*
X163885870Y-75840235D01*
X163905503Y-75939658D01*
X163940484Y-76066783D01*
X163995801Y-76188603D01*
X164082695Y-76326365D01*
X164180836Y-76460153D01*
X164332467Y-76664850D01*
X164447390Y-76831717D01*
X164522270Y-76955448D01*
X164553775Y-77030732D01*
X164551163Y-77049818D01*
X164519823Y-77032075D01*
X164449735Y-76969632D01*
X164352307Y-76873149D01*
X164271820Y-76788788D01*
X164146440Y-76658704D01*
X164059778Y-76580107D01*
X164003423Y-76546522D01*
X163968965Y-76551472D01*
X163966527Y-76553709D01*
X163915225Y-76568991D01*
X163867241Y-76512226D01*
X163826649Y-76393235D01*
X163791256Y-76319270D01*
X163720081Y-76212672D01*
X163628059Y-76095662D01*
X163621538Y-76088023D01*
X163502026Y-75930514D01*
X163445492Y-75810108D01*
X163452217Y-75727582D01*
X163479824Y-75700497D01*
X163531245Y-75706604D01*
X163604581Y-75754110D01*
X163615348Y-75763660D01*
X163710754Y-75851618D01*
X163684378Y-75664853D01*
X163662916Y-75546525D01*
X163629397Y-75451142D01*
X163572210Y-75358052D01*
X163479742Y-75246602D01*
X163400875Y-75160588D01*
X163271186Y-75019227D01*
X163187057Y-74919549D01*
X163141380Y-74850256D01*
X163127047Y-74800050D01*
X163136950Y-74757633D01*
X163136950Y-74757633D01*
G37*
X163136950Y-74757633D02*
X163141571Y-74748420D01*
X163162001Y-74659494D01*
X163155859Y-74612338D01*
X163163637Y-74596609D01*
X163208739Y-74629575D01*
X163281671Y-74701715D01*
X163372941Y-74803505D01*
X163473058Y-74925425D01*
X163491460Y-74948998D01*
X163557948Y-75026750D01*
X163605788Y-75067885D01*
X163617946Y-75069506D01*
X163615182Y-75027618D01*
X163587837Y-74940513D01*
X163560782Y-74872240D01*
X163485494Y-74665350D01*
X163439034Y-74473666D01*
X163421772Y-74308158D01*
X163434076Y-74179797D01*
X163476316Y-74099553D01*
X163534019Y-74077353D01*
X163649876Y-74110940D01*
X163782846Y-74205027D01*
X163925362Y-74349600D01*
X164069858Y-74534648D01*
X164208766Y-74750158D01*
X164334521Y-74986118D01*
X164439555Y-75232515D01*
X164467982Y-75313214D01*
X164530271Y-75532369D01*
X164552385Y-75691801D01*
X164535557Y-75790230D01*
X164481025Y-75826373D01*
X164421097Y-75808316D01*
X164421097Y-75651364D01*
X164430059Y-75623425D01*
X164426721Y-75608824D01*
X164394720Y-75519868D01*
X164342828Y-75401317D01*
X164315184Y-75344232D01*
X164237819Y-75202255D01*
X164142684Y-75045803D01*
X164037041Y-74884669D01*
X163928152Y-74728650D01*
X163823280Y-74587540D01*
X163729688Y-74471133D01*
X163654638Y-74389225D01*
X163605393Y-74351610D01*
X163589118Y-74364996D01*
X163598004Y-74454820D01*
X163619467Y-74543560D01*
X163645710Y-74605433D01*
X163665576Y-74617888D01*
X163694055Y-74640992D01*
X163747492Y-74717987D01*
X163817511Y-74835905D01*
X163875808Y-74943285D01*
X163952219Y-75077003D01*
X164041790Y-75215165D01*
X164136922Y-75348592D01*
X164230018Y-75468105D01*
X164313477Y-75564524D01*
X164379703Y-75628670D01*
X164421097Y-75651364D01*
X164421097Y-75808316D01*
X164390021Y-75798951D01*
X164263781Y-75706683D01*
X164172077Y-75620107D01*
X164061798Y-75501106D01*
X163966925Y-75384754D01*
X163905525Y-75293465D01*
X163899938Y-75282523D01*
X163854419Y-75208371D01*
X163815374Y-75179849D01*
X163809574Y-75181528D01*
X163808067Y-75222525D01*
X163837651Y-75309067D01*
X163889689Y-75423429D01*
X163955542Y-75547890D01*
X164026575Y-75664726D01*
X164083374Y-75743331D01*
X164161536Y-75845751D01*
X164229116Y-75943847D01*
X164230918Y-75946706D01*
X164291057Y-76032794D01*
X164385601Y-76157390D01*
X164500150Y-76302446D01*
X164620304Y-76449909D01*
X164731663Y-76581731D01*
X164791447Y-76649311D01*
X164858033Y-76724710D01*
X164876425Y-76756917D01*
X164849540Y-76757230D01*
X164816921Y-76748023D01*
X164781727Y-76737476D01*
X164751690Y-76724804D01*
X164719087Y-76702055D01*
X164676196Y-76661278D01*
X164615293Y-76594520D01*
X164528654Y-76493832D01*
X164408557Y-76351260D01*
X164263713Y-76178456D01*
X164133391Y-76023713D01*
X164020766Y-75891344D01*
X163934116Y-75790969D01*
X163881720Y-75732208D01*
X163869987Y-75720882D01*
X163871558Y-75754046D01*
X163885870Y-75840235D01*
X163905503Y-75939658D01*
X163940484Y-76066783D01*
X163995801Y-76188603D01*
X164082695Y-76326365D01*
X164180836Y-76460153D01*
X164332467Y-76664850D01*
X164447390Y-76831717D01*
X164522270Y-76955448D01*
X164553775Y-77030732D01*
X164551163Y-77049818D01*
X164519823Y-77032075D01*
X164449735Y-76969632D01*
X164352307Y-76873149D01*
X164271820Y-76788788D01*
X164146440Y-76658704D01*
X164059778Y-76580107D01*
X164003423Y-76546522D01*
X163968965Y-76551472D01*
X163966527Y-76553709D01*
X163915225Y-76568991D01*
X163867241Y-76512226D01*
X163826649Y-76393235D01*
X163791256Y-76319270D01*
X163720081Y-76212672D01*
X163628059Y-76095662D01*
X163621538Y-76088023D01*
X163502026Y-75930514D01*
X163445492Y-75810108D01*
X163452217Y-75727582D01*
X163479824Y-75700497D01*
X163531245Y-75706604D01*
X163604581Y-75754110D01*
X163615348Y-75763660D01*
X163710754Y-75851618D01*
X163684378Y-75664853D01*
X163662916Y-75546525D01*
X163629397Y-75451142D01*
X163572210Y-75358052D01*
X163479742Y-75246602D01*
X163400875Y-75160588D01*
X163271186Y-75019227D01*
X163187057Y-74919549D01*
X163141380Y-74850256D01*
X163127047Y-74800050D01*
X163136950Y-74757633D01*
G36*
X163188685Y-63869333D02*
G01*
X163242585Y-63891788D01*
X163308971Y-63938562D01*
X163387300Y-63995560D01*
X163433912Y-64024171D01*
X163439582Y-64024507D01*
X163430823Y-63949601D01*
X163427141Y-63929764D01*
X163427141Y-62978742D01*
X163435426Y-62958929D01*
X163437081Y-62920366D01*
X163423975Y-62845148D01*
X163402353Y-62815441D01*
X163383677Y-62814091D01*
X163383677Y-62722059D01*
X163402353Y-62703382D01*
X163383677Y-62684706D01*
X163365000Y-62703382D01*
X163383677Y-62722059D01*
X163383677Y-62814091D01*
X163370668Y-62813150D01*
X163380426Y-62871651D01*
X163402353Y-62927500D01*
X163427141Y-62978742D01*
X163427141Y-63929764D01*
X163408435Y-63828982D01*
X163377020Y-63682262D01*
X163346324Y-63551053D01*
X163346324Y-62647353D01*
X163365000Y-62628676D01*
X163346324Y-62610000D01*
X163327647Y-62628676D01*
X163346324Y-62647353D01*
X163346324Y-63551053D01*
X163341178Y-63529056D01*
X163305512Y-63388978D01*
X163302745Y-63379363D01*
X163302745Y-62448137D01*
X163324952Y-62443010D01*
X163327647Y-62423235D01*
X163313980Y-62392490D01*
X163308971Y-62395095D01*
X163308971Y-62348529D01*
X163327647Y-62329853D01*
X163308971Y-62311176D01*
X163290294Y-62329853D01*
X163308971Y-62348529D01*
X163308971Y-62395095D01*
X163302745Y-62398333D01*
X163298275Y-62442663D01*
X163302745Y-62448137D01*
X163302745Y-63379363D01*
X163274623Y-63281642D01*
X163253111Y-63226661D01*
X163252088Y-63225295D01*
X163227499Y-63179719D01*
X163248368Y-63170294D01*
X163283615Y-63139556D01*
X163289722Y-63104926D01*
X163279332Y-63066533D01*
X163261708Y-63081759D01*
X163251813Y-63061458D01*
X163242333Y-62977967D01*
X163234053Y-62842802D01*
X163227760Y-62667478D01*
X163225259Y-62547480D01*
X163223782Y-62309231D01*
X163227655Y-62135196D01*
X163236711Y-62028675D01*
X163250787Y-61992967D01*
X163253011Y-61993719D01*
X163269705Y-61970861D01*
X163276005Y-61877925D01*
X163271718Y-61718842D01*
X163268951Y-61668881D01*
X163260607Y-61508810D01*
X163259686Y-61413482D01*
X163267192Y-61373212D01*
X163284129Y-61378312D01*
X163297228Y-61396029D01*
X163328891Y-61479388D01*
X163348766Y-61597640D01*
X163351269Y-61638824D01*
X163368080Y-61840928D01*
X163403679Y-62045647D01*
X163452951Y-62233140D01*
X163510780Y-62383564D01*
X163565695Y-62470613D01*
X163648021Y-62565589D01*
X163729929Y-62668652D01*
X163755336Y-62691670D01*
X163747408Y-62648967D01*
X163706450Y-62541526D01*
X163647883Y-62404559D01*
X163525825Y-62103757D01*
X163449244Y-61859585D01*
X163417606Y-61669817D01*
X163430379Y-61532224D01*
X163435515Y-61517426D01*
X163494828Y-61435222D01*
X163580864Y-61418686D01*
X163690172Y-61465149D01*
X163819297Y-61571940D01*
X163964787Y-61736389D01*
X164123187Y-61955826D01*
X164238463Y-62138329D01*
X164319228Y-62290601D01*
X164398987Y-62471675D01*
X164470124Y-62660501D01*
X164525029Y-62836031D01*
X164556087Y-62977216D01*
X164560294Y-63028144D01*
X164546479Y-63111721D01*
X164519363Y-63153830D01*
X164497607Y-63209278D01*
X164501233Y-63328830D01*
X164529586Y-63506568D01*
X164582012Y-63736572D01*
X164585235Y-63749265D01*
X164626239Y-63912352D01*
X164653672Y-64030014D01*
X164673154Y-64129025D01*
X164690303Y-64236157D01*
X164696941Y-64281544D01*
X164707495Y-64381084D01*
X164696272Y-64427289D01*
X164656475Y-64440015D01*
X164642595Y-64440294D01*
X164599411Y-64434868D01*
X164567937Y-64409745D01*
X164542567Y-64351659D01*
X164517700Y-64247346D01*
X164487732Y-64083539D01*
X164484825Y-64066765D01*
X164455557Y-63922620D01*
X164417600Y-63808397D01*
X164407409Y-63790040D01*
X164407409Y-63586568D01*
X164393431Y-63376532D01*
X164392206Y-63363955D01*
X164392206Y-62908824D01*
X164410883Y-62890147D01*
X164392206Y-62871471D01*
X164373530Y-62890147D01*
X164392206Y-62908824D01*
X164392206Y-63363955D01*
X164382784Y-63267217D01*
X164360290Y-63186097D01*
X164325481Y-63129413D01*
X164325481Y-62876898D01*
X164340968Y-62864997D01*
X164361209Y-62830363D01*
X164366726Y-62797342D01*
X164352124Y-62750147D01*
X164312010Y-62672991D01*
X164240989Y-62550087D01*
X164222657Y-62518721D01*
X164110226Y-62334241D01*
X163994053Y-62157289D01*
X163880873Y-61996536D01*
X163777422Y-61860654D01*
X163690434Y-61758315D01*
X163626647Y-61698191D01*
X163592794Y-61688952D01*
X163589118Y-61703071D01*
X163598027Y-61792557D01*
X163619530Y-61881099D01*
X163645790Y-61942850D01*
X163665576Y-61955241D01*
X163694197Y-61978247D01*
X163747828Y-62055014D01*
X163817991Y-62172522D01*
X163874474Y-62275975D01*
X163989470Y-62481503D01*
X164097739Y-62651519D01*
X164193610Y-62778863D01*
X164271414Y-62856375D01*
X164325481Y-62876898D01*
X164325481Y-63129413D01*
X164313982Y-63110687D01*
X164231893Y-63018501D01*
X164168470Y-62953824D01*
X164058950Y-62835446D01*
X163964831Y-62719512D01*
X163904449Y-62628823D01*
X163899938Y-62619876D01*
X163854381Y-62545749D01*
X163815240Y-62517285D01*
X163809414Y-62518980D01*
X163804879Y-62561033D01*
X163831579Y-62643725D01*
X163852279Y-62688020D01*
X163894463Y-62783738D01*
X163912259Y-62851481D01*
X163910316Y-62865486D01*
X163924256Y-62905014D01*
X163975499Y-62990837D01*
X164055794Y-63110044D01*
X164149961Y-63240430D01*
X164407409Y-63586568D01*
X164407409Y-63790040D01*
X164359708Y-63704116D01*
X164270638Y-63589796D01*
X164139146Y-63445457D01*
X164129333Y-63435058D01*
X164003766Y-63297161D01*
X163872642Y-63145377D01*
X163776068Y-63027229D01*
X163696000Y-62929837D01*
X163634564Y-62863941D01*
X163604743Y-62843434D01*
X163604494Y-62843644D01*
X163605239Y-62885201D01*
X163624545Y-62973514D01*
X163640830Y-63031425D01*
X163667931Y-63135019D01*
X163678643Y-63205072D01*
X163676087Y-63220286D01*
X163621565Y-63229980D01*
X163551517Y-63193653D01*
X163492200Y-63127214D01*
X163479318Y-63101046D01*
X163455061Y-63043052D01*
X163449474Y-63048379D01*
X163459843Y-63121914D01*
X163461611Y-63132941D01*
X163488148Y-63278217D01*
X163511441Y-63356462D01*
X163534469Y-63375093D01*
X163551672Y-63357209D01*
X163573562Y-63332610D01*
X163601224Y-63332099D01*
X163641210Y-63362751D01*
X163700072Y-63431643D01*
X163784363Y-63545852D01*
X163900633Y-63712453D01*
X163958208Y-63796291D01*
X164096526Y-63996874D01*
X164240343Y-64203117D01*
X164381999Y-64404266D01*
X164513831Y-64589567D01*
X164628179Y-64748267D01*
X164717382Y-64869612D01*
X164773778Y-64942848D01*
X164781800Y-64952321D01*
X164817877Y-65003373D01*
X164793617Y-65019633D01*
X164737721Y-65016135D01*
X164654451Y-65005601D01*
X164631998Y-64994379D01*
X164656908Y-64973720D01*
X164664783Y-64968704D01*
X164690185Y-64934653D01*
X164652993Y-64889108D01*
X164648275Y-64885232D01*
X164606377Y-64858066D01*
X164611358Y-64879191D01*
X164616914Y-64920118D01*
X164602820Y-64925882D01*
X164570131Y-64893662D01*
X164542090Y-64815944D01*
X164541618Y-64813824D01*
X164506993Y-64732417D01*
X164460447Y-64701765D01*
X164406272Y-64670429D01*
X164384353Y-64627059D01*
X164346832Y-64566354D01*
X164313144Y-64552353D01*
X164265914Y-64525404D01*
X164260720Y-64505662D01*
X164235418Y-64456679D01*
X164170221Y-64375433D01*
X164090407Y-64290882D01*
X163978645Y-64171019D01*
X163853192Y-64022959D01*
X163749009Y-63889085D01*
X163666879Y-63780502D01*
X163602980Y-63701871D01*
X163568601Y-63666917D01*
X163565992Y-63666558D01*
X163568725Y-63705567D01*
X163587130Y-63795617D01*
X163611628Y-63895319D01*
X163638878Y-64020926D01*
X163650951Y-64122197D01*
X163647535Y-64167395D01*
X163661623Y-64224304D01*
X163725693Y-64317398D01*
X163812506Y-64415136D01*
X163908501Y-64513656D01*
X163964066Y-64563384D01*
X163990333Y-64569586D01*
X163998433Y-64537528D01*
X163999195Y-64503457D01*
X164010702Y-64434321D01*
X164037353Y-64421618D01*
X164065003Y-64472480D01*
X164074706Y-64547230D01*
X164085193Y-64609364D01*
X164121965Y-64676963D01*
X164192990Y-64758761D01*
X164306236Y-64863492D01*
X164469670Y-64999892D01*
X164537511Y-65054574D01*
X164656246Y-65145118D01*
X164732252Y-65189899D01*
X164776984Y-65194586D01*
X164793167Y-65181092D01*
X164816612Y-65156296D01*
X164808177Y-65195669D01*
X164820862Y-65269032D01*
X164868994Y-65317066D01*
X164916337Y-65357580D01*
X164914120Y-65372794D01*
X164857514Y-65354679D01*
X164784412Y-65318088D01*
X164690458Y-65272145D01*
X164647732Y-65269564D01*
X164656672Y-65304258D01*
X164656569Y-65332509D01*
X164630861Y-65328397D01*
X164590721Y-65281940D01*
X164589300Y-65251662D01*
X164574542Y-65184734D01*
X164555514Y-65165722D01*
X164528922Y-65160307D01*
X164538051Y-65181582D01*
X164534619Y-65218556D01*
X164506469Y-65224706D01*
X164455517Y-65197024D01*
X164448236Y-65171194D01*
X164417133Y-65117891D01*
X164373751Y-65094041D01*
X164283209Y-65046876D01*
X164243016Y-65014150D01*
X164206519Y-64984872D01*
X164189851Y-64995687D01*
X164192986Y-65055307D01*
X164215898Y-65172447D01*
X164242208Y-65287052D01*
X164300629Y-65463510D01*
X164389913Y-65653172D01*
X164447877Y-65751623D01*
X164519450Y-65869459D01*
X164569042Y-65964930D01*
X164587264Y-66019681D01*
X164586755Y-66023119D01*
X164548354Y-66068548D01*
X164490506Y-66045435D01*
X164431156Y-65974477D01*
X164371849Y-65902832D01*
X164320205Y-65889514D01*
X164292001Y-65900710D01*
X164241474Y-65913367D01*
X164212708Y-65870423D01*
X164202888Y-65832514D01*
X164174467Y-65715710D01*
X164142636Y-65621744D01*
X164096842Y-65528130D01*
X164061625Y-65470154D01*
X164061625Y-65146887D01*
X164070188Y-65124977D01*
X164074561Y-65051015D01*
X164074706Y-65031742D01*
X164063126Y-64940340D01*
X164017818Y-64864992D01*
X163925561Y-64781177D01*
X163776417Y-64661321D01*
X163912480Y-64896322D01*
X163980598Y-65013071D01*
X164033476Y-65102023D01*
X164060670Y-65145636D01*
X164061625Y-65146887D01*
X164061625Y-65470154D01*
X164026530Y-65412378D01*
X163952869Y-65299791D01*
X163850808Y-65138664D01*
X163749626Y-64967259D01*
X163668472Y-64818226D01*
X163656904Y-64795147D01*
X163579406Y-64649216D01*
X163493812Y-64505431D01*
X163437574Y-64421618D01*
X163341325Y-64281462D01*
X163275855Y-64168665D01*
X163246432Y-64093632D01*
X163257922Y-64066765D01*
X163266445Y-64041437D01*
X163236383Y-63983748D01*
X163186249Y-63900215D01*
X163188685Y-63869333D01*
X163188685Y-63869333D01*
G37*
X163188685Y-63869333D02*
X163242585Y-63891788D01*
X163308971Y-63938562D01*
X163387300Y-63995560D01*
X163433912Y-64024171D01*
X163439582Y-64024507D01*
X163430823Y-63949601D01*
X163427141Y-63929764D01*
X163427141Y-62978742D01*
X163435426Y-62958929D01*
X163437081Y-62920366D01*
X163423975Y-62845148D01*
X163402353Y-62815441D01*
X163383677Y-62814091D01*
X163383677Y-62722059D01*
X163402353Y-62703382D01*
X163383677Y-62684706D01*
X163365000Y-62703382D01*
X163383677Y-62722059D01*
X163383677Y-62814091D01*
X163370668Y-62813150D01*
X163380426Y-62871651D01*
X163402353Y-62927500D01*
X163427141Y-62978742D01*
X163427141Y-63929764D01*
X163408435Y-63828982D01*
X163377020Y-63682262D01*
X163346324Y-63551053D01*
X163346324Y-62647353D01*
X163365000Y-62628676D01*
X163346324Y-62610000D01*
X163327647Y-62628676D01*
X163346324Y-62647353D01*
X163346324Y-63551053D01*
X163341178Y-63529056D01*
X163305512Y-63388978D01*
X163302745Y-63379363D01*
X163302745Y-62448137D01*
X163324952Y-62443010D01*
X163327647Y-62423235D01*
X163313980Y-62392490D01*
X163308971Y-62395095D01*
X163308971Y-62348529D01*
X163327647Y-62329853D01*
X163308971Y-62311176D01*
X163290294Y-62329853D01*
X163308971Y-62348529D01*
X163308971Y-62395095D01*
X163302745Y-62398333D01*
X163298275Y-62442663D01*
X163302745Y-62448137D01*
X163302745Y-63379363D01*
X163274623Y-63281642D01*
X163253111Y-63226661D01*
X163252088Y-63225295D01*
X163227499Y-63179719D01*
X163248368Y-63170294D01*
X163283615Y-63139556D01*
X163289722Y-63104926D01*
X163279332Y-63066533D01*
X163261708Y-63081759D01*
X163251813Y-63061458D01*
X163242333Y-62977967D01*
X163234053Y-62842802D01*
X163227760Y-62667478D01*
X163225259Y-62547480D01*
X163223782Y-62309231D01*
X163227655Y-62135196D01*
X163236711Y-62028675D01*
X163250787Y-61992967D01*
X163253011Y-61993719D01*
X163269705Y-61970861D01*
X163276005Y-61877925D01*
X163271718Y-61718842D01*
X163268951Y-61668881D01*
X163260607Y-61508810D01*
X163259686Y-61413482D01*
X163267192Y-61373212D01*
X163284129Y-61378312D01*
X163297228Y-61396029D01*
X163328891Y-61479388D01*
X163348766Y-61597640D01*
X163351269Y-61638824D01*
X163368080Y-61840928D01*
X163403679Y-62045647D01*
X163452951Y-62233140D01*
X163510780Y-62383564D01*
X163565695Y-62470613D01*
X163648021Y-62565589D01*
X163729929Y-62668652D01*
X163755336Y-62691670D01*
X163747408Y-62648967D01*
X163706450Y-62541526D01*
X163647883Y-62404559D01*
X163525825Y-62103757D01*
X163449244Y-61859585D01*
X163417606Y-61669817D01*
X163430379Y-61532224D01*
X163435515Y-61517426D01*
X163494828Y-61435222D01*
X163580864Y-61418686D01*
X163690172Y-61465149D01*
X163819297Y-61571940D01*
X163964787Y-61736389D01*
X164123187Y-61955826D01*
X164238463Y-62138329D01*
X164319228Y-62290601D01*
X164398987Y-62471675D01*
X164470124Y-62660501D01*
X164525029Y-62836031D01*
X164556087Y-62977216D01*
X164560294Y-63028144D01*
X164546479Y-63111721D01*
X164519363Y-63153830D01*
X164497607Y-63209278D01*
X164501233Y-63328830D01*
X164529586Y-63506568D01*
X164582012Y-63736572D01*
X164585235Y-63749265D01*
X164626239Y-63912352D01*
X164653672Y-64030014D01*
X164673154Y-64129025D01*
X164690303Y-64236157D01*
X164696941Y-64281544D01*
X164707495Y-64381084D01*
X164696272Y-64427289D01*
X164656475Y-64440015D01*
X164642595Y-64440294D01*
X164599411Y-64434868D01*
X164567937Y-64409745D01*
X164542567Y-64351659D01*
X164517700Y-64247346D01*
X164487732Y-64083539D01*
X164484825Y-64066765D01*
X164455557Y-63922620D01*
X164417600Y-63808397D01*
X164407409Y-63790040D01*
X164407409Y-63586568D01*
X164393431Y-63376532D01*
X164392206Y-63363955D01*
X164392206Y-62908824D01*
X164410883Y-62890147D01*
X164392206Y-62871471D01*
X164373530Y-62890147D01*
X164392206Y-62908824D01*
X164392206Y-63363955D01*
X164382784Y-63267217D01*
X164360290Y-63186097D01*
X164325481Y-63129413D01*
X164325481Y-62876898D01*
X164340968Y-62864997D01*
X164361209Y-62830363D01*
X164366726Y-62797342D01*
X164352124Y-62750147D01*
X164312010Y-62672991D01*
X164240989Y-62550087D01*
X164222657Y-62518721D01*
X164110226Y-62334241D01*
X163994053Y-62157289D01*
X163880873Y-61996536D01*
X163777422Y-61860654D01*
X163690434Y-61758315D01*
X163626647Y-61698191D01*
X163592794Y-61688952D01*
X163589118Y-61703071D01*
X163598027Y-61792557D01*
X163619530Y-61881099D01*
X163645790Y-61942850D01*
X163665576Y-61955241D01*
X163694197Y-61978247D01*
X163747828Y-62055014D01*
X163817991Y-62172522D01*
X163874474Y-62275975D01*
X163989470Y-62481503D01*
X164097739Y-62651519D01*
X164193610Y-62778863D01*
X164271414Y-62856375D01*
X164325481Y-62876898D01*
X164325481Y-63129413D01*
X164313982Y-63110687D01*
X164231893Y-63018501D01*
X164168470Y-62953824D01*
X164058950Y-62835446D01*
X163964831Y-62719512D01*
X163904449Y-62628823D01*
X163899938Y-62619876D01*
X163854381Y-62545749D01*
X163815240Y-62517285D01*
X163809414Y-62518980D01*
X163804879Y-62561033D01*
X163831579Y-62643725D01*
X163852279Y-62688020D01*
X163894463Y-62783738D01*
X163912259Y-62851481D01*
X163910316Y-62865486D01*
X163924256Y-62905014D01*
X163975499Y-62990837D01*
X164055794Y-63110044D01*
X164149961Y-63240430D01*
X164407409Y-63586568D01*
X164407409Y-63790040D01*
X164359708Y-63704116D01*
X164270638Y-63589796D01*
X164139146Y-63445457D01*
X164129333Y-63435058D01*
X164003766Y-63297161D01*
X163872642Y-63145377D01*
X163776068Y-63027229D01*
X163696000Y-62929837D01*
X163634564Y-62863941D01*
X163604743Y-62843434D01*
X163604494Y-62843644D01*
X163605239Y-62885201D01*
X163624545Y-62973514D01*
X163640830Y-63031425D01*
X163667931Y-63135019D01*
X163678643Y-63205072D01*
X163676087Y-63220286D01*
X163621565Y-63229980D01*
X163551517Y-63193653D01*
X163492200Y-63127214D01*
X163479318Y-63101046D01*
X163455061Y-63043052D01*
X163449474Y-63048379D01*
X163459843Y-63121914D01*
X163461611Y-63132941D01*
X163488148Y-63278217D01*
X163511441Y-63356462D01*
X163534469Y-63375093D01*
X163551672Y-63357209D01*
X163573562Y-63332610D01*
X163601224Y-63332099D01*
X163641210Y-63362751D01*
X163700072Y-63431643D01*
X163784363Y-63545852D01*
X163900633Y-63712453D01*
X163958208Y-63796291D01*
X164096526Y-63996874D01*
X164240343Y-64203117D01*
X164381999Y-64404266D01*
X164513831Y-64589567D01*
X164628179Y-64748267D01*
X164717382Y-64869612D01*
X164773778Y-64942848D01*
X164781800Y-64952321D01*
X164817877Y-65003373D01*
X164793617Y-65019633D01*
X164737721Y-65016135D01*
X164654451Y-65005601D01*
X164631998Y-64994379D01*
X164656908Y-64973720D01*
X164664783Y-64968704D01*
X164690185Y-64934653D01*
X164652993Y-64889108D01*
X164648275Y-64885232D01*
X164606377Y-64858066D01*
X164611358Y-64879191D01*
X164616914Y-64920118D01*
X164602820Y-64925882D01*
X164570131Y-64893662D01*
X164542090Y-64815944D01*
X164541618Y-64813824D01*
X164506993Y-64732417D01*
X164460447Y-64701765D01*
X164406272Y-64670429D01*
X164384353Y-64627059D01*
X164346832Y-64566354D01*
X164313144Y-64552353D01*
X164265914Y-64525404D01*
X164260720Y-64505662D01*
X164235418Y-64456679D01*
X164170221Y-64375433D01*
X164090407Y-64290882D01*
X163978645Y-64171019D01*
X163853192Y-64022959D01*
X163749009Y-63889085D01*
X163666879Y-63780502D01*
X163602980Y-63701871D01*
X163568601Y-63666917D01*
X163565992Y-63666558D01*
X163568725Y-63705567D01*
X163587130Y-63795617D01*
X163611628Y-63895319D01*
X163638878Y-64020926D01*
X163650951Y-64122197D01*
X163647535Y-64167395D01*
X163661623Y-64224304D01*
X163725693Y-64317398D01*
X163812506Y-64415136D01*
X163908501Y-64513656D01*
X163964066Y-64563384D01*
X163990333Y-64569586D01*
X163998433Y-64537528D01*
X163999195Y-64503457D01*
X164010702Y-64434321D01*
X164037353Y-64421618D01*
X164065003Y-64472480D01*
X164074706Y-64547230D01*
X164085193Y-64609364D01*
X164121965Y-64676963D01*
X164192990Y-64758761D01*
X164306236Y-64863492D01*
X164469670Y-64999892D01*
X164537511Y-65054574D01*
X164656246Y-65145118D01*
X164732252Y-65189899D01*
X164776984Y-65194586D01*
X164793167Y-65181092D01*
X164816612Y-65156296D01*
X164808177Y-65195669D01*
X164820862Y-65269032D01*
X164868994Y-65317066D01*
X164916337Y-65357580D01*
X164914120Y-65372794D01*
X164857514Y-65354679D01*
X164784412Y-65318088D01*
X164690458Y-65272145D01*
X164647732Y-65269564D01*
X164656672Y-65304258D01*
X164656569Y-65332509D01*
X164630861Y-65328397D01*
X164590721Y-65281940D01*
X164589300Y-65251662D01*
X164574542Y-65184734D01*
X164555514Y-65165722D01*
X164528922Y-65160307D01*
X164538051Y-65181582D01*
X164534619Y-65218556D01*
X164506469Y-65224706D01*
X164455517Y-65197024D01*
X164448236Y-65171194D01*
X164417133Y-65117891D01*
X164373751Y-65094041D01*
X164283209Y-65046876D01*
X164243016Y-65014150D01*
X164206519Y-64984872D01*
X164189851Y-64995687D01*
X164192986Y-65055307D01*
X164215898Y-65172447D01*
X164242208Y-65287052D01*
X164300629Y-65463510D01*
X164389913Y-65653172D01*
X164447877Y-65751623D01*
X164519450Y-65869459D01*
X164569042Y-65964930D01*
X164587264Y-66019681D01*
X164586755Y-66023119D01*
X164548354Y-66068548D01*
X164490506Y-66045435D01*
X164431156Y-65974477D01*
X164371849Y-65902832D01*
X164320205Y-65889514D01*
X164292001Y-65900710D01*
X164241474Y-65913367D01*
X164212708Y-65870423D01*
X164202888Y-65832514D01*
X164174467Y-65715710D01*
X164142636Y-65621744D01*
X164096842Y-65528130D01*
X164061625Y-65470154D01*
X164061625Y-65146887D01*
X164070188Y-65124977D01*
X164074561Y-65051015D01*
X164074706Y-65031742D01*
X164063126Y-64940340D01*
X164017818Y-64864992D01*
X163925561Y-64781177D01*
X163776417Y-64661321D01*
X163912480Y-64896322D01*
X163980598Y-65013071D01*
X164033476Y-65102023D01*
X164060670Y-65145636D01*
X164061625Y-65146887D01*
X164061625Y-65470154D01*
X164026530Y-65412378D01*
X163952869Y-65299791D01*
X163850808Y-65138664D01*
X163749626Y-64967259D01*
X163668472Y-64818226D01*
X163656904Y-64795147D01*
X163579406Y-64649216D01*
X163493812Y-64505431D01*
X163437574Y-64421618D01*
X163341325Y-64281462D01*
X163275855Y-64168665D01*
X163246432Y-64093632D01*
X163257922Y-64066765D01*
X163266445Y-64041437D01*
X163236383Y-63983748D01*
X163186249Y-63900215D01*
X163188685Y-63869333D01*
G36*
X163119581Y-68366600D02*
G01*
X163134248Y-68337333D01*
X163137407Y-68331494D01*
X163153569Y-68252432D01*
X163135880Y-68222879D01*
X163118728Y-68176577D01*
X163134623Y-68160781D01*
X163178153Y-68173175D01*
X163247586Y-68230533D01*
X163291468Y-68277962D01*
X163360543Y-68356417D01*
X163392249Y-68380827D01*
X163395758Y-68355584D01*
X163389642Y-68325000D01*
X163370866Y-68228876D01*
X163349689Y-68102804D01*
X163343699Y-68063529D01*
X163316525Y-67939775D01*
X163278835Y-67834715D01*
X163266346Y-67811397D01*
X163239486Y-67749388D01*
X163252080Y-67727353D01*
X163284201Y-67696565D01*
X163289722Y-67661985D01*
X163279332Y-67623592D01*
X163261708Y-67638818D01*
X163251791Y-67618564D01*
X163242304Y-67535148D01*
X163234038Y-67400110D01*
X163227782Y-67224993D01*
X163225360Y-67107877D01*
X163222851Y-66886922D01*
X163223829Y-66730835D01*
X163229084Y-66629825D01*
X163239405Y-66574104D01*
X163255584Y-66553883D01*
X163269974Y-66555273D01*
X163301026Y-66589072D01*
X163313816Y-66668561D01*
X163311406Y-66797313D01*
X163309971Y-66918699D01*
X163318601Y-67007110D01*
X163331587Y-67038759D01*
X163357311Y-67087986D01*
X163363477Y-67140895D01*
X163381037Y-67355736D01*
X163430660Y-67596618D01*
X163462862Y-67723877D01*
X163491225Y-67841627D01*
X163494556Y-67856140D01*
X163516816Y-67926121D01*
X163541350Y-67929712D01*
X163555214Y-67912170D01*
X163587078Y-67886900D01*
X163630735Y-67911105D01*
X163684361Y-67970147D01*
X163723317Y-68013339D01*
X163737841Y-68016733D01*
X163726188Y-67972992D01*
X163686613Y-67874784D01*
X163631037Y-67746029D01*
X163516966Y-67460461D01*
X163444214Y-67222113D01*
X163413721Y-67035065D01*
X163426430Y-66903397D01*
X163432944Y-66886836D01*
X163497745Y-66811150D01*
X163589688Y-66800666D01*
X163704219Y-66852940D01*
X163836782Y-66965526D01*
X163982822Y-67135980D01*
X164038327Y-67211759D01*
X164195926Y-67447107D01*
X164315180Y-67656989D01*
X164410351Y-67868979D01*
X164483005Y-68071553D01*
X164539563Y-68279209D01*
X164554587Y-68427470D01*
X164529843Y-68514836D01*
X164467091Y-68539805D01*
X164421097Y-68521720D01*
X164421097Y-68367540D01*
X164430059Y-68339601D01*
X164426721Y-68325000D01*
X164394720Y-68236045D01*
X164342828Y-68117494D01*
X164315184Y-68060408D01*
X164237819Y-67918431D01*
X164142684Y-67761979D01*
X164037041Y-67600846D01*
X163928152Y-67444827D01*
X163823280Y-67303716D01*
X163729688Y-67187310D01*
X163654638Y-67105402D01*
X163605393Y-67067787D01*
X163589118Y-67081173D01*
X163598004Y-67170996D01*
X163619467Y-67259737D01*
X163645710Y-67321609D01*
X163665576Y-67334064D01*
X163694055Y-67357169D01*
X163747492Y-67434163D01*
X163817511Y-67552081D01*
X163875808Y-67659461D01*
X163952219Y-67793179D01*
X164041790Y-67931341D01*
X164136922Y-68064768D01*
X164230018Y-68184281D01*
X164313477Y-68280701D01*
X164379703Y-68344847D01*
X164421097Y-68367540D01*
X164421097Y-68521720D01*
X164368095Y-68500878D01*
X164234619Y-68396551D01*
X164172077Y-68336284D01*
X164061798Y-68217282D01*
X163966925Y-68100930D01*
X163905525Y-68009642D01*
X163899938Y-67998699D01*
X163854381Y-67924573D01*
X163815240Y-67896109D01*
X163809414Y-67897803D01*
X163805022Y-67939804D01*
X163831788Y-68022705D01*
X163853472Y-68069182D01*
X163895575Y-68163268D01*
X163913243Y-68227130D01*
X163910913Y-68239774D01*
X163924066Y-68275757D01*
X163973806Y-68361198D01*
X164052661Y-68485222D01*
X164153163Y-68636954D01*
X164267840Y-68805519D01*
X164389224Y-68980043D01*
X164509844Y-69149649D01*
X164622231Y-69303464D01*
X164718914Y-69430611D01*
X164782982Y-69509379D01*
X164819343Y-69565976D01*
X164808306Y-69583351D01*
X164765736Y-69557647D01*
X164720369Y-69531174D01*
X164709706Y-69555278D01*
X164686568Y-69580572D01*
X164668365Y-69573859D01*
X164648189Y-69541369D01*
X164670133Y-69521666D01*
X164686459Y-69485134D01*
X164648275Y-69442291D01*
X164606377Y-69415125D01*
X164611358Y-69436250D01*
X164616914Y-69477177D01*
X164602820Y-69482941D01*
X164569801Y-69450793D01*
X164542452Y-69374681D01*
X164500453Y-69285944D01*
X164446102Y-69247443D01*
X164386506Y-69206197D01*
X164373530Y-69168938D01*
X164345134Y-69117207D01*
X164317500Y-69109412D01*
X164267432Y-69084270D01*
X164260720Y-69062721D01*
X164235418Y-69013738D01*
X164170221Y-68932492D01*
X164090407Y-68847941D01*
X163978645Y-68728078D01*
X163853192Y-68580018D01*
X163749009Y-68446144D01*
X163666879Y-68337561D01*
X163602980Y-68258929D01*
X163568601Y-68223975D01*
X163565992Y-68223616D01*
X163568725Y-68262626D01*
X163587130Y-68352676D01*
X163611628Y-68452378D01*
X163639087Y-68577137D01*
X163651819Y-68676679D01*
X163649090Y-68720401D01*
X163650973Y-68777922D01*
X163663597Y-68791771D01*
X163702392Y-68830336D01*
X163775940Y-68915193D01*
X163873652Y-69033260D01*
X163984942Y-69171456D01*
X164099223Y-69316699D01*
X164205907Y-69455906D01*
X164261471Y-69530550D01*
X164349898Y-69643403D01*
X164468027Y-69784021D01*
X164593790Y-69926313D01*
X164624721Y-69960046D01*
X164726937Y-70072913D01*
X164806478Y-70165311D01*
X164851871Y-70223688D01*
X164858177Y-70235841D01*
X164828978Y-70247529D01*
X164783617Y-70240615D01*
X164730146Y-70205524D01*
X164641819Y-70125090D01*
X164531307Y-70011607D01*
X164421518Y-69889259D01*
X164308501Y-69759656D01*
X164214260Y-69653780D01*
X164148822Y-69582746D01*
X164122342Y-69557647D01*
X164134459Y-69586226D01*
X164178225Y-69661329D01*
X164244322Y-69767009D01*
X164247800Y-69772426D01*
X164363672Y-69954739D01*
X164445266Y-70089102D01*
X164500211Y-70189408D01*
X164536140Y-70269551D01*
X164559885Y-70340630D01*
X164577757Y-70468915D01*
X164548485Y-70544528D01*
X164480107Y-70565158D01*
X164380663Y-70528492D01*
X164258189Y-70432216D01*
X164254393Y-70428530D01*
X164159599Y-70345751D01*
X164100021Y-70314414D01*
X164081102Y-70336058D01*
X164094900Y-70383404D01*
X164132866Y-70428718D01*
X164215543Y-70505334D01*
X164327918Y-70599682D01*
X164379784Y-70640882D01*
X164587228Y-70803874D01*
X164739681Y-70925905D01*
X164841840Y-71010941D01*
X164898403Y-71062945D01*
X164914069Y-71085882D01*
X164909343Y-71087794D01*
X164856560Y-71069823D01*
X164784412Y-71033088D01*
X164690458Y-70987145D01*
X164647732Y-70984564D01*
X164656672Y-71019258D01*
X164656569Y-71047509D01*
X164630861Y-71043397D01*
X164590721Y-70996940D01*
X164589300Y-70966662D01*
X164574542Y-70899734D01*
X164555514Y-70880722D01*
X164528922Y-70875307D01*
X164538051Y-70896582D01*
X164534619Y-70933556D01*
X164506469Y-70939706D01*
X164455517Y-70912024D01*
X164448236Y-70886194D01*
X164417133Y-70832891D01*
X164373751Y-70809041D01*
X164283209Y-70761876D01*
X164243016Y-70729150D01*
X164206519Y-70699872D01*
X164189851Y-70710687D01*
X164192986Y-70770307D01*
X164215898Y-70887447D01*
X164242208Y-71002052D01*
X164300629Y-71178510D01*
X164389913Y-71368172D01*
X164447877Y-71466623D01*
X164519450Y-71584459D01*
X164569042Y-71679930D01*
X164587264Y-71734681D01*
X164586755Y-71738119D01*
X164548375Y-71783542D01*
X164490514Y-71760367D01*
X164430734Y-71688850D01*
X164372304Y-71618014D01*
X164326652Y-71608163D01*
X164308435Y-71619583D01*
X164263727Y-71644193D01*
X164231081Y-71622097D01*
X164202012Y-71542769D01*
X164182869Y-71463818D01*
X164146098Y-71361973D01*
X164078069Y-71223976D01*
X164061625Y-71195624D01*
X164061625Y-70861887D01*
X164070188Y-70839977D01*
X164074561Y-70766015D01*
X164074706Y-70746742D01*
X164063126Y-70655340D01*
X164017818Y-70579992D01*
X163925561Y-70496177D01*
X163776417Y-70376321D01*
X163912480Y-70611322D01*
X163980598Y-70728071D01*
X164033476Y-70817023D01*
X164060670Y-70860636D01*
X164061625Y-70861887D01*
X164061625Y-71195624D01*
X163991236Y-71074258D01*
X163957651Y-71022012D01*
X163854915Y-70860066D01*
X163753322Y-70688533D01*
X163671466Y-70539059D01*
X163656904Y-70510147D01*
X163579406Y-70364216D01*
X163493812Y-70220431D01*
X163437574Y-70136618D01*
X163342249Y-69997849D01*
X163276616Y-69885244D01*
X163246186Y-69809613D01*
X163256470Y-69781766D01*
X163256665Y-69781765D01*
X163263845Y-69755495D01*
X163233032Y-69691806D01*
X163230066Y-69687217D01*
X163183644Y-69605680D01*
X163187062Y-69579097D01*
X163239877Y-69607174D01*
X163341640Y-69689618D01*
X163491908Y-69826136D01*
X163604367Y-69933113D01*
X163771820Y-70090861D01*
X163891550Y-70195271D01*
X163966059Y-70248314D01*
X163997845Y-70251957D01*
X163999430Y-70244074D01*
X163974416Y-70186979D01*
X163908051Y-70094088D01*
X163812528Y-69981703D01*
X163765974Y-69931910D01*
X163654113Y-69812862D01*
X163585078Y-69727544D01*
X163548447Y-69657285D01*
X163533798Y-69583418D01*
X163530921Y-69510856D01*
X163533621Y-69406072D01*
X163547018Y-69366324D01*
X163571373Y-69379387D01*
X163611394Y-69425834D01*
X163687991Y-69516186D01*
X163789827Y-69637029D01*
X163895631Y-69763088D01*
X164046381Y-69940169D01*
X164165020Y-70073694D01*
X164248704Y-70161013D01*
X164294593Y-70199476D01*
X164299844Y-70186434D01*
X164261615Y-70119237D01*
X164236197Y-70080588D01*
X164148264Y-69943817D01*
X164055237Y-69790339D01*
X164017969Y-69725735D01*
X163942385Y-69592037D01*
X163867418Y-69460117D01*
X163834969Y-69403327D01*
X163782240Y-69321767D01*
X163694983Y-69197976D01*
X163585015Y-69048315D01*
X163464151Y-68889143D01*
X163455585Y-68878063D01*
X163320006Y-68702845D01*
X163224019Y-68576948D01*
X163161804Y-68490373D01*
X163127539Y-68433122D01*
X163115405Y-68395197D01*
X163119581Y-68366600D01*
X163119581Y-68366600D01*
G37*
X163119581Y-68366600D02*
X163134248Y-68337333D01*
X163137407Y-68331494D01*
X163153569Y-68252432D01*
X163135880Y-68222879D01*
X163118728Y-68176577D01*
X163134623Y-68160781D01*
X163178153Y-68173175D01*
X163247586Y-68230533D01*
X163291468Y-68277962D01*
X163360543Y-68356417D01*
X163392249Y-68380827D01*
X163395758Y-68355584D01*
X163389642Y-68325000D01*
X163370866Y-68228876D01*
X163349689Y-68102804D01*
X163343699Y-68063529D01*
X163316525Y-67939775D01*
X163278835Y-67834715D01*
X163266346Y-67811397D01*
X163239486Y-67749388D01*
X163252080Y-67727353D01*
X163284201Y-67696565D01*
X163289722Y-67661985D01*
X163279332Y-67623592D01*
X163261708Y-67638818D01*
X163251791Y-67618564D01*
X163242304Y-67535148D01*
X163234038Y-67400110D01*
X163227782Y-67224993D01*
X163225360Y-67107877D01*
X163222851Y-66886922D01*
X163223829Y-66730835D01*
X163229084Y-66629825D01*
X163239405Y-66574104D01*
X163255584Y-66553883D01*
X163269974Y-66555273D01*
X163301026Y-66589072D01*
X163313816Y-66668561D01*
X163311406Y-66797313D01*
X163309971Y-66918699D01*
X163318601Y-67007110D01*
X163331587Y-67038759D01*
X163357311Y-67087986D01*
X163363477Y-67140895D01*
X163381037Y-67355736D01*
X163430660Y-67596618D01*
X163462862Y-67723877D01*
X163491225Y-67841627D01*
X163494556Y-67856140D01*
X163516816Y-67926121D01*
X163541350Y-67929712D01*
X163555214Y-67912170D01*
X163587078Y-67886900D01*
X163630735Y-67911105D01*
X163684361Y-67970147D01*
X163723317Y-68013339D01*
X163737841Y-68016733D01*
X163726188Y-67972992D01*
X163686613Y-67874784D01*
X163631037Y-67746029D01*
X163516966Y-67460461D01*
X163444214Y-67222113D01*
X163413721Y-67035065D01*
X163426430Y-66903397D01*
X163432944Y-66886836D01*
X163497745Y-66811150D01*
X163589688Y-66800666D01*
X163704219Y-66852940D01*
X163836782Y-66965526D01*
X163982822Y-67135980D01*
X164038327Y-67211759D01*
X164195926Y-67447107D01*
X164315180Y-67656989D01*
X164410351Y-67868979D01*
X164483005Y-68071553D01*
X164539563Y-68279209D01*
X164554587Y-68427470D01*
X164529843Y-68514836D01*
X164467091Y-68539805D01*
X164421097Y-68521720D01*
X164421097Y-68367540D01*
X164430059Y-68339601D01*
X164426721Y-68325000D01*
X164394720Y-68236045D01*
X164342828Y-68117494D01*
X164315184Y-68060408D01*
X164237819Y-67918431D01*
X164142684Y-67761979D01*
X164037041Y-67600846D01*
X163928152Y-67444827D01*
X163823280Y-67303716D01*
X163729688Y-67187310D01*
X163654638Y-67105402D01*
X163605393Y-67067787D01*
X163589118Y-67081173D01*
X163598004Y-67170996D01*
X163619467Y-67259737D01*
X163645710Y-67321609D01*
X163665576Y-67334064D01*
X163694055Y-67357169D01*
X163747492Y-67434163D01*
X163817511Y-67552081D01*
X163875808Y-67659461D01*
X163952219Y-67793179D01*
X164041790Y-67931341D01*
X164136922Y-68064768D01*
X164230018Y-68184281D01*
X164313477Y-68280701D01*
X164379703Y-68344847D01*
X164421097Y-68367540D01*
X164421097Y-68521720D01*
X164368095Y-68500878D01*
X164234619Y-68396551D01*
X164172077Y-68336284D01*
X164061798Y-68217282D01*
X163966925Y-68100930D01*
X163905525Y-68009642D01*
X163899938Y-67998699D01*
X163854381Y-67924573D01*
X163815240Y-67896109D01*
X163809414Y-67897803D01*
X163805022Y-67939804D01*
X163831788Y-68022705D01*
X163853472Y-68069182D01*
X163895575Y-68163268D01*
X163913243Y-68227130D01*
X163910913Y-68239774D01*
X163924066Y-68275757D01*
X163973806Y-68361198D01*
X164052661Y-68485222D01*
X164153163Y-68636954D01*
X164267840Y-68805519D01*
X164389224Y-68980043D01*
X164509844Y-69149649D01*
X164622231Y-69303464D01*
X164718914Y-69430611D01*
X164782982Y-69509379D01*
X164819343Y-69565976D01*
X164808306Y-69583351D01*
X164765736Y-69557647D01*
X164720369Y-69531174D01*
X164709706Y-69555278D01*
X164686568Y-69580572D01*
X164668365Y-69573859D01*
X164648189Y-69541369D01*
X164670133Y-69521666D01*
X164686459Y-69485134D01*
X164648275Y-69442291D01*
X164606377Y-69415125D01*
X164611358Y-69436250D01*
X164616914Y-69477177D01*
X164602820Y-69482941D01*
X164569801Y-69450793D01*
X164542452Y-69374681D01*
X164500453Y-69285944D01*
X164446102Y-69247443D01*
X164386506Y-69206197D01*
X164373530Y-69168938D01*
X164345134Y-69117207D01*
X164317500Y-69109412D01*
X164267432Y-69084270D01*
X164260720Y-69062721D01*
X164235418Y-69013738D01*
X164170221Y-68932492D01*
X164090407Y-68847941D01*
X163978645Y-68728078D01*
X163853192Y-68580018D01*
X163749009Y-68446144D01*
X163666879Y-68337561D01*
X163602980Y-68258929D01*
X163568601Y-68223975D01*
X163565992Y-68223616D01*
X163568725Y-68262626D01*
X163587130Y-68352676D01*
X163611628Y-68452378D01*
X163639087Y-68577137D01*
X163651819Y-68676679D01*
X163649090Y-68720401D01*
X163650973Y-68777922D01*
X163663597Y-68791771D01*
X163702392Y-68830336D01*
X163775940Y-68915193D01*
X163873652Y-69033260D01*
X163984942Y-69171456D01*
X164099223Y-69316699D01*
X164205907Y-69455906D01*
X164261471Y-69530550D01*
X164349898Y-69643403D01*
X164468027Y-69784021D01*
X164593790Y-69926313D01*
X164624721Y-69960046D01*
X164726937Y-70072913D01*
X164806478Y-70165311D01*
X164851871Y-70223688D01*
X164858177Y-70235841D01*
X164828978Y-70247529D01*
X164783617Y-70240615D01*
X164730146Y-70205524D01*
X164641819Y-70125090D01*
X164531307Y-70011607D01*
X164421518Y-69889259D01*
X164308501Y-69759656D01*
X164214260Y-69653780D01*
X164148822Y-69582746D01*
X164122342Y-69557647D01*
X164134459Y-69586226D01*
X164178225Y-69661329D01*
X164244322Y-69767009D01*
X164247800Y-69772426D01*
X164363672Y-69954739D01*
X164445266Y-70089102D01*
X164500211Y-70189408D01*
X164536140Y-70269551D01*
X164559885Y-70340630D01*
X164577757Y-70468915D01*
X164548485Y-70544528D01*
X164480107Y-70565158D01*
X164380663Y-70528492D01*
X164258189Y-70432216D01*
X164254393Y-70428530D01*
X164159599Y-70345751D01*
X164100021Y-70314414D01*
X164081102Y-70336058D01*
X164094900Y-70383404D01*
X164132866Y-70428718D01*
X164215543Y-70505334D01*
X164327918Y-70599682D01*
X164379784Y-70640882D01*
X164587228Y-70803874D01*
X164739681Y-70925905D01*
X164841840Y-71010941D01*
X164898403Y-71062945D01*
X164914069Y-71085882D01*
X164909343Y-71087794D01*
X164856560Y-71069823D01*
X164784412Y-71033088D01*
X164690458Y-70987145D01*
X164647732Y-70984564D01*
X164656672Y-71019258D01*
X164656569Y-71047509D01*
X164630861Y-71043397D01*
X164590721Y-70996940D01*
X164589300Y-70966662D01*
X164574542Y-70899734D01*
X164555514Y-70880722D01*
X164528922Y-70875307D01*
X164538051Y-70896582D01*
X164534619Y-70933556D01*
X164506469Y-70939706D01*
X164455517Y-70912024D01*
X164448236Y-70886194D01*
X164417133Y-70832891D01*
X164373751Y-70809041D01*
X164283209Y-70761876D01*
X164243016Y-70729150D01*
X164206519Y-70699872D01*
X164189851Y-70710687D01*
X164192986Y-70770307D01*
X164215898Y-70887447D01*
X164242208Y-71002052D01*
X164300629Y-71178510D01*
X164389913Y-71368172D01*
X164447877Y-71466623D01*
X164519450Y-71584459D01*
X164569042Y-71679930D01*
X164587264Y-71734681D01*
X164586755Y-71738119D01*
X164548375Y-71783542D01*
X164490514Y-71760367D01*
X164430734Y-71688850D01*
X164372304Y-71618014D01*
X164326652Y-71608163D01*
X164308435Y-71619583D01*
X164263727Y-71644193D01*
X164231081Y-71622097D01*
X164202012Y-71542769D01*
X164182869Y-71463818D01*
X164146098Y-71361973D01*
X164078069Y-71223976D01*
X164061625Y-71195624D01*
X164061625Y-70861887D01*
X164070188Y-70839977D01*
X164074561Y-70766015D01*
X164074706Y-70746742D01*
X164063126Y-70655340D01*
X164017818Y-70579992D01*
X163925561Y-70496177D01*
X163776417Y-70376321D01*
X163912480Y-70611322D01*
X163980598Y-70728071D01*
X164033476Y-70817023D01*
X164060670Y-70860636D01*
X164061625Y-70861887D01*
X164061625Y-71195624D01*
X163991236Y-71074258D01*
X163957651Y-71022012D01*
X163854915Y-70860066D01*
X163753322Y-70688533D01*
X163671466Y-70539059D01*
X163656904Y-70510147D01*
X163579406Y-70364216D01*
X163493812Y-70220431D01*
X163437574Y-70136618D01*
X163342249Y-69997849D01*
X163276616Y-69885244D01*
X163246186Y-69809613D01*
X163256470Y-69781766D01*
X163256665Y-69781765D01*
X163263845Y-69755495D01*
X163233032Y-69691806D01*
X163230066Y-69687217D01*
X163183644Y-69605680D01*
X163187062Y-69579097D01*
X163239877Y-69607174D01*
X163341640Y-69689618D01*
X163491908Y-69826136D01*
X163604367Y-69933113D01*
X163771820Y-70090861D01*
X163891550Y-70195271D01*
X163966059Y-70248314D01*
X163997845Y-70251957D01*
X163999430Y-70244074D01*
X163974416Y-70186979D01*
X163908051Y-70094088D01*
X163812528Y-69981703D01*
X163765974Y-69931910D01*
X163654113Y-69812862D01*
X163585078Y-69727544D01*
X163548447Y-69657285D01*
X163533798Y-69583418D01*
X163530921Y-69510856D01*
X163533621Y-69406072D01*
X163547018Y-69366324D01*
X163571373Y-69379387D01*
X163611394Y-69425834D01*
X163687991Y-69516186D01*
X163789827Y-69637029D01*
X163895631Y-69763088D01*
X164046381Y-69940169D01*
X164165020Y-70073694D01*
X164248704Y-70161013D01*
X164294593Y-70199476D01*
X164299844Y-70186434D01*
X164261615Y-70119237D01*
X164236197Y-70080588D01*
X164148264Y-69943817D01*
X164055237Y-69790339D01*
X164017969Y-69725735D01*
X163942385Y-69592037D01*
X163867418Y-69460117D01*
X163834969Y-69403327D01*
X163782240Y-69321767D01*
X163694983Y-69197976D01*
X163585015Y-69048315D01*
X163464151Y-68889143D01*
X163455585Y-68878063D01*
X163320006Y-68702845D01*
X163224019Y-68576948D01*
X163161804Y-68490373D01*
X163127539Y-68433122D01*
X163115405Y-68395197D01*
X163119581Y-68366600D01*
G36*
X163202738Y-79664120D02*
G01*
X163274773Y-79712849D01*
X163392132Y-79813599D01*
X163552607Y-79964513D01*
X163691799Y-80101388D01*
X163822885Y-80231072D01*
X163910385Y-80313179D01*
X163963064Y-80353423D01*
X163989686Y-80357523D01*
X163999016Y-80331194D01*
X163999961Y-80302384D01*
X163978580Y-80192922D01*
X163933067Y-80096943D01*
X163870738Y-79996347D01*
X163804025Y-79877189D01*
X163793837Y-79857721D01*
X163744157Y-79771334D01*
X163705941Y-79722049D01*
X163697763Y-79717647D01*
X163654584Y-79686794D01*
X163597455Y-79609806D01*
X163539844Y-79510038D01*
X163495223Y-79410846D01*
X163477062Y-79335586D01*
X163477059Y-79334976D01*
X163487930Y-79249190D01*
X163525349Y-79221664D01*
X163596529Y-79252205D01*
X163695300Y-79329076D01*
X163849634Y-79461181D01*
X163707205Y-79206546D01*
X163625292Y-79058139D01*
X163525037Y-78873643D01*
X163422746Y-78683157D01*
X163376680Y-78596483D01*
X163188583Y-78241055D01*
X163270607Y-78179184D01*
X163312525Y-78151749D01*
X163348942Y-78149234D01*
X163392790Y-78180492D01*
X163457004Y-78254372D01*
X163544361Y-78366524D01*
X163715903Y-78588033D01*
X163891431Y-78812083D01*
X164062620Y-79028275D01*
X164221142Y-79226209D01*
X164358673Y-79395486D01*
X164466887Y-79525705D01*
X164534566Y-79603348D01*
X164657065Y-79743526D01*
X164749132Y-79863460D01*
X164803438Y-79952597D01*
X164812658Y-80000383D01*
X164811336Y-80001997D01*
X164778940Y-79984289D01*
X164702991Y-79920785D01*
X164591991Y-79819271D01*
X164454445Y-79687534D01*
X164298855Y-79533362D01*
X164291750Y-79526207D01*
X164143122Y-79378362D01*
X164019546Y-79259200D01*
X163927565Y-79174700D01*
X163873718Y-79130842D01*
X163864548Y-79133603D01*
X163867333Y-79138257D01*
X163914713Y-79218571D01*
X163985105Y-79345390D01*
X164067527Y-79498695D01*
X164122824Y-79603974D01*
X164214018Y-79770067D01*
X164309076Y-79927918D01*
X164393920Y-80054781D01*
X164433619Y-80106044D01*
X164523337Y-80220430D01*
X164561071Y-80289991D01*
X164552871Y-80316944D01*
X164504788Y-80303506D01*
X164422873Y-80251894D01*
X164313177Y-80164323D01*
X164181750Y-80043012D01*
X164135495Y-79996822D01*
X164042782Y-79905337D01*
X163986489Y-79857672D01*
X163967776Y-79856679D01*
X163987804Y-79905208D01*
X164047734Y-80006111D01*
X164148725Y-80162238D01*
X164287085Y-80369245D01*
X164388187Y-80524708D01*
X164469691Y-80660675D01*
X164524278Y-80764113D01*
X164544631Y-80821989D01*
X164544001Y-80826818D01*
X164542562Y-80870503D01*
X164552813Y-80875588D01*
X164593912Y-80897683D01*
X164673515Y-80955232D01*
X164761149Y-81025000D01*
X164849119Y-81101266D01*
X164902418Y-81154644D01*
X164909876Y-81173088D01*
X164856668Y-81155102D01*
X164784412Y-81118382D01*
X164690458Y-81072440D01*
X164647732Y-81069858D01*
X164656672Y-81104552D01*
X164656569Y-81132803D01*
X164630861Y-81128691D01*
X164590721Y-81082234D01*
X164589300Y-81051956D01*
X164574542Y-80985029D01*
X164555514Y-80966016D01*
X164528922Y-80960601D01*
X164538051Y-80981876D01*
X164534619Y-81018850D01*
X164506469Y-81025000D01*
X164455517Y-80997319D01*
X164455001Y-80995489D01*
X164455001Y-80776169D01*
X164448087Y-80756860D01*
X164399546Y-80691929D01*
X164306914Y-80575290D01*
X164297773Y-80563853D01*
X164190595Y-80436315D01*
X164120772Y-80369279D01*
X164085506Y-80360254D01*
X164080770Y-80370530D01*
X164091765Y-80438654D01*
X164153588Y-80524652D01*
X164272147Y-80635703D01*
X164353803Y-80702277D01*
X164422751Y-80755945D01*
X164455001Y-80776169D01*
X164455001Y-80995489D01*
X164448236Y-80971488D01*
X164417133Y-80918185D01*
X164373751Y-80894335D01*
X164283209Y-80847170D01*
X164243016Y-80814444D01*
X164206519Y-80785166D01*
X164189851Y-80795981D01*
X164192986Y-80855601D01*
X164215898Y-80972741D01*
X164242208Y-81087346D01*
X164300629Y-81263804D01*
X164389913Y-81453466D01*
X164447877Y-81551917D01*
X164519450Y-81669753D01*
X164569042Y-81765224D01*
X164587264Y-81819975D01*
X164586755Y-81823413D01*
X164548375Y-81868836D01*
X164490514Y-81845661D01*
X164430734Y-81774144D01*
X164372304Y-81703308D01*
X164326652Y-81693457D01*
X164308435Y-81704877D01*
X164263797Y-81729483D01*
X164231184Y-81707522D01*
X164202134Y-81628454D01*
X164182689Y-81548311D01*
X164142743Y-81422241D01*
X164088815Y-81309760D01*
X164078132Y-81293270D01*
X164061625Y-81268397D01*
X164061625Y-80947181D01*
X164070109Y-80925108D01*
X164074527Y-80850810D01*
X164074706Y-80828923D01*
X164064029Y-80737201D01*
X164021346Y-80663526D01*
X163930676Y-80581049D01*
X163924050Y-80575779D01*
X163773394Y-80456458D01*
X163910969Y-80694038D01*
X163979475Y-80811452D01*
X164032771Y-80901138D01*
X164060481Y-80945664D01*
X164061625Y-80947181D01*
X164061625Y-81268397D01*
X163925544Y-81063343D01*
X163782718Y-80828382D01*
X163666686Y-80616680D01*
X163646800Y-80576765D01*
X163570369Y-80433188D01*
X163484193Y-80290435D01*
X163437571Y-80221912D01*
X163341321Y-80081751D01*
X163275852Y-79968953D01*
X163246431Y-79893922D01*
X163257922Y-79867059D01*
X163266445Y-79841731D01*
X163236383Y-79784042D01*
X163192995Y-79711427D01*
X163178236Y-79669272D01*
X163202738Y-79664120D01*
X163202738Y-79664120D01*
G37*
X163202738Y-79664120D02*
X163274773Y-79712849D01*
X163392132Y-79813599D01*
X163552607Y-79964513D01*
X163691799Y-80101388D01*
X163822885Y-80231072D01*
X163910385Y-80313179D01*
X163963064Y-80353423D01*
X163989686Y-80357523D01*
X163999016Y-80331194D01*
X163999961Y-80302384D01*
X163978580Y-80192922D01*
X163933067Y-80096943D01*
X163870738Y-79996347D01*
X163804025Y-79877189D01*
X163793837Y-79857721D01*
X163744157Y-79771334D01*
X163705941Y-79722049D01*
X163697763Y-79717647D01*
X163654584Y-79686794D01*
X163597455Y-79609806D01*
X163539844Y-79510038D01*
X163495223Y-79410846D01*
X163477062Y-79335586D01*
X163477059Y-79334976D01*
X163487930Y-79249190D01*
X163525349Y-79221664D01*
X163596529Y-79252205D01*
X163695300Y-79329076D01*
X163849634Y-79461181D01*
X163707205Y-79206546D01*
X163625292Y-79058139D01*
X163525037Y-78873643D01*
X163422746Y-78683157D01*
X163376680Y-78596483D01*
X163188583Y-78241055D01*
X163270607Y-78179184D01*
X163312525Y-78151749D01*
X163348942Y-78149234D01*
X163392790Y-78180492D01*
X163457004Y-78254372D01*
X163544361Y-78366524D01*
X163715903Y-78588033D01*
X163891431Y-78812083D01*
X164062620Y-79028275D01*
X164221142Y-79226209D01*
X164358673Y-79395486D01*
X164466887Y-79525705D01*
X164534566Y-79603348D01*
X164657065Y-79743526D01*
X164749132Y-79863460D01*
X164803438Y-79952597D01*
X164812658Y-80000383D01*
X164811336Y-80001997D01*
X164778940Y-79984289D01*
X164702991Y-79920785D01*
X164591991Y-79819271D01*
X164454445Y-79687534D01*
X164298855Y-79533362D01*
X164291750Y-79526207D01*
X164143122Y-79378362D01*
X164019546Y-79259200D01*
X163927565Y-79174700D01*
X163873718Y-79130842D01*
X163864548Y-79133603D01*
X163867333Y-79138257D01*
X163914713Y-79218571D01*
X163985105Y-79345390D01*
X164067527Y-79498695D01*
X164122824Y-79603974D01*
X164214018Y-79770067D01*
X164309076Y-79927918D01*
X164393920Y-80054781D01*
X164433619Y-80106044D01*
X164523337Y-80220430D01*
X164561071Y-80289991D01*
X164552871Y-80316944D01*
X164504788Y-80303506D01*
X164422873Y-80251894D01*
X164313177Y-80164323D01*
X164181750Y-80043012D01*
X164135495Y-79996822D01*
X164042782Y-79905337D01*
X163986489Y-79857672D01*
X163967776Y-79856679D01*
X163987804Y-79905208D01*
X164047734Y-80006111D01*
X164148725Y-80162238D01*
X164287085Y-80369245D01*
X164388187Y-80524708D01*
X164469691Y-80660675D01*
X164524278Y-80764113D01*
X164544631Y-80821989D01*
X164544001Y-80826818D01*
X164542562Y-80870503D01*
X164552813Y-80875588D01*
X164593912Y-80897683D01*
X164673515Y-80955232D01*
X164761149Y-81025000D01*
X164849119Y-81101266D01*
X164902418Y-81154644D01*
X164909876Y-81173088D01*
X164856668Y-81155102D01*
X164784412Y-81118382D01*
X164690458Y-81072440D01*
X164647732Y-81069858D01*
X164656672Y-81104552D01*
X164656569Y-81132803D01*
X164630861Y-81128691D01*
X164590721Y-81082234D01*
X164589300Y-81051956D01*
X164574542Y-80985029D01*
X164555514Y-80966016D01*
X164528922Y-80960601D01*
X164538051Y-80981876D01*
X164534619Y-81018850D01*
X164506469Y-81025000D01*
X164455517Y-80997319D01*
X164455001Y-80995489D01*
X164455001Y-80776169D01*
X164448087Y-80756860D01*
X164399546Y-80691929D01*
X164306914Y-80575290D01*
X164297773Y-80563853D01*
X164190595Y-80436315D01*
X164120772Y-80369279D01*
X164085506Y-80360254D01*
X164080770Y-80370530D01*
X164091765Y-80438654D01*
X164153588Y-80524652D01*
X164272147Y-80635703D01*
X164353803Y-80702277D01*
X164422751Y-80755945D01*
X164455001Y-80776169D01*
X164455001Y-80995489D01*
X164448236Y-80971488D01*
X164417133Y-80918185D01*
X164373751Y-80894335D01*
X164283209Y-80847170D01*
X164243016Y-80814444D01*
X164206519Y-80785166D01*
X164189851Y-80795981D01*
X164192986Y-80855601D01*
X164215898Y-80972741D01*
X164242208Y-81087346D01*
X164300629Y-81263804D01*
X164389913Y-81453466D01*
X164447877Y-81551917D01*
X164519450Y-81669753D01*
X164569042Y-81765224D01*
X164587264Y-81819975D01*
X164586755Y-81823413D01*
X164548375Y-81868836D01*
X164490514Y-81845661D01*
X164430734Y-81774144D01*
X164372304Y-81703308D01*
X164326652Y-81693457D01*
X164308435Y-81704877D01*
X164263797Y-81729483D01*
X164231184Y-81707522D01*
X164202134Y-81628454D01*
X164182689Y-81548311D01*
X164142743Y-81422241D01*
X164088815Y-81309760D01*
X164078132Y-81293270D01*
X164061625Y-81268397D01*
X164061625Y-80947181D01*
X164070109Y-80925108D01*
X164074527Y-80850810D01*
X164074706Y-80828923D01*
X164064029Y-80737201D01*
X164021346Y-80663526D01*
X163930676Y-80581049D01*
X163924050Y-80575779D01*
X163773394Y-80456458D01*
X163910969Y-80694038D01*
X163979475Y-80811452D01*
X164032771Y-80901138D01*
X164060481Y-80945664D01*
X164061625Y-80947181D01*
X164061625Y-81268397D01*
X163925544Y-81063343D01*
X163782718Y-80828382D01*
X163666686Y-80616680D01*
X163646800Y-80576765D01*
X163570369Y-80433188D01*
X163484193Y-80290435D01*
X163437571Y-80221912D01*
X163341321Y-80081751D01*
X163275852Y-79968953D01*
X163246431Y-79893922D01*
X163257922Y-79867059D01*
X163266445Y-79841731D01*
X163236383Y-79784042D01*
X163192995Y-79711427D01*
X163178236Y-79669272D01*
X163202738Y-79664120D01*
G36*
X164989853Y-65411471D02*
G01*
X165008530Y-65430147D01*
X164989853Y-65448824D01*
X164971177Y-65430147D01*
X164989853Y-65411471D01*
X164989853Y-65411471D01*
G37*
X164989853Y-65411471D02*
X165008530Y-65430147D01*
X164989853Y-65448824D01*
X164971177Y-65430147D01*
X164989853Y-65411471D01*
G36*
X164989853Y-71126471D02*
G01*
X165008530Y-71145147D01*
X164989853Y-71163824D01*
X164971177Y-71145147D01*
X164989853Y-71126471D01*
X164989853Y-71126471D01*
G37*
X164989853Y-71126471D02*
X165008530Y-71145147D01*
X164989853Y-71163824D01*
X164971177Y-71145147D01*
X164989853Y-71126471D01*
G36*
X164989853Y-81211765D02*
G01*
X165008530Y-81230441D01*
X164989853Y-81249118D01*
X164971177Y-81230441D01*
X164989853Y-81211765D01*
X164989853Y-81211765D01*
G37*
X164989853Y-81211765D02*
X165008530Y-81230441D01*
X164989853Y-81249118D01*
X164971177Y-81230441D01*
X164989853Y-81211765D01*
G36*
X165064559Y-65486176D02*
G01*
X165083236Y-65504853D01*
X165064559Y-65523529D01*
X165045883Y-65504853D01*
X165064559Y-65486176D01*
X165064559Y-65486176D01*
G37*
X165064559Y-65486176D02*
X165083236Y-65504853D01*
X165064559Y-65523529D01*
X165045883Y-65504853D01*
X165064559Y-65486176D01*
G36*
X165064559Y-71201176D02*
G01*
X165083236Y-71219853D01*
X165064559Y-71238529D01*
X165045883Y-71219853D01*
X165064559Y-71201176D01*
X165064559Y-71201176D01*
G37*
X165064559Y-71201176D02*
X165083236Y-71219853D01*
X165064559Y-71238529D01*
X165045883Y-71219853D01*
X165064559Y-71201176D01*
G36*
X165064559Y-81286471D02*
G01*
X165083236Y-81305147D01*
X165064559Y-81323824D01*
X165045883Y-81305147D01*
X165064559Y-81286471D01*
X165064559Y-81286471D01*
G37*
X165064559Y-81286471D02*
X165083236Y-81305147D01*
X165064559Y-81323824D01*
X165045883Y-81305147D01*
X165064559Y-81286471D01*
D11*
G36*
X164751000Y-105901000D02*
G01*
X162949000Y-105901000D01*
X162949000Y-104099000D01*
X164751000Y-104099000D01*
X164751000Y-105901000D01*
X164751000Y-105901000D01*
G37*
G36*
X161420442Y-104105518D02*
G01*
X161486627Y-104112037D01*
X161656466Y-104163557D01*
X161812991Y-104247222D01*
X161848729Y-104276552D01*
X161950186Y-104359814D01*
X162033448Y-104461271D01*
X162062778Y-104497009D01*
X162146443Y-104653534D01*
X162197963Y-104823373D01*
X162215359Y-105000000D01*
X162197963Y-105176627D01*
X162146443Y-105346466D01*
X162062778Y-105502991D01*
X162033448Y-105538729D01*
X161950186Y-105640186D01*
X161848729Y-105723448D01*
X161812991Y-105752778D01*
X161656466Y-105836443D01*
X161486627Y-105887963D01*
X161420442Y-105894482D01*
X161354260Y-105901000D01*
X161265740Y-105901000D01*
X161199558Y-105894482D01*
X161133373Y-105887963D01*
X160963534Y-105836443D01*
X160807009Y-105752778D01*
X160771271Y-105723448D01*
X160669814Y-105640186D01*
X160586552Y-105538729D01*
X160557222Y-105502991D01*
X160473557Y-105346466D01*
X160422037Y-105176627D01*
X160404641Y-105000000D01*
X160422037Y-104823373D01*
X160473557Y-104653534D01*
X160557222Y-104497009D01*
X160586552Y-104461271D01*
X160669814Y-104359814D01*
X160771271Y-104276552D01*
X160807009Y-104247222D01*
X160963534Y-104163557D01*
X161133373Y-104112037D01*
X161199558Y-104105518D01*
X161265740Y-104099000D01*
X161354260Y-104099000D01*
X161420442Y-104105518D01*
X161420442Y-104105518D01*
G37*
G36*
X158880442Y-104105518D02*
G01*
X158946627Y-104112037D01*
X159116466Y-104163557D01*
X159272991Y-104247222D01*
X159308729Y-104276552D01*
X159410186Y-104359814D01*
X159493448Y-104461271D01*
X159522778Y-104497009D01*
X159606443Y-104653534D01*
X159657963Y-104823373D01*
X159675359Y-105000000D01*
X159657963Y-105176627D01*
X159606443Y-105346466D01*
X159522778Y-105502991D01*
X159493448Y-105538729D01*
X159410186Y-105640186D01*
X159308729Y-105723448D01*
X159272991Y-105752778D01*
X159116466Y-105836443D01*
X158946627Y-105887963D01*
X158880442Y-105894482D01*
X158814260Y-105901000D01*
X158725740Y-105901000D01*
X158659558Y-105894482D01*
X158593373Y-105887963D01*
X158423534Y-105836443D01*
X158267009Y-105752778D01*
X158231271Y-105723448D01*
X158129814Y-105640186D01*
X158046552Y-105538729D01*
X158017222Y-105502991D01*
X157933557Y-105346466D01*
X157882037Y-105176627D01*
X157864641Y-105000000D01*
X157882037Y-104823373D01*
X157933557Y-104653534D01*
X158017222Y-104497009D01*
X158046552Y-104461271D01*
X158129814Y-104359814D01*
X158231271Y-104276552D01*
X158267009Y-104247222D01*
X158423534Y-104163557D01*
X158593373Y-104112037D01*
X158659558Y-104105518D01*
X158725740Y-104099000D01*
X158814260Y-104099000D01*
X158880442Y-104105518D01*
X158880442Y-104105518D01*
G37*
G36*
X156340442Y-104105518D02*
G01*
X156406627Y-104112037D01*
X156576466Y-104163557D01*
X156732991Y-104247222D01*
X156768729Y-104276552D01*
X156870186Y-104359814D01*
X156953448Y-104461271D01*
X156982778Y-104497009D01*
X157066443Y-104653534D01*
X157117963Y-104823373D01*
X157135359Y-105000000D01*
X157117963Y-105176627D01*
X157066443Y-105346466D01*
X156982778Y-105502991D01*
X156953448Y-105538729D01*
X156870186Y-105640186D01*
X156768729Y-105723448D01*
X156732991Y-105752778D01*
X156576466Y-105836443D01*
X156406627Y-105887963D01*
X156340442Y-105894482D01*
X156274260Y-105901000D01*
X156185740Y-105901000D01*
X156119558Y-105894482D01*
X156053373Y-105887963D01*
X155883534Y-105836443D01*
X155727009Y-105752778D01*
X155691271Y-105723448D01*
X155589814Y-105640186D01*
X155506552Y-105538729D01*
X155477222Y-105502991D01*
X155393557Y-105346466D01*
X155342037Y-105176627D01*
X155324641Y-105000000D01*
X155342037Y-104823373D01*
X155393557Y-104653534D01*
X155477222Y-104497009D01*
X155506552Y-104461271D01*
X155589814Y-104359814D01*
X155691271Y-104276552D01*
X155727009Y-104247222D01*
X155883534Y-104163557D01*
X156053373Y-104112037D01*
X156119558Y-104105518D01*
X156185740Y-104099000D01*
X156274260Y-104099000D01*
X156340442Y-104105518D01*
X156340442Y-104105518D01*
G37*
G36*
X162806564Y-96989389D02*
G01*
X162997833Y-97068615D01*
X162997835Y-97068616D01*
X163169973Y-97183635D01*
X163316365Y-97330027D01*
X163431385Y-97502167D01*
X163510611Y-97693436D01*
X163551000Y-97896484D01*
X163551000Y-98103516D01*
X163510611Y-98306564D01*
X163431385Y-98497833D01*
X163431384Y-98497835D01*
X163316365Y-98669973D01*
X163169973Y-98816365D01*
X162997835Y-98931384D01*
X162997834Y-98931385D01*
X162997833Y-98931385D01*
X162806564Y-99010611D01*
X162603516Y-99051000D01*
X162396484Y-99051000D01*
X162193436Y-99010611D01*
X162002167Y-98931385D01*
X162002166Y-98931385D01*
X162002165Y-98931384D01*
X161830027Y-98816365D01*
X161683635Y-98669973D01*
X161568616Y-98497835D01*
X161568615Y-98497833D01*
X161489389Y-98306564D01*
X161449000Y-98103516D01*
X161449000Y-97896484D01*
X161489389Y-97693436D01*
X161568615Y-97502167D01*
X161683635Y-97330027D01*
X161830027Y-97183635D01*
X162002165Y-97068616D01*
X162002167Y-97068615D01*
X162193436Y-96989389D01*
X162396484Y-96949000D01*
X162603516Y-96949000D01*
X162806564Y-96989389D01*
X162806564Y-96989389D01*
G37*
G36*
X158306564Y-96989389D02*
G01*
X158497833Y-97068615D01*
X158497835Y-97068616D01*
X158669973Y-97183635D01*
X158816365Y-97330027D01*
X158931385Y-97502167D01*
X159010611Y-97693436D01*
X159051000Y-97896484D01*
X159051000Y-98103516D01*
X159010611Y-98306564D01*
X158931385Y-98497833D01*
X158931384Y-98497835D01*
X158816365Y-98669973D01*
X158669973Y-98816365D01*
X158497835Y-98931384D01*
X158497834Y-98931385D01*
X158497833Y-98931385D01*
X158306564Y-99010611D01*
X158103516Y-99051000D01*
X157896484Y-99051000D01*
X157693436Y-99010611D01*
X157502167Y-98931385D01*
X157502166Y-98931385D01*
X157502165Y-98931384D01*
X157330027Y-98816365D01*
X157183635Y-98669973D01*
X157068616Y-98497835D01*
X157068615Y-98497833D01*
X156989389Y-98306564D01*
X156949000Y-98103516D01*
X156949000Y-97896484D01*
X156989389Y-97693436D01*
X157068615Y-97502167D01*
X157183635Y-97330027D01*
X157330027Y-97183635D01*
X157502165Y-97068616D01*
X157502167Y-97068615D01*
X157693436Y-96989389D01*
X157896484Y-96949000D01*
X158103516Y-96949000D01*
X158306564Y-96989389D01*
X158306564Y-96989389D01*
G37*
G36*
X171265256Y-92891298D02*
G01*
X171371579Y-92912447D01*
X171672042Y-93036903D01*
X171942451Y-93217585D01*
X172172415Y-93447549D01*
X172342109Y-93701514D01*
X172353098Y-93717960D01*
X172353463Y-93718841D01*
X172477553Y-94018421D01*
X172541000Y-94337391D01*
X172541000Y-94662609D01*
X172477553Y-94981579D01*
X172353097Y-95282042D01*
X172172415Y-95552451D01*
X171942451Y-95782415D01*
X171672042Y-95963097D01*
X171371579Y-96087553D01*
X171265256Y-96108702D01*
X171052611Y-96151000D01*
X170727389Y-96151000D01*
X170514744Y-96108702D01*
X170408421Y-96087553D01*
X170107958Y-95963097D01*
X169837549Y-95782415D01*
X169607585Y-95552451D01*
X169426903Y-95282042D01*
X169302447Y-94981579D01*
X169239000Y-94662609D01*
X169239000Y-94337391D01*
X169302447Y-94018421D01*
X169426537Y-93718841D01*
X169426902Y-93717960D01*
X169437891Y-93701514D01*
X169607585Y-93447549D01*
X169837549Y-93217585D01*
X170107958Y-93036903D01*
X170408421Y-92912447D01*
X170514744Y-92891298D01*
X170727389Y-92849000D01*
X171052611Y-92849000D01*
X171265256Y-92891298D01*
X171265256Y-92891298D01*
G37*
G36*
X118265256Y-92891298D02*
G01*
X118371579Y-92912447D01*
X118672042Y-93036903D01*
X118942451Y-93217585D01*
X119172415Y-93447549D01*
X119342109Y-93701514D01*
X119353098Y-93717960D01*
X119353463Y-93718841D01*
X119477553Y-94018421D01*
X119541000Y-94337391D01*
X119541000Y-94662609D01*
X119477553Y-94981579D01*
X119353097Y-95282042D01*
X119172415Y-95552451D01*
X118942451Y-95782415D01*
X118672042Y-95963097D01*
X118371579Y-96087553D01*
X118265256Y-96108702D01*
X118052611Y-96151000D01*
X117727389Y-96151000D01*
X117514744Y-96108702D01*
X117408421Y-96087553D01*
X117107958Y-95963097D01*
X116837549Y-95782415D01*
X116607585Y-95552451D01*
X116426903Y-95282042D01*
X116302447Y-94981579D01*
X116239000Y-94662609D01*
X116239000Y-94337391D01*
X116302447Y-94018421D01*
X116426537Y-93718841D01*
X116426902Y-93717960D01*
X116437891Y-93701514D01*
X116607585Y-93447549D01*
X116837549Y-93217585D01*
X117107958Y-93036903D01*
X117408421Y-92912447D01*
X117514744Y-92891298D01*
X117727389Y-92849000D01*
X118052611Y-92849000D01*
X118265256Y-92891298D01*
X118265256Y-92891298D01*
G37*
G36*
X127028114Y-92861611D02*
G01*
X127127265Y-92891688D01*
X127218644Y-92940531D01*
X127298738Y-93006262D01*
X127364469Y-93086356D01*
X127413312Y-93177735D01*
X127443389Y-93276886D01*
X127453545Y-93380000D01*
X127443389Y-93483114D01*
X127413312Y-93582265D01*
X127364469Y-93673644D01*
X127298738Y-93753738D01*
X127218644Y-93819469D01*
X127127265Y-93868312D01*
X127028114Y-93898389D01*
X126950839Y-93906000D01*
X125849161Y-93906000D01*
X125771886Y-93898389D01*
X125672735Y-93868312D01*
X125581356Y-93819469D01*
X125501262Y-93753738D01*
X125472614Y-93718830D01*
X125455297Y-93701513D01*
X125434923Y-93687900D01*
X125412284Y-93678522D01*
X125388251Y-93673742D01*
X125363747Y-93673742D01*
X125339713Y-93678523D01*
X125317075Y-93687900D01*
X125296700Y-93701514D01*
X125279373Y-93718841D01*
X125265760Y-93739215D01*
X125256382Y-93761854D01*
X125251000Y-93798139D01*
X125251000Y-93881000D01*
X123849000Y-93881000D01*
X123849000Y-92879000D01*
X125251000Y-92879000D01*
X125251000Y-92961861D01*
X125253402Y-92986247D01*
X125260515Y-93009696D01*
X125272066Y-93031307D01*
X125287611Y-93050249D01*
X125306553Y-93065794D01*
X125328164Y-93077345D01*
X125351613Y-93084458D01*
X125375999Y-93086860D01*
X125400385Y-93084458D01*
X125423834Y-93077345D01*
X125445445Y-93065794D01*
X125472617Y-93041167D01*
X125501262Y-93006262D01*
X125581356Y-92940531D01*
X125672735Y-92891688D01*
X125771886Y-92861611D01*
X125849161Y-92854000D01*
X126950839Y-92854000D01*
X127028114Y-92861611D01*
X127028114Y-92861611D01*
G37*
G36*
X152428114Y-92831611D02*
G01*
X152527265Y-92861688D01*
X152618644Y-92910531D01*
X152698738Y-92976262D01*
X152727386Y-93011170D01*
X152744703Y-93028487D01*
X152765077Y-93042100D01*
X152787716Y-93051478D01*
X152811749Y-93056258D01*
X152836253Y-93056258D01*
X152860287Y-93051477D01*
X152882925Y-93042100D01*
X152903300Y-93028486D01*
X152920627Y-93011159D01*
X152934240Y-92990785D01*
X152943618Y-92968146D01*
X152949000Y-92931861D01*
X152949000Y-92849000D01*
X154351000Y-92849000D01*
X154351000Y-93851000D01*
X152949000Y-93851000D01*
X152949000Y-93768139D01*
X152946598Y-93743753D01*
X152939485Y-93720304D01*
X152927934Y-93698693D01*
X152912389Y-93679751D01*
X152893447Y-93664206D01*
X152871836Y-93652655D01*
X152848387Y-93645542D01*
X152824001Y-93643140D01*
X152799615Y-93645542D01*
X152776166Y-93652655D01*
X152754555Y-93664206D01*
X152727383Y-93688833D01*
X152698738Y-93723738D01*
X152618644Y-93789469D01*
X152527265Y-93838312D01*
X152428114Y-93868389D01*
X152350839Y-93876000D01*
X151249161Y-93876000D01*
X151171886Y-93868389D01*
X151072735Y-93838312D01*
X150981356Y-93789469D01*
X150901262Y-93723738D01*
X150835531Y-93643644D01*
X150786688Y-93552265D01*
X150756611Y-93453114D01*
X150746455Y-93350000D01*
X150756611Y-93246886D01*
X150786688Y-93147735D01*
X150835531Y-93056356D01*
X150901262Y-92976262D01*
X150981356Y-92910531D01*
X151072735Y-92861688D01*
X151171886Y-92831611D01*
X151249161Y-92824000D01*
X152350839Y-92824000D01*
X152428114Y-92831611D01*
X152428114Y-92831611D01*
G37*
G36*
X158306564Y-90489389D02*
G01*
X158497833Y-90568615D01*
X158497835Y-90568616D01*
X158669973Y-90683635D01*
X158816365Y-90830027D01*
X158871881Y-90913112D01*
X158931385Y-91002167D01*
X159010611Y-91193436D01*
X159051000Y-91396484D01*
X159051000Y-91603516D01*
X159010611Y-91806564D01*
X158931385Y-91997833D01*
X158931384Y-91997835D01*
X158816365Y-92169973D01*
X158669973Y-92316365D01*
X158497835Y-92431384D01*
X158497834Y-92431385D01*
X158497833Y-92431385D01*
X158306564Y-92510611D01*
X158103516Y-92551000D01*
X157896484Y-92551000D01*
X157693436Y-92510611D01*
X157502167Y-92431385D01*
X157502166Y-92431385D01*
X157502165Y-92431384D01*
X157330027Y-92316365D01*
X157183635Y-92169973D01*
X157068616Y-91997835D01*
X157068615Y-91997833D01*
X156989389Y-91806564D01*
X156949000Y-91603516D01*
X156949000Y-91396484D01*
X156989389Y-91193436D01*
X157068615Y-91002167D01*
X157128120Y-90913112D01*
X157183635Y-90830027D01*
X157330027Y-90683635D01*
X157502165Y-90568616D01*
X157502167Y-90568615D01*
X157693436Y-90489389D01*
X157896484Y-90449000D01*
X158103516Y-90449000D01*
X158306564Y-90489389D01*
X158306564Y-90489389D01*
G37*
G36*
X162806564Y-90489389D02*
G01*
X162997833Y-90568615D01*
X162997835Y-90568616D01*
X163169973Y-90683635D01*
X163316365Y-90830027D01*
X163371881Y-90913112D01*
X163431385Y-91002167D01*
X163510611Y-91193436D01*
X163551000Y-91396484D01*
X163551000Y-91603516D01*
X163510611Y-91806564D01*
X163431385Y-91997833D01*
X163431384Y-91997835D01*
X163316365Y-92169973D01*
X163169973Y-92316365D01*
X162997835Y-92431384D01*
X162997834Y-92431385D01*
X162997833Y-92431385D01*
X162806564Y-92510611D01*
X162603516Y-92551000D01*
X162396484Y-92551000D01*
X162193436Y-92510611D01*
X162002167Y-92431385D01*
X162002166Y-92431385D01*
X162002165Y-92431384D01*
X161830027Y-92316365D01*
X161683635Y-92169973D01*
X161568616Y-91997835D01*
X161568615Y-91997833D01*
X161489389Y-91806564D01*
X161449000Y-91603516D01*
X161449000Y-91396484D01*
X161489389Y-91193436D01*
X161568615Y-91002167D01*
X161628120Y-90913112D01*
X161683635Y-90830027D01*
X161830027Y-90683635D01*
X162002165Y-90568616D01*
X162002167Y-90568615D01*
X162193436Y-90489389D01*
X162396484Y-90449000D01*
X162603516Y-90449000D01*
X162806564Y-90489389D01*
X162806564Y-90489389D01*
G37*
G36*
X127028114Y-90321611D02*
G01*
X127127265Y-90351688D01*
X127218644Y-90400531D01*
X127298738Y-90466262D01*
X127364469Y-90546356D01*
X127413312Y-90637735D01*
X127443389Y-90736886D01*
X127453545Y-90840000D01*
X127443389Y-90943114D01*
X127413312Y-91042265D01*
X127364469Y-91133644D01*
X127298738Y-91213738D01*
X127218644Y-91279469D01*
X127127265Y-91328312D01*
X127028114Y-91358389D01*
X126950839Y-91366000D01*
X125849161Y-91366000D01*
X125771886Y-91358389D01*
X125672735Y-91328312D01*
X125581356Y-91279469D01*
X125501262Y-91213738D01*
X125472614Y-91178830D01*
X125455297Y-91161513D01*
X125434923Y-91147900D01*
X125412284Y-91138522D01*
X125388251Y-91133742D01*
X125363747Y-91133742D01*
X125339713Y-91138523D01*
X125317075Y-91147900D01*
X125296700Y-91161514D01*
X125279373Y-91178841D01*
X125265760Y-91199215D01*
X125256382Y-91221854D01*
X125251000Y-91258139D01*
X125251000Y-91341000D01*
X123849000Y-91341000D01*
X123849000Y-90339000D01*
X125251000Y-90339000D01*
X125251000Y-90421861D01*
X125253402Y-90446247D01*
X125260515Y-90469696D01*
X125272066Y-90491307D01*
X125287611Y-90510249D01*
X125306553Y-90525794D01*
X125328164Y-90537345D01*
X125351613Y-90544458D01*
X125375999Y-90546860D01*
X125400385Y-90544458D01*
X125423834Y-90537345D01*
X125445445Y-90525794D01*
X125472617Y-90501167D01*
X125501262Y-90466262D01*
X125581356Y-90400531D01*
X125672735Y-90351688D01*
X125771886Y-90321611D01*
X125849161Y-90314000D01*
X126950839Y-90314000D01*
X127028114Y-90321611D01*
X127028114Y-90321611D01*
G37*
G36*
X152428114Y-90291611D02*
G01*
X152527265Y-90321688D01*
X152618644Y-90370531D01*
X152698738Y-90436262D01*
X152727386Y-90471170D01*
X152744703Y-90488487D01*
X152765077Y-90502100D01*
X152787716Y-90511478D01*
X152811749Y-90516258D01*
X152836253Y-90516258D01*
X152860287Y-90511477D01*
X152882925Y-90502100D01*
X152903300Y-90488486D01*
X152920627Y-90471159D01*
X152934240Y-90450785D01*
X152943618Y-90428146D01*
X152949000Y-90391861D01*
X152949000Y-90309000D01*
X154351000Y-90309000D01*
X154351000Y-91311000D01*
X152949000Y-91311000D01*
X152949000Y-91228139D01*
X152946598Y-91203753D01*
X152939485Y-91180304D01*
X152927934Y-91158693D01*
X152912389Y-91139751D01*
X152893447Y-91124206D01*
X152871836Y-91112655D01*
X152848387Y-91105542D01*
X152824001Y-91103140D01*
X152799615Y-91105542D01*
X152776166Y-91112655D01*
X152754555Y-91124206D01*
X152727383Y-91148833D01*
X152698738Y-91183738D01*
X152618644Y-91249469D01*
X152527265Y-91298312D01*
X152428114Y-91328389D01*
X152350839Y-91336000D01*
X151249161Y-91336000D01*
X151171886Y-91328389D01*
X151072735Y-91298312D01*
X150981356Y-91249469D01*
X150901262Y-91183738D01*
X150835531Y-91103644D01*
X150786688Y-91012265D01*
X150756611Y-90913114D01*
X150746455Y-90810000D01*
X150756611Y-90706886D01*
X150786688Y-90607735D01*
X150835531Y-90516356D01*
X150901262Y-90436262D01*
X150981356Y-90370531D01*
X151072735Y-90321688D01*
X151171886Y-90291611D01*
X151249161Y-90284000D01*
X152350839Y-90284000D01*
X152428114Y-90291611D01*
X152428114Y-90291611D01*
G37*
G36*
X127028114Y-87781611D02*
G01*
X127127265Y-87811688D01*
X127218644Y-87860531D01*
X127298738Y-87926262D01*
X127364469Y-88006356D01*
X127413312Y-88097735D01*
X127443389Y-88196886D01*
X127453545Y-88300000D01*
X127443389Y-88403114D01*
X127413312Y-88502265D01*
X127364469Y-88593644D01*
X127298738Y-88673738D01*
X127218644Y-88739469D01*
X127127265Y-88788312D01*
X127028114Y-88818389D01*
X126950839Y-88826000D01*
X125849161Y-88826000D01*
X125771886Y-88818389D01*
X125672735Y-88788312D01*
X125581356Y-88739469D01*
X125501262Y-88673738D01*
X125472614Y-88638830D01*
X125455297Y-88621513D01*
X125434923Y-88607900D01*
X125412284Y-88598522D01*
X125388251Y-88593742D01*
X125363747Y-88593742D01*
X125339713Y-88598523D01*
X125317075Y-88607900D01*
X125296700Y-88621514D01*
X125279373Y-88638841D01*
X125265760Y-88659215D01*
X125256382Y-88681854D01*
X125251000Y-88718139D01*
X125251000Y-88801000D01*
X123849000Y-88801000D01*
X123849000Y-87799000D01*
X125251000Y-87799000D01*
X125251000Y-87881861D01*
X125253402Y-87906247D01*
X125260515Y-87929696D01*
X125272066Y-87951307D01*
X125287611Y-87970249D01*
X125306553Y-87985794D01*
X125328164Y-87997345D01*
X125351613Y-88004458D01*
X125375999Y-88006860D01*
X125400385Y-88004458D01*
X125423834Y-87997345D01*
X125445445Y-87985794D01*
X125472617Y-87961167D01*
X125501262Y-87926262D01*
X125581356Y-87860531D01*
X125672735Y-87811688D01*
X125771886Y-87781611D01*
X125849161Y-87774000D01*
X126950839Y-87774000D01*
X127028114Y-87781611D01*
X127028114Y-87781611D01*
G37*
G36*
X152428114Y-87751611D02*
G01*
X152527265Y-87781688D01*
X152618644Y-87830531D01*
X152698738Y-87896262D01*
X152727386Y-87931170D01*
X152744703Y-87948487D01*
X152765077Y-87962100D01*
X152787716Y-87971478D01*
X152811749Y-87976258D01*
X152836253Y-87976258D01*
X152860287Y-87971477D01*
X152882925Y-87962100D01*
X152903300Y-87948486D01*
X152920627Y-87931159D01*
X152934240Y-87910785D01*
X152943618Y-87888146D01*
X152949000Y-87851861D01*
X152949000Y-87769000D01*
X154351000Y-87769000D01*
X154351000Y-88771000D01*
X152949000Y-88771000D01*
X152949000Y-88688139D01*
X152946598Y-88663753D01*
X152939485Y-88640304D01*
X152927934Y-88618693D01*
X152912389Y-88599751D01*
X152893447Y-88584206D01*
X152871836Y-88572655D01*
X152848387Y-88565542D01*
X152824001Y-88563140D01*
X152799615Y-88565542D01*
X152776166Y-88572655D01*
X152754555Y-88584206D01*
X152727383Y-88608833D01*
X152698738Y-88643738D01*
X152618644Y-88709469D01*
X152527265Y-88758312D01*
X152428114Y-88788389D01*
X152350839Y-88796000D01*
X151249161Y-88796000D01*
X151171886Y-88788389D01*
X151072735Y-88758312D01*
X150981356Y-88709469D01*
X150901262Y-88643738D01*
X150835531Y-88563644D01*
X150786688Y-88472265D01*
X150756611Y-88373114D01*
X150746455Y-88270000D01*
X150756611Y-88166886D01*
X150786688Y-88067735D01*
X150835531Y-87976356D01*
X150901262Y-87896262D01*
X150981356Y-87830531D01*
X151072735Y-87781688D01*
X151171886Y-87751611D01*
X151249161Y-87744000D01*
X152350839Y-87744000D01*
X152428114Y-87751611D01*
X152428114Y-87751611D01*
G37*
G36*
X127028114Y-85241611D02*
G01*
X127127265Y-85271688D01*
X127218644Y-85320531D01*
X127298738Y-85386262D01*
X127364469Y-85466356D01*
X127413312Y-85557735D01*
X127443389Y-85656886D01*
X127453545Y-85760000D01*
X127443389Y-85863114D01*
X127413312Y-85962265D01*
X127364469Y-86053644D01*
X127298738Y-86133738D01*
X127218644Y-86199469D01*
X127127265Y-86248312D01*
X127028114Y-86278389D01*
X126950839Y-86286000D01*
X125849161Y-86286000D01*
X125771886Y-86278389D01*
X125672735Y-86248312D01*
X125581356Y-86199469D01*
X125501262Y-86133738D01*
X125472614Y-86098830D01*
X125455297Y-86081513D01*
X125434923Y-86067900D01*
X125412284Y-86058522D01*
X125388251Y-86053742D01*
X125363747Y-86053742D01*
X125339713Y-86058523D01*
X125317075Y-86067900D01*
X125296700Y-86081514D01*
X125279373Y-86098841D01*
X125265760Y-86119215D01*
X125256382Y-86141854D01*
X125251000Y-86178139D01*
X125251000Y-86261000D01*
X123849000Y-86261000D01*
X123849000Y-85259000D01*
X125251000Y-85259000D01*
X125251000Y-85341861D01*
X125253402Y-85366247D01*
X125260515Y-85389696D01*
X125272066Y-85411307D01*
X125287611Y-85430249D01*
X125306553Y-85445794D01*
X125328164Y-85457345D01*
X125351613Y-85464458D01*
X125375999Y-85466860D01*
X125400385Y-85464458D01*
X125423834Y-85457345D01*
X125445445Y-85445794D01*
X125472617Y-85421167D01*
X125501262Y-85386262D01*
X125581356Y-85320531D01*
X125672735Y-85271688D01*
X125771886Y-85241611D01*
X125849161Y-85234000D01*
X126950839Y-85234000D01*
X127028114Y-85241611D01*
X127028114Y-85241611D01*
G37*
G36*
X152428114Y-85211611D02*
G01*
X152527265Y-85241688D01*
X152618644Y-85290531D01*
X152698738Y-85356262D01*
X152727386Y-85391170D01*
X152744703Y-85408487D01*
X152765077Y-85422100D01*
X152787716Y-85431478D01*
X152811749Y-85436258D01*
X152836253Y-85436258D01*
X152860287Y-85431477D01*
X152882925Y-85422100D01*
X152903300Y-85408486D01*
X152920627Y-85391159D01*
X152934240Y-85370785D01*
X152943618Y-85348146D01*
X152949000Y-85311861D01*
X152949000Y-85229000D01*
X154351000Y-85229000D01*
X154351000Y-86231000D01*
X152949000Y-86231000D01*
X152949000Y-86148139D01*
X152946598Y-86123753D01*
X152939485Y-86100304D01*
X152927934Y-86078693D01*
X152912389Y-86059751D01*
X152893447Y-86044206D01*
X152871836Y-86032655D01*
X152848387Y-86025542D01*
X152824001Y-86023140D01*
X152799615Y-86025542D01*
X152776166Y-86032655D01*
X152754555Y-86044206D01*
X152727383Y-86068833D01*
X152698738Y-86103738D01*
X152618644Y-86169469D01*
X152527265Y-86218312D01*
X152428114Y-86248389D01*
X152350839Y-86256000D01*
X151249161Y-86256000D01*
X151171886Y-86248389D01*
X151072735Y-86218312D01*
X150981356Y-86169469D01*
X150901262Y-86103738D01*
X150835531Y-86023644D01*
X150786688Y-85932265D01*
X150756611Y-85833114D01*
X150746455Y-85730000D01*
X150756611Y-85626886D01*
X150786688Y-85527735D01*
X150835531Y-85436356D01*
X150901262Y-85356262D01*
X150981356Y-85290531D01*
X151072735Y-85241688D01*
X151171886Y-85211611D01*
X151249161Y-85204000D01*
X152350839Y-85204000D01*
X152428114Y-85211611D01*
X152428114Y-85211611D01*
G37*
G36*
X127028114Y-82701611D02*
G01*
X127127265Y-82731688D01*
X127218644Y-82780531D01*
X127298738Y-82846262D01*
X127364469Y-82926356D01*
X127413312Y-83017735D01*
X127443389Y-83116886D01*
X127453545Y-83220000D01*
X127443389Y-83323114D01*
X127413312Y-83422265D01*
X127364469Y-83513644D01*
X127298738Y-83593738D01*
X127218644Y-83659469D01*
X127127265Y-83708312D01*
X127028114Y-83738389D01*
X126950839Y-83746000D01*
X125849161Y-83746000D01*
X125771886Y-83738389D01*
X125672735Y-83708312D01*
X125581356Y-83659469D01*
X125501262Y-83593738D01*
X125472614Y-83558830D01*
X125455297Y-83541513D01*
X125434923Y-83527900D01*
X125412284Y-83518522D01*
X125388251Y-83513742D01*
X125363747Y-83513742D01*
X125339713Y-83518523D01*
X125317075Y-83527900D01*
X125296700Y-83541514D01*
X125279373Y-83558841D01*
X125265760Y-83579215D01*
X125256382Y-83601854D01*
X125251000Y-83638139D01*
X125251000Y-83721000D01*
X123849000Y-83721000D01*
X123849000Y-82719000D01*
X125251000Y-82719000D01*
X125251000Y-82801861D01*
X125253402Y-82826247D01*
X125260515Y-82849696D01*
X125272066Y-82871307D01*
X125287611Y-82890249D01*
X125306553Y-82905794D01*
X125328164Y-82917345D01*
X125351613Y-82924458D01*
X125375999Y-82926860D01*
X125400385Y-82924458D01*
X125423834Y-82917345D01*
X125445445Y-82905794D01*
X125472617Y-82881167D01*
X125501262Y-82846262D01*
X125581356Y-82780531D01*
X125672735Y-82731688D01*
X125771886Y-82701611D01*
X125849161Y-82694000D01*
X126950839Y-82694000D01*
X127028114Y-82701611D01*
X127028114Y-82701611D01*
G37*
G36*
X152428114Y-82671611D02*
G01*
X152527265Y-82701688D01*
X152618644Y-82750531D01*
X152698738Y-82816262D01*
X152727386Y-82851170D01*
X152744703Y-82868487D01*
X152765077Y-82882100D01*
X152787716Y-82891478D01*
X152811749Y-82896258D01*
X152836253Y-82896258D01*
X152860287Y-82891477D01*
X152882925Y-82882100D01*
X152903300Y-82868486D01*
X152920627Y-82851159D01*
X152934240Y-82830785D01*
X152943618Y-82808146D01*
X152949000Y-82771861D01*
X152949000Y-82689000D01*
X154351000Y-82689000D01*
X154351000Y-83691000D01*
X152949000Y-83691000D01*
X152949000Y-83608139D01*
X152946598Y-83583753D01*
X152939485Y-83560304D01*
X152927934Y-83538693D01*
X152912389Y-83519751D01*
X152893447Y-83504206D01*
X152871836Y-83492655D01*
X152848387Y-83485542D01*
X152824001Y-83483140D01*
X152799615Y-83485542D01*
X152776166Y-83492655D01*
X152754555Y-83504206D01*
X152727383Y-83528833D01*
X152698738Y-83563738D01*
X152618644Y-83629469D01*
X152527265Y-83678312D01*
X152428114Y-83708389D01*
X152350839Y-83716000D01*
X151249161Y-83716000D01*
X151171886Y-83708389D01*
X151072735Y-83678312D01*
X150981356Y-83629469D01*
X150901262Y-83563738D01*
X150835531Y-83483644D01*
X150786688Y-83392265D01*
X150756611Y-83293114D01*
X150746455Y-83190000D01*
X150756611Y-83086886D01*
X150786688Y-82987735D01*
X150835531Y-82896356D01*
X150901262Y-82816262D01*
X150981356Y-82750531D01*
X151072735Y-82701688D01*
X151171886Y-82671611D01*
X151249161Y-82664000D01*
X152350839Y-82664000D01*
X152428114Y-82671611D01*
X152428114Y-82671611D01*
G37*
G36*
X127028114Y-80161611D02*
G01*
X127127265Y-80191688D01*
X127218644Y-80240531D01*
X127298738Y-80306262D01*
X127364469Y-80386356D01*
X127413312Y-80477735D01*
X127443389Y-80576886D01*
X127453545Y-80680000D01*
X127443389Y-80783114D01*
X127413312Y-80882265D01*
X127364469Y-80973644D01*
X127298738Y-81053738D01*
X127218644Y-81119469D01*
X127127265Y-81168312D01*
X127028114Y-81198389D01*
X126950839Y-81206000D01*
X125849161Y-81206000D01*
X125771886Y-81198389D01*
X125672735Y-81168312D01*
X125581356Y-81119469D01*
X125501262Y-81053738D01*
X125472614Y-81018830D01*
X125455297Y-81001513D01*
X125434923Y-80987900D01*
X125412284Y-80978522D01*
X125388251Y-80973742D01*
X125363747Y-80973742D01*
X125339713Y-80978523D01*
X125317075Y-80987900D01*
X125296700Y-81001514D01*
X125279373Y-81018841D01*
X125265760Y-81039215D01*
X125256382Y-81061854D01*
X125251000Y-81098139D01*
X125251000Y-81181000D01*
X123849000Y-81181000D01*
X123849000Y-80179000D01*
X125251000Y-80179000D01*
X125251000Y-80261861D01*
X125253402Y-80286247D01*
X125260515Y-80309696D01*
X125272066Y-80331307D01*
X125287611Y-80350249D01*
X125306553Y-80365794D01*
X125328164Y-80377345D01*
X125351613Y-80384458D01*
X125375999Y-80386860D01*
X125400385Y-80384458D01*
X125423834Y-80377345D01*
X125445445Y-80365794D01*
X125472617Y-80341167D01*
X125501262Y-80306262D01*
X125581356Y-80240531D01*
X125672735Y-80191688D01*
X125771886Y-80161611D01*
X125849161Y-80154000D01*
X126950839Y-80154000D01*
X127028114Y-80161611D01*
X127028114Y-80161611D01*
G37*
G36*
X152428114Y-80131611D02*
G01*
X152527265Y-80161688D01*
X152618644Y-80210531D01*
X152698738Y-80276262D01*
X152727386Y-80311170D01*
X152744703Y-80328487D01*
X152765077Y-80342100D01*
X152787716Y-80351478D01*
X152811749Y-80356258D01*
X152836253Y-80356258D01*
X152860287Y-80351477D01*
X152882925Y-80342100D01*
X152903300Y-80328486D01*
X152920627Y-80311159D01*
X152934240Y-80290785D01*
X152943618Y-80268146D01*
X152949000Y-80231861D01*
X152949000Y-80149000D01*
X154351000Y-80149000D01*
X154351000Y-81151000D01*
X152949000Y-81151000D01*
X152949000Y-81068139D01*
X152946598Y-81043753D01*
X152939485Y-81020304D01*
X152927934Y-80998693D01*
X152912389Y-80979751D01*
X152893447Y-80964206D01*
X152871836Y-80952655D01*
X152848387Y-80945542D01*
X152824001Y-80943140D01*
X152799615Y-80945542D01*
X152776166Y-80952655D01*
X152754555Y-80964206D01*
X152727383Y-80988833D01*
X152698738Y-81023738D01*
X152618644Y-81089469D01*
X152527265Y-81138312D01*
X152428114Y-81168389D01*
X152350839Y-81176000D01*
X151249161Y-81176000D01*
X151171886Y-81168389D01*
X151072735Y-81138312D01*
X150981356Y-81089469D01*
X150901262Y-81023738D01*
X150835531Y-80943644D01*
X150786688Y-80852265D01*
X150756611Y-80753114D01*
X150746455Y-80650000D01*
X150756611Y-80546886D01*
X150786688Y-80447735D01*
X150835531Y-80356356D01*
X150901262Y-80276262D01*
X150981356Y-80210531D01*
X151072735Y-80161688D01*
X151171886Y-80131611D01*
X151249161Y-80124000D01*
X152350839Y-80124000D01*
X152428114Y-80131611D01*
X152428114Y-80131611D01*
G37*
G36*
X127028114Y-77621611D02*
G01*
X127127265Y-77651688D01*
X127218644Y-77700531D01*
X127298738Y-77766262D01*
X127364469Y-77846356D01*
X127413312Y-77937735D01*
X127443389Y-78036886D01*
X127453545Y-78140000D01*
X127443389Y-78243114D01*
X127413312Y-78342265D01*
X127364469Y-78433644D01*
X127298738Y-78513738D01*
X127218644Y-78579469D01*
X127127265Y-78628312D01*
X127028114Y-78658389D01*
X126950839Y-78666000D01*
X125849161Y-78666000D01*
X125771886Y-78658389D01*
X125672735Y-78628312D01*
X125581356Y-78579469D01*
X125501262Y-78513738D01*
X125472614Y-78478830D01*
X125455297Y-78461513D01*
X125434923Y-78447900D01*
X125412284Y-78438522D01*
X125388251Y-78433742D01*
X125363747Y-78433742D01*
X125339713Y-78438523D01*
X125317075Y-78447900D01*
X125296700Y-78461514D01*
X125279373Y-78478841D01*
X125265760Y-78499215D01*
X125256382Y-78521854D01*
X125251000Y-78558139D01*
X125251000Y-78641000D01*
X123849000Y-78641000D01*
X123849000Y-77639000D01*
X125251000Y-77639000D01*
X125251000Y-77721861D01*
X125253402Y-77746247D01*
X125260515Y-77769696D01*
X125272066Y-77791307D01*
X125287611Y-77810249D01*
X125306553Y-77825794D01*
X125328164Y-77837345D01*
X125351613Y-77844458D01*
X125375999Y-77846860D01*
X125400385Y-77844458D01*
X125423834Y-77837345D01*
X125445445Y-77825794D01*
X125472617Y-77801167D01*
X125501262Y-77766262D01*
X125581356Y-77700531D01*
X125672735Y-77651688D01*
X125771886Y-77621611D01*
X125849161Y-77614000D01*
X126950839Y-77614000D01*
X127028114Y-77621611D01*
X127028114Y-77621611D01*
G37*
G36*
X152428114Y-77591611D02*
G01*
X152527265Y-77621688D01*
X152618644Y-77670531D01*
X152698738Y-77736262D01*
X152727386Y-77771170D01*
X152744703Y-77788487D01*
X152765077Y-77802100D01*
X152787716Y-77811478D01*
X152811749Y-77816258D01*
X152836253Y-77816258D01*
X152860287Y-77811477D01*
X152882925Y-77802100D01*
X152903300Y-77788486D01*
X152920627Y-77771159D01*
X152934240Y-77750785D01*
X152943618Y-77728146D01*
X152949000Y-77691861D01*
X152949000Y-77609000D01*
X154351000Y-77609000D01*
X154351000Y-78611000D01*
X152949000Y-78611000D01*
X152949000Y-78528139D01*
X152946598Y-78503753D01*
X152939485Y-78480304D01*
X152927934Y-78458693D01*
X152912389Y-78439751D01*
X152893447Y-78424206D01*
X152871836Y-78412655D01*
X152848387Y-78405542D01*
X152824001Y-78403140D01*
X152799615Y-78405542D01*
X152776166Y-78412655D01*
X152754555Y-78424206D01*
X152727383Y-78448833D01*
X152698738Y-78483738D01*
X152618644Y-78549469D01*
X152527265Y-78598312D01*
X152428114Y-78628389D01*
X152350839Y-78636000D01*
X151249161Y-78636000D01*
X151171886Y-78628389D01*
X151072735Y-78598312D01*
X150981356Y-78549469D01*
X150901262Y-78483738D01*
X150835531Y-78403644D01*
X150786688Y-78312265D01*
X150756611Y-78213114D01*
X150746455Y-78110000D01*
X150756611Y-78006886D01*
X150786688Y-77907735D01*
X150835531Y-77816356D01*
X150901262Y-77736262D01*
X150981356Y-77670531D01*
X151072735Y-77621688D01*
X151171886Y-77591611D01*
X151249161Y-77584000D01*
X152350839Y-77584000D01*
X152428114Y-77591611D01*
X152428114Y-77591611D01*
G37*
G36*
X127028114Y-75081611D02*
G01*
X127127265Y-75111688D01*
X127218644Y-75160531D01*
X127298738Y-75226262D01*
X127364469Y-75306356D01*
X127413312Y-75397735D01*
X127443389Y-75496886D01*
X127453545Y-75600000D01*
X127443389Y-75703114D01*
X127413312Y-75802265D01*
X127364469Y-75893644D01*
X127298738Y-75973738D01*
X127218644Y-76039469D01*
X127127265Y-76088312D01*
X127028114Y-76118389D01*
X126950839Y-76126000D01*
X125849161Y-76126000D01*
X125771886Y-76118389D01*
X125672735Y-76088312D01*
X125581356Y-76039469D01*
X125501262Y-75973738D01*
X125472614Y-75938830D01*
X125455297Y-75921513D01*
X125434923Y-75907900D01*
X125412284Y-75898522D01*
X125388251Y-75893742D01*
X125363747Y-75893742D01*
X125339713Y-75898523D01*
X125317075Y-75907900D01*
X125296700Y-75921514D01*
X125279373Y-75938841D01*
X125265760Y-75959215D01*
X125256382Y-75981854D01*
X125251000Y-76018139D01*
X125251000Y-76101000D01*
X123849000Y-76101000D01*
X123849000Y-75099000D01*
X125251000Y-75099000D01*
X125251000Y-75181861D01*
X125253402Y-75206247D01*
X125260515Y-75229696D01*
X125272066Y-75251307D01*
X125287611Y-75270249D01*
X125306553Y-75285794D01*
X125328164Y-75297345D01*
X125351613Y-75304458D01*
X125375999Y-75306860D01*
X125400385Y-75304458D01*
X125423834Y-75297345D01*
X125445445Y-75285794D01*
X125472617Y-75261167D01*
X125501262Y-75226262D01*
X125581356Y-75160531D01*
X125672735Y-75111688D01*
X125771886Y-75081611D01*
X125849161Y-75074000D01*
X126950839Y-75074000D01*
X127028114Y-75081611D01*
X127028114Y-75081611D01*
G37*
G36*
X152428114Y-75051611D02*
G01*
X152527265Y-75081688D01*
X152618644Y-75130531D01*
X152698738Y-75196262D01*
X152727386Y-75231170D01*
X152744703Y-75248487D01*
X152765077Y-75262100D01*
X152787716Y-75271478D01*
X152811749Y-75276258D01*
X152836253Y-75276258D01*
X152860287Y-75271477D01*
X152882925Y-75262100D01*
X152903300Y-75248486D01*
X152920627Y-75231159D01*
X152934240Y-75210785D01*
X152943618Y-75188146D01*
X152949000Y-75151861D01*
X152949000Y-75069000D01*
X154351000Y-75069000D01*
X154351000Y-76071000D01*
X152949000Y-76071000D01*
X152949000Y-75988139D01*
X152946598Y-75963753D01*
X152939485Y-75940304D01*
X152927934Y-75918693D01*
X152912389Y-75899751D01*
X152893447Y-75884206D01*
X152871836Y-75872655D01*
X152848387Y-75865542D01*
X152824001Y-75863140D01*
X152799615Y-75865542D01*
X152776166Y-75872655D01*
X152754555Y-75884206D01*
X152727383Y-75908833D01*
X152698738Y-75943738D01*
X152618644Y-76009469D01*
X152527265Y-76058312D01*
X152428114Y-76088389D01*
X152350839Y-76096000D01*
X151249161Y-76096000D01*
X151171886Y-76088389D01*
X151072735Y-76058312D01*
X150981356Y-76009469D01*
X150901262Y-75943738D01*
X150835531Y-75863644D01*
X150786688Y-75772265D01*
X150756611Y-75673114D01*
X150746455Y-75570000D01*
X150756611Y-75466886D01*
X150786688Y-75367735D01*
X150835531Y-75276356D01*
X150901262Y-75196262D01*
X150981356Y-75130531D01*
X151072735Y-75081688D01*
X151171886Y-75051611D01*
X151249161Y-75044000D01*
X152350839Y-75044000D01*
X152428114Y-75051611D01*
X152428114Y-75051611D01*
G37*
G36*
X127028114Y-72541611D02*
G01*
X127127265Y-72571688D01*
X127218644Y-72620531D01*
X127298738Y-72686262D01*
X127364469Y-72766356D01*
X127413312Y-72857735D01*
X127443389Y-72956886D01*
X127453545Y-73060000D01*
X127443389Y-73163114D01*
X127413312Y-73262265D01*
X127364469Y-73353644D01*
X127298738Y-73433738D01*
X127218644Y-73499469D01*
X127127265Y-73548312D01*
X127028114Y-73578389D01*
X126950839Y-73586000D01*
X125849161Y-73586000D01*
X125771886Y-73578389D01*
X125672735Y-73548312D01*
X125581356Y-73499469D01*
X125501262Y-73433738D01*
X125472614Y-73398830D01*
X125455297Y-73381513D01*
X125434923Y-73367900D01*
X125412284Y-73358522D01*
X125388251Y-73353742D01*
X125363747Y-73353742D01*
X125339713Y-73358523D01*
X125317075Y-73367900D01*
X125296700Y-73381514D01*
X125279373Y-73398841D01*
X125265760Y-73419215D01*
X125256382Y-73441854D01*
X125251000Y-73478139D01*
X125251000Y-73561000D01*
X123849000Y-73561000D01*
X123849000Y-72559000D01*
X125251000Y-72559000D01*
X125251000Y-72641861D01*
X125253402Y-72666247D01*
X125260515Y-72689696D01*
X125272066Y-72711307D01*
X125287611Y-72730249D01*
X125306553Y-72745794D01*
X125328164Y-72757345D01*
X125351613Y-72764458D01*
X125375999Y-72766860D01*
X125400385Y-72764458D01*
X125423834Y-72757345D01*
X125445445Y-72745794D01*
X125472617Y-72721167D01*
X125501262Y-72686262D01*
X125581356Y-72620531D01*
X125672735Y-72571688D01*
X125771886Y-72541611D01*
X125849161Y-72534000D01*
X126950839Y-72534000D01*
X127028114Y-72541611D01*
X127028114Y-72541611D01*
G37*
G36*
X152428114Y-72511611D02*
G01*
X152527265Y-72541688D01*
X152618644Y-72590531D01*
X152698738Y-72656262D01*
X152727386Y-72691170D01*
X152744703Y-72708487D01*
X152765077Y-72722100D01*
X152787716Y-72731478D01*
X152811749Y-72736258D01*
X152836253Y-72736258D01*
X152860287Y-72731477D01*
X152882925Y-72722100D01*
X152903300Y-72708486D01*
X152920627Y-72691159D01*
X152934240Y-72670785D01*
X152943618Y-72648146D01*
X152949000Y-72611861D01*
X152949000Y-72529000D01*
X154351000Y-72529000D01*
X154351000Y-73531000D01*
X152949000Y-73531000D01*
X152949000Y-73448139D01*
X152946598Y-73423753D01*
X152939485Y-73400304D01*
X152927934Y-73378693D01*
X152912389Y-73359751D01*
X152893447Y-73344206D01*
X152871836Y-73332655D01*
X152848387Y-73325542D01*
X152824001Y-73323140D01*
X152799615Y-73325542D01*
X152776166Y-73332655D01*
X152754555Y-73344206D01*
X152727383Y-73368833D01*
X152698738Y-73403738D01*
X152618644Y-73469469D01*
X152527265Y-73518312D01*
X152428114Y-73548389D01*
X152350839Y-73556000D01*
X151249161Y-73556000D01*
X151171886Y-73548389D01*
X151072735Y-73518312D01*
X150981356Y-73469469D01*
X150901262Y-73403738D01*
X150835531Y-73323644D01*
X150786688Y-73232265D01*
X150756611Y-73133114D01*
X150746455Y-73030000D01*
X150756611Y-72926886D01*
X150786688Y-72827735D01*
X150835531Y-72736356D01*
X150901262Y-72656262D01*
X150981356Y-72590531D01*
X151072735Y-72541688D01*
X151171886Y-72511611D01*
X151249161Y-72504000D01*
X152350839Y-72504000D01*
X152428114Y-72511611D01*
X152428114Y-72511611D01*
G37*
G36*
X171192802Y-67876886D02*
G01*
X171371579Y-67912447D01*
X171672042Y-68036903D01*
X171942451Y-68217585D01*
X172172415Y-68447549D01*
X172353097Y-68717958D01*
X172477553Y-69018421D01*
X172541000Y-69337391D01*
X172541000Y-69662609D01*
X172477553Y-69981579D01*
X172353097Y-70282042D01*
X172172415Y-70552451D01*
X171942451Y-70782415D01*
X171672042Y-70963097D01*
X171371579Y-71087553D01*
X171265256Y-71108702D01*
X171052611Y-71151000D01*
X170727389Y-71151000D01*
X170514744Y-71108702D01*
X170408421Y-71087553D01*
X170107958Y-70963097D01*
X169837549Y-70782415D01*
X169607585Y-70552451D01*
X169426903Y-70282042D01*
X169302447Y-69981579D01*
X169239000Y-69662609D01*
X169239000Y-69337391D01*
X169302447Y-69018421D01*
X169426903Y-68717958D01*
X169607585Y-68447549D01*
X169837549Y-68217585D01*
X170107958Y-68036903D01*
X170408421Y-67912447D01*
X170587198Y-67876886D01*
X170727389Y-67849000D01*
X171052611Y-67849000D01*
X171192802Y-67876886D01*
X171192802Y-67876886D01*
G37*
G36*
X118192802Y-67876886D02*
G01*
X118371579Y-67912447D01*
X118672042Y-68036903D01*
X118942451Y-68217585D01*
X119172415Y-68447549D01*
X119353097Y-68717958D01*
X119477553Y-69018421D01*
X119541000Y-69337391D01*
X119541000Y-69662609D01*
X119477553Y-69981579D01*
X119353097Y-70282042D01*
X119172415Y-70552451D01*
X118942451Y-70782415D01*
X118672042Y-70963097D01*
X118371579Y-71087553D01*
X118265256Y-71108702D01*
X118052611Y-71151000D01*
X117727389Y-71151000D01*
X117514744Y-71108702D01*
X117408421Y-71087553D01*
X117107958Y-70963097D01*
X116837549Y-70782415D01*
X116607585Y-70552451D01*
X116426903Y-70282042D01*
X116302447Y-69981579D01*
X116239000Y-69662609D01*
X116239000Y-69337391D01*
X116302447Y-69018421D01*
X116426903Y-68717958D01*
X116607585Y-68447549D01*
X116837549Y-68217585D01*
X117107958Y-68036903D01*
X117408421Y-67912447D01*
X117587198Y-67876886D01*
X117727389Y-67849000D01*
X118052611Y-67849000D01*
X118192802Y-67876886D01*
X118192802Y-67876886D01*
G37*
G36*
X127028114Y-70001611D02*
G01*
X127127265Y-70031688D01*
X127218644Y-70080531D01*
X127298738Y-70146262D01*
X127364469Y-70226356D01*
X127413312Y-70317735D01*
X127443389Y-70416886D01*
X127453545Y-70520000D01*
X127443389Y-70623114D01*
X127413312Y-70722265D01*
X127364469Y-70813644D01*
X127298738Y-70893738D01*
X127218644Y-70959469D01*
X127127265Y-71008312D01*
X127028114Y-71038389D01*
X126950839Y-71046000D01*
X125849161Y-71046000D01*
X125771886Y-71038389D01*
X125672735Y-71008312D01*
X125581356Y-70959469D01*
X125501262Y-70893738D01*
X125472614Y-70858830D01*
X125455297Y-70841513D01*
X125434923Y-70827900D01*
X125412284Y-70818522D01*
X125388251Y-70813742D01*
X125363747Y-70813742D01*
X125339713Y-70818523D01*
X125317075Y-70827900D01*
X125296700Y-70841514D01*
X125279373Y-70858841D01*
X125265760Y-70879215D01*
X125256382Y-70901854D01*
X125251000Y-70938139D01*
X125251000Y-71021000D01*
X123849000Y-71021000D01*
X123849000Y-70019000D01*
X125251000Y-70019000D01*
X125251000Y-70101861D01*
X125253402Y-70126247D01*
X125260515Y-70149696D01*
X125272066Y-70171307D01*
X125287611Y-70190249D01*
X125306553Y-70205794D01*
X125328164Y-70217345D01*
X125351613Y-70224458D01*
X125375999Y-70226860D01*
X125400385Y-70224458D01*
X125423834Y-70217345D01*
X125445445Y-70205794D01*
X125472617Y-70181167D01*
X125501262Y-70146262D01*
X125581356Y-70080531D01*
X125672735Y-70031688D01*
X125771886Y-70001611D01*
X125849161Y-69994000D01*
X126950839Y-69994000D01*
X127028114Y-70001611D01*
X127028114Y-70001611D01*
G37*
G36*
X152428114Y-69971611D02*
G01*
X152527265Y-70001688D01*
X152618644Y-70050531D01*
X152698738Y-70116262D01*
X152727386Y-70151170D01*
X152744703Y-70168487D01*
X152765077Y-70182100D01*
X152787716Y-70191478D01*
X152811749Y-70196258D01*
X152836253Y-70196258D01*
X152860287Y-70191477D01*
X152882925Y-70182100D01*
X152903300Y-70168486D01*
X152920627Y-70151159D01*
X152934240Y-70130785D01*
X152943618Y-70108146D01*
X152949000Y-70071861D01*
X152949000Y-69989000D01*
X154351000Y-69989000D01*
X154351000Y-70991000D01*
X152949000Y-70991000D01*
X152949000Y-70908139D01*
X152946598Y-70883753D01*
X152939485Y-70860304D01*
X152927934Y-70838693D01*
X152912389Y-70819751D01*
X152893447Y-70804206D01*
X152871836Y-70792655D01*
X152848387Y-70785542D01*
X152824001Y-70783140D01*
X152799615Y-70785542D01*
X152776166Y-70792655D01*
X152754555Y-70804206D01*
X152727383Y-70828833D01*
X152698738Y-70863738D01*
X152618644Y-70929469D01*
X152527265Y-70978312D01*
X152428114Y-71008389D01*
X152350839Y-71016000D01*
X151249161Y-71016000D01*
X151171886Y-71008389D01*
X151072735Y-70978312D01*
X150981356Y-70929469D01*
X150901262Y-70863738D01*
X150835531Y-70783644D01*
X150786688Y-70692265D01*
X150756611Y-70593114D01*
X150746455Y-70490000D01*
X150756611Y-70386886D01*
X150786688Y-70287735D01*
X150835531Y-70196356D01*
X150901262Y-70116262D01*
X150981356Y-70050531D01*
X151072735Y-70001688D01*
X151171886Y-69971611D01*
X151249161Y-69964000D01*
X152350839Y-69964000D01*
X152428114Y-69971611D01*
X152428114Y-69971611D01*
G37*
G36*
X127028114Y-67461611D02*
G01*
X127127265Y-67491688D01*
X127218644Y-67540531D01*
X127298738Y-67606262D01*
X127364469Y-67686356D01*
X127413312Y-67777735D01*
X127443389Y-67876886D01*
X127453545Y-67980000D01*
X127443389Y-68083114D01*
X127413312Y-68182265D01*
X127364469Y-68273644D01*
X127298738Y-68353738D01*
X127218644Y-68419469D01*
X127127265Y-68468312D01*
X127028114Y-68498389D01*
X126950839Y-68506000D01*
X125849161Y-68506000D01*
X125771886Y-68498389D01*
X125672735Y-68468312D01*
X125581356Y-68419469D01*
X125501262Y-68353738D01*
X125472614Y-68318830D01*
X125455297Y-68301513D01*
X125434923Y-68287900D01*
X125412284Y-68278522D01*
X125388251Y-68273742D01*
X125363747Y-68273742D01*
X125339713Y-68278523D01*
X125317075Y-68287900D01*
X125296700Y-68301514D01*
X125279373Y-68318841D01*
X125265760Y-68339215D01*
X125256382Y-68361854D01*
X125251000Y-68398139D01*
X125251000Y-68481000D01*
X123849000Y-68481000D01*
X123849000Y-67479000D01*
X125251000Y-67479000D01*
X125251000Y-67561861D01*
X125253402Y-67586247D01*
X125260515Y-67609696D01*
X125272066Y-67631307D01*
X125287611Y-67650249D01*
X125306553Y-67665794D01*
X125328164Y-67677345D01*
X125351613Y-67684458D01*
X125375999Y-67686860D01*
X125400385Y-67684458D01*
X125423834Y-67677345D01*
X125445445Y-67665794D01*
X125472617Y-67641167D01*
X125501262Y-67606262D01*
X125581356Y-67540531D01*
X125672735Y-67491688D01*
X125771886Y-67461611D01*
X125849161Y-67454000D01*
X126950839Y-67454000D01*
X127028114Y-67461611D01*
X127028114Y-67461611D01*
G37*
G36*
X152428114Y-67431611D02*
G01*
X152527265Y-67461688D01*
X152618644Y-67510531D01*
X152698738Y-67576262D01*
X152727386Y-67611170D01*
X152744703Y-67628487D01*
X152765077Y-67642100D01*
X152787716Y-67651478D01*
X152811749Y-67656258D01*
X152836253Y-67656258D01*
X152860287Y-67651477D01*
X152882925Y-67642100D01*
X152903300Y-67628486D01*
X152920627Y-67611159D01*
X152934240Y-67590785D01*
X152943618Y-67568146D01*
X152949000Y-67531861D01*
X152949000Y-67449000D01*
X154351000Y-67449000D01*
X154351000Y-68451000D01*
X152949000Y-68451000D01*
X152949000Y-68368139D01*
X152946598Y-68343753D01*
X152939485Y-68320304D01*
X152927934Y-68298693D01*
X152912389Y-68279751D01*
X152893447Y-68264206D01*
X152871836Y-68252655D01*
X152848387Y-68245542D01*
X152824001Y-68243140D01*
X152799615Y-68245542D01*
X152776166Y-68252655D01*
X152754555Y-68264206D01*
X152727383Y-68288833D01*
X152698738Y-68323738D01*
X152618644Y-68389469D01*
X152527265Y-68438312D01*
X152428114Y-68468389D01*
X152350839Y-68476000D01*
X151249161Y-68476000D01*
X151171886Y-68468389D01*
X151072735Y-68438312D01*
X150981356Y-68389469D01*
X150901262Y-68323738D01*
X150835531Y-68243644D01*
X150786688Y-68152265D01*
X150756611Y-68053114D01*
X150746455Y-67950000D01*
X150756611Y-67846886D01*
X150786688Y-67747735D01*
X150835531Y-67656356D01*
X150901262Y-67576262D01*
X150981356Y-67510531D01*
X151072735Y-67461688D01*
X151171886Y-67431611D01*
X151249161Y-67424000D01*
X152350839Y-67424000D01*
X152428114Y-67431611D01*
X152428114Y-67431611D01*
G37*
G36*
X127028114Y-64921611D02*
G01*
X127127265Y-64951688D01*
X127218644Y-65000531D01*
X127298738Y-65066262D01*
X127364469Y-65146356D01*
X127413312Y-65237735D01*
X127443389Y-65336886D01*
X127453545Y-65440000D01*
X127443389Y-65543114D01*
X127413312Y-65642265D01*
X127364469Y-65733644D01*
X127298738Y-65813738D01*
X127218644Y-65879469D01*
X127127265Y-65928312D01*
X127028114Y-65958389D01*
X126950839Y-65966000D01*
X125849161Y-65966000D01*
X125771886Y-65958389D01*
X125672735Y-65928312D01*
X125581356Y-65879469D01*
X125501262Y-65813738D01*
X125472614Y-65778830D01*
X125455297Y-65761513D01*
X125434923Y-65747900D01*
X125412284Y-65738522D01*
X125388251Y-65733742D01*
X125363747Y-65733742D01*
X125339713Y-65738523D01*
X125317075Y-65747900D01*
X125296700Y-65761514D01*
X125279373Y-65778841D01*
X125265760Y-65799215D01*
X125256382Y-65821854D01*
X125251000Y-65858139D01*
X125251000Y-65941000D01*
X123849000Y-65941000D01*
X123849000Y-64939000D01*
X125251000Y-64939000D01*
X125251000Y-65021861D01*
X125253402Y-65046247D01*
X125260515Y-65069696D01*
X125272066Y-65091307D01*
X125287611Y-65110249D01*
X125306553Y-65125794D01*
X125328164Y-65137345D01*
X125351613Y-65144458D01*
X125375999Y-65146860D01*
X125400385Y-65144458D01*
X125423834Y-65137345D01*
X125445445Y-65125794D01*
X125472617Y-65101167D01*
X125501262Y-65066262D01*
X125581356Y-65000531D01*
X125672735Y-64951688D01*
X125771886Y-64921611D01*
X125849161Y-64914000D01*
X126950839Y-64914000D01*
X127028114Y-64921611D01*
X127028114Y-64921611D01*
G37*
G36*
X152428114Y-64891611D02*
G01*
X152527265Y-64921688D01*
X152618644Y-64970531D01*
X152698738Y-65036262D01*
X152727386Y-65071170D01*
X152744703Y-65088487D01*
X152765077Y-65102100D01*
X152787716Y-65111478D01*
X152811749Y-65116258D01*
X152836253Y-65116258D01*
X152860287Y-65111477D01*
X152882925Y-65102100D01*
X152903300Y-65088486D01*
X152920627Y-65071159D01*
X152934240Y-65050785D01*
X152943618Y-65028146D01*
X152949000Y-64991861D01*
X152949000Y-64909000D01*
X154351000Y-64909000D01*
X154351000Y-65911000D01*
X152949000Y-65911000D01*
X152949000Y-65828139D01*
X152946598Y-65803753D01*
X152939485Y-65780304D01*
X152927934Y-65758693D01*
X152912389Y-65739751D01*
X152893447Y-65724206D01*
X152871836Y-65712655D01*
X152848387Y-65705542D01*
X152824001Y-65703140D01*
X152799615Y-65705542D01*
X152776166Y-65712655D01*
X152754555Y-65724206D01*
X152727383Y-65748833D01*
X152698738Y-65783738D01*
X152618644Y-65849469D01*
X152527265Y-65898312D01*
X152428114Y-65928389D01*
X152350839Y-65936000D01*
X151249161Y-65936000D01*
X151171886Y-65928389D01*
X151072735Y-65898312D01*
X150981356Y-65849469D01*
X150901262Y-65783738D01*
X150835531Y-65703644D01*
X150786688Y-65612265D01*
X150756611Y-65513114D01*
X150746455Y-65410000D01*
X150756611Y-65306886D01*
X150786688Y-65207735D01*
X150835531Y-65116356D01*
X150901262Y-65036262D01*
X150981356Y-64970531D01*
X151072735Y-64921688D01*
X151171886Y-64891611D01*
X151249161Y-64884000D01*
X152350839Y-64884000D01*
X152428114Y-64891611D01*
X152428114Y-64891611D01*
G37*
G36*
X127028114Y-62381611D02*
G01*
X127127265Y-62411688D01*
X127218644Y-62460531D01*
X127298738Y-62526262D01*
X127364469Y-62606356D01*
X127413312Y-62697735D01*
X127443389Y-62796886D01*
X127453545Y-62900000D01*
X127443389Y-63003114D01*
X127413312Y-63102265D01*
X127364469Y-63193644D01*
X127298738Y-63273738D01*
X127218644Y-63339469D01*
X127127265Y-63388312D01*
X127028114Y-63418389D01*
X126950839Y-63426000D01*
X125849161Y-63426000D01*
X125771886Y-63418389D01*
X125672735Y-63388312D01*
X125581356Y-63339469D01*
X125501262Y-63273738D01*
X125472614Y-63238830D01*
X125455297Y-63221513D01*
X125434923Y-63207900D01*
X125412284Y-63198522D01*
X125388251Y-63193742D01*
X125363747Y-63193742D01*
X125339713Y-63198523D01*
X125317075Y-63207900D01*
X125296700Y-63221514D01*
X125279373Y-63238841D01*
X125265760Y-63259215D01*
X125256382Y-63281854D01*
X125251000Y-63318139D01*
X125251000Y-63401000D01*
X123849000Y-63401000D01*
X123849000Y-62399000D01*
X125251000Y-62399000D01*
X125251000Y-62481861D01*
X125253402Y-62506247D01*
X125260515Y-62529696D01*
X125272066Y-62551307D01*
X125287611Y-62570249D01*
X125306553Y-62585794D01*
X125328164Y-62597345D01*
X125351613Y-62604458D01*
X125375999Y-62606860D01*
X125400385Y-62604458D01*
X125423834Y-62597345D01*
X125445445Y-62585794D01*
X125472617Y-62561167D01*
X125501262Y-62526262D01*
X125581356Y-62460531D01*
X125672735Y-62411688D01*
X125771886Y-62381611D01*
X125849161Y-62374000D01*
X126950839Y-62374000D01*
X127028114Y-62381611D01*
X127028114Y-62381611D01*
G37*
G36*
X152428114Y-62351611D02*
G01*
X152527265Y-62381688D01*
X152618644Y-62430531D01*
X152698738Y-62496262D01*
X152727386Y-62531170D01*
X152744703Y-62548487D01*
X152765077Y-62562100D01*
X152787716Y-62571478D01*
X152811749Y-62576258D01*
X152836253Y-62576258D01*
X152860287Y-62571477D01*
X152882925Y-62562100D01*
X152903300Y-62548486D01*
X152920627Y-62531159D01*
X152934240Y-62510785D01*
X152943618Y-62488146D01*
X152949000Y-62451861D01*
X152949000Y-62369000D01*
X154351000Y-62369000D01*
X154351000Y-63371000D01*
X152949000Y-63371000D01*
X152949000Y-63288139D01*
X152946598Y-63263753D01*
X152939485Y-63240304D01*
X152927934Y-63218693D01*
X152912389Y-63199751D01*
X152893447Y-63184206D01*
X152871836Y-63172655D01*
X152848387Y-63165542D01*
X152824001Y-63163140D01*
X152799615Y-63165542D01*
X152776166Y-63172655D01*
X152754555Y-63184206D01*
X152727383Y-63208833D01*
X152698738Y-63243738D01*
X152618644Y-63309469D01*
X152527265Y-63358312D01*
X152428114Y-63388389D01*
X152350839Y-63396000D01*
X151249161Y-63396000D01*
X151171886Y-63388389D01*
X151072735Y-63358312D01*
X150981356Y-63309469D01*
X150901262Y-63243738D01*
X150835531Y-63163644D01*
X150786688Y-63072265D01*
X150756611Y-62973114D01*
X150746455Y-62870000D01*
X150756611Y-62766886D01*
X150786688Y-62667735D01*
X150835531Y-62576356D01*
X150901262Y-62496262D01*
X150981356Y-62430531D01*
X151072735Y-62381688D01*
X151171886Y-62351611D01*
X151249161Y-62344000D01*
X152350839Y-62344000D01*
X152428114Y-62351611D01*
X152428114Y-62351611D01*
G37*
M02*
