G04 #@! TF.GenerationSoftware,KiCad,Pcbnew,(5.1.2-1)-1*
G04 #@! TF.CreationDate,2023-02-14T15:56:59+00:00*
G04 #@! TF.ProjectId,WT32-ETH01 Programmer,57543332-2d45-4544-9830-312050726f67,rev?*
G04 #@! TF.SameCoordinates,Original*
G04 #@! TF.FileFunction,Copper,L2,Bot*
G04 #@! TF.FilePolarity,Positive*
%FSLAX46Y46*%
G04 Gerber Fmt 4.6, Leading zero omitted, Abs format (unit mm)*
G04 Created by KiCad (PCBNEW (5.1.2-1)-1) date 2023-02-14 15:56:59*
%MOMM*%
%LPD*%
G04 APERTURE LIST*
%ADD10R,1.700000X1.700000*%
%ADD11O,1.700000X1.700000*%
%ADD12R,1.300000X0.900000*%
%ADD13O,2.000000X0.950000*%
%ADD14C,2.000000*%
%ADD15C,0.254000*%
G04 APERTURE END LIST*
D10*
X163850000Y-105000000D03*
D11*
X161310000Y-105000000D03*
X158770000Y-105000000D03*
X156230000Y-105000000D03*
D12*
X124550000Y-62900000D03*
D13*
X126400000Y-62900000D03*
D12*
X124550000Y-65440000D03*
D13*
X126400000Y-65440000D03*
D12*
X124550000Y-67980000D03*
D13*
X126400000Y-67980000D03*
D12*
X124550000Y-70520000D03*
D13*
X126400000Y-70520000D03*
D12*
X124550000Y-73060000D03*
D13*
X126400000Y-73060000D03*
D12*
X124550000Y-75600000D03*
D13*
X126400000Y-75600000D03*
D12*
X124550000Y-78140000D03*
D13*
X126400000Y-78140000D03*
D12*
X124550000Y-80680000D03*
D13*
X126400000Y-80680000D03*
D12*
X124550000Y-83220000D03*
D13*
X126400000Y-83220000D03*
D12*
X124550000Y-85760000D03*
D13*
X126400000Y-85760000D03*
D12*
X124550000Y-88300000D03*
D13*
X126400000Y-88300000D03*
D12*
X124550000Y-90840000D03*
D13*
X126400000Y-90840000D03*
D12*
X124550000Y-93380000D03*
D13*
X126400000Y-93380000D03*
X151800000Y-62870000D03*
D12*
X153650000Y-62870000D03*
D13*
X151800000Y-65410000D03*
D12*
X153650000Y-65410000D03*
D13*
X151800000Y-67950000D03*
D12*
X153650000Y-67950000D03*
D13*
X151800000Y-70490000D03*
D12*
X153650000Y-70490000D03*
D13*
X151800000Y-73030000D03*
D12*
X153650000Y-73030000D03*
D13*
X151800000Y-75570000D03*
D12*
X153650000Y-75570000D03*
D13*
X151800000Y-78110000D03*
D12*
X153650000Y-78110000D03*
D13*
X151800000Y-80650000D03*
D12*
X153650000Y-80650000D03*
D13*
X151800000Y-83190000D03*
D12*
X153650000Y-83190000D03*
D13*
X151800000Y-85730000D03*
D12*
X153650000Y-85730000D03*
D13*
X151800000Y-88270000D03*
D12*
X153650000Y-88270000D03*
D13*
X151800000Y-90810000D03*
D12*
X153650000Y-90810000D03*
D13*
X151800000Y-93350000D03*
D12*
X153650000Y-93350000D03*
D14*
X162500000Y-98000000D03*
X158000000Y-98000000D03*
X162500000Y-91500000D03*
X158000000Y-91500000D03*
D15*
G36*
X175340000Y-60673000D02*
G01*
X165900000Y-60673000D01*
X165875224Y-60675440D01*
X165851399Y-60682667D01*
X165829443Y-60694403D01*
X165810197Y-60710197D01*
X165794403Y-60729443D01*
X165782667Y-60751399D01*
X165775440Y-60775224D01*
X165773000Y-60800000D01*
X165773000Y-103200000D01*
X165775440Y-103224776D01*
X165782667Y-103248601D01*
X165794403Y-103270557D01*
X165810197Y-103289803D01*
X165829443Y-103305597D01*
X165851399Y-103317333D01*
X165875224Y-103324560D01*
X165900000Y-103327000D01*
X175340001Y-103327000D01*
X175340001Y-117340000D01*
X113660000Y-117340000D01*
X113660000Y-103333674D01*
X122898717Y-103426994D01*
X122924776Y-103424560D01*
X122948601Y-103417333D01*
X122970557Y-103405597D01*
X122989803Y-103389803D01*
X123005597Y-103370557D01*
X123017333Y-103348601D01*
X123024560Y-103324776D01*
X123027000Y-103300000D01*
X123027000Y-92930000D01*
X123261928Y-92930000D01*
X123261928Y-93830000D01*
X123274188Y-93954482D01*
X123310498Y-94074180D01*
X123369463Y-94184494D01*
X123448815Y-94281185D01*
X123545506Y-94360537D01*
X123655820Y-94419502D01*
X123775518Y-94455812D01*
X123900000Y-94468072D01*
X125200000Y-94468072D01*
X125324482Y-94455812D01*
X125444180Y-94419502D01*
X125456405Y-94412967D01*
X125657402Y-94473938D01*
X125820479Y-94490000D01*
X126979521Y-94490000D01*
X127142598Y-94473938D01*
X127351834Y-94410468D01*
X127544666Y-94307396D01*
X127713686Y-94168686D01*
X127852396Y-93999666D01*
X127955468Y-93806834D01*
X128018938Y-93597598D01*
X128040370Y-93380000D01*
X128018938Y-93162402D01*
X128000009Y-93100000D01*
X128336807Y-93100000D01*
X128340001Y-93132429D01*
X128340000Y-110067581D01*
X128336807Y-110100000D01*
X128349550Y-110229383D01*
X128387290Y-110353793D01*
X128448575Y-110468450D01*
X128531052Y-110568948D01*
X128631550Y-110651425D01*
X128746207Y-110712710D01*
X128870617Y-110750450D01*
X129000000Y-110763193D01*
X129032419Y-110760000D01*
X149217581Y-110760000D01*
X149250000Y-110763193D01*
X149282419Y-110760000D01*
X149379383Y-110750450D01*
X149503793Y-110712710D01*
X149618450Y-110651425D01*
X149718948Y-110568948D01*
X149801425Y-110468450D01*
X149862710Y-110353793D01*
X149900450Y-110229383D01*
X149913193Y-110100000D01*
X149910000Y-110067581D01*
X149910000Y-105000000D01*
X154737815Y-105000000D01*
X154766487Y-105291111D01*
X154851401Y-105571034D01*
X154989294Y-105829014D01*
X155174866Y-106055134D01*
X155400986Y-106240706D01*
X155658966Y-106378599D01*
X155938889Y-106463513D01*
X156157050Y-106485000D01*
X156302950Y-106485000D01*
X156521111Y-106463513D01*
X156801034Y-106378599D01*
X157059014Y-106240706D01*
X157285134Y-106055134D01*
X157470706Y-105829014D01*
X157500000Y-105774209D01*
X157529294Y-105829014D01*
X157714866Y-106055134D01*
X157940986Y-106240706D01*
X158198966Y-106378599D01*
X158478889Y-106463513D01*
X158697050Y-106485000D01*
X158842950Y-106485000D01*
X159061111Y-106463513D01*
X159341034Y-106378599D01*
X159599014Y-106240706D01*
X159825134Y-106055134D01*
X160010706Y-105829014D01*
X160045201Y-105764477D01*
X160114822Y-105881355D01*
X160309731Y-106097588D01*
X160543080Y-106271641D01*
X160805901Y-106396825D01*
X160953110Y-106441476D01*
X161183000Y-106320155D01*
X161183000Y-105127000D01*
X161163000Y-105127000D01*
X161163000Y-104873000D01*
X161183000Y-104873000D01*
X161183000Y-103679845D01*
X161437000Y-103679845D01*
X161437000Y-104873000D01*
X161457000Y-104873000D01*
X161457000Y-105127000D01*
X161437000Y-105127000D01*
X161437000Y-106320155D01*
X161666890Y-106441476D01*
X161814099Y-106396825D01*
X162076920Y-106271641D01*
X162310269Y-106097588D01*
X162386034Y-106013534D01*
X162410498Y-106094180D01*
X162469463Y-106204494D01*
X162548815Y-106301185D01*
X162645506Y-106380537D01*
X162755820Y-106439502D01*
X162875518Y-106475812D01*
X163000000Y-106488072D01*
X164700000Y-106488072D01*
X164824482Y-106475812D01*
X164944180Y-106439502D01*
X165054494Y-106380537D01*
X165151185Y-106301185D01*
X165230537Y-106204494D01*
X165289502Y-106094180D01*
X165325812Y-105974482D01*
X165338072Y-105850000D01*
X165338072Y-104150000D01*
X165325812Y-104025518D01*
X165289502Y-103905820D01*
X165230537Y-103795506D01*
X165151185Y-103698815D01*
X165054494Y-103619463D01*
X164944180Y-103560498D01*
X164824482Y-103524188D01*
X164700000Y-103511928D01*
X163000000Y-103511928D01*
X162875518Y-103524188D01*
X162755820Y-103560498D01*
X162645506Y-103619463D01*
X162548815Y-103698815D01*
X162469463Y-103795506D01*
X162410498Y-103905820D01*
X162386034Y-103986466D01*
X162310269Y-103902412D01*
X162076920Y-103728359D01*
X161814099Y-103603175D01*
X161666890Y-103558524D01*
X161437000Y-103679845D01*
X161183000Y-103679845D01*
X160953110Y-103558524D01*
X160805901Y-103603175D01*
X160543080Y-103728359D01*
X160309731Y-103902412D01*
X160114822Y-104118645D01*
X160045201Y-104235523D01*
X160010706Y-104170986D01*
X159825134Y-103944866D01*
X159599014Y-103759294D01*
X159341034Y-103621401D01*
X159061111Y-103536487D01*
X158842950Y-103515000D01*
X158697050Y-103515000D01*
X158478889Y-103536487D01*
X158198966Y-103621401D01*
X157940986Y-103759294D01*
X157714866Y-103944866D01*
X157529294Y-104170986D01*
X157500000Y-104225791D01*
X157470706Y-104170986D01*
X157285134Y-103944866D01*
X157059014Y-103759294D01*
X156801034Y-103621401D01*
X156521111Y-103536487D01*
X156302950Y-103515000D01*
X156157050Y-103515000D01*
X155938889Y-103536487D01*
X155658966Y-103621401D01*
X155400986Y-103759294D01*
X155174866Y-103944866D01*
X154989294Y-104170986D01*
X154851401Y-104428966D01*
X154766487Y-104708889D01*
X154737815Y-105000000D01*
X149910000Y-105000000D01*
X149910000Y-97838967D01*
X156365000Y-97838967D01*
X156365000Y-98161033D01*
X156427832Y-98476912D01*
X156551082Y-98774463D01*
X156730013Y-99042252D01*
X156957748Y-99269987D01*
X157225537Y-99448918D01*
X157523088Y-99572168D01*
X157838967Y-99635000D01*
X158161033Y-99635000D01*
X158476912Y-99572168D01*
X158774463Y-99448918D01*
X159042252Y-99269987D01*
X159176826Y-99135413D01*
X161544192Y-99135413D01*
X161639956Y-99399814D01*
X161929571Y-99540704D01*
X162241108Y-99622384D01*
X162562595Y-99641718D01*
X162881675Y-99597961D01*
X163186088Y-99492795D01*
X163360044Y-99399814D01*
X163455808Y-99135413D01*
X162500000Y-98179605D01*
X161544192Y-99135413D01*
X159176826Y-99135413D01*
X159269987Y-99042252D01*
X159448918Y-98774463D01*
X159572168Y-98476912D01*
X159635000Y-98161033D01*
X159635000Y-98062595D01*
X160858282Y-98062595D01*
X160902039Y-98381675D01*
X161007205Y-98686088D01*
X161100186Y-98860044D01*
X161364587Y-98955808D01*
X162320395Y-98000000D01*
X162679605Y-98000000D01*
X163635413Y-98955808D01*
X163899814Y-98860044D01*
X164040704Y-98570429D01*
X164122384Y-98258892D01*
X164141718Y-97937405D01*
X164097961Y-97618325D01*
X163992795Y-97313912D01*
X163899814Y-97139956D01*
X163635413Y-97044192D01*
X162679605Y-98000000D01*
X162320395Y-98000000D01*
X161364587Y-97044192D01*
X161100186Y-97139956D01*
X160959296Y-97429571D01*
X160877616Y-97741108D01*
X160858282Y-98062595D01*
X159635000Y-98062595D01*
X159635000Y-97838967D01*
X159572168Y-97523088D01*
X159448918Y-97225537D01*
X159269987Y-96957748D01*
X159176826Y-96864587D01*
X161544192Y-96864587D01*
X162500000Y-97820395D01*
X163455808Y-96864587D01*
X163360044Y-96600186D01*
X163070429Y-96459296D01*
X162758892Y-96377616D01*
X162437405Y-96358282D01*
X162118325Y-96402039D01*
X161813912Y-96507205D01*
X161639956Y-96600186D01*
X161544192Y-96864587D01*
X159176826Y-96864587D01*
X159042252Y-96730013D01*
X158774463Y-96551082D01*
X158476912Y-96427832D01*
X158161033Y-96365000D01*
X157838967Y-96365000D01*
X157523088Y-96427832D01*
X157225537Y-96551082D01*
X156957748Y-96730013D01*
X156730013Y-96957748D01*
X156551082Y-97225537D01*
X156427832Y-97523088D01*
X156365000Y-97838967D01*
X149910000Y-97838967D01*
X149910000Y-93350000D01*
X150159630Y-93350000D01*
X150181062Y-93567598D01*
X150244532Y-93776834D01*
X150347604Y-93969666D01*
X150486314Y-94138686D01*
X150655334Y-94277396D01*
X150848166Y-94380468D01*
X151057402Y-94443938D01*
X151220479Y-94460000D01*
X152379521Y-94460000D01*
X152542598Y-94443938D01*
X152743595Y-94382967D01*
X152755820Y-94389502D01*
X152875518Y-94425812D01*
X153000000Y-94438072D01*
X153364250Y-94435000D01*
X153523000Y-94276250D01*
X153523000Y-93477000D01*
X153777000Y-93477000D01*
X153777000Y-94276250D01*
X153935750Y-94435000D01*
X154300000Y-94438072D01*
X154424482Y-94425812D01*
X154544180Y-94389502D01*
X154654494Y-94330537D01*
X154751185Y-94251185D01*
X154830537Y-94154494D01*
X154889502Y-94044180D01*
X154925812Y-93924482D01*
X154938072Y-93800000D01*
X154935000Y-93635750D01*
X154776250Y-93477000D01*
X153777000Y-93477000D01*
X153523000Y-93477000D01*
X153503000Y-93477000D01*
X153503000Y-93223000D01*
X153523000Y-93223000D01*
X153523000Y-92423750D01*
X153777000Y-92423750D01*
X153777000Y-93223000D01*
X154776250Y-93223000D01*
X154935000Y-93064250D01*
X154938072Y-92900000D01*
X154925812Y-92775518D01*
X154889502Y-92655820D01*
X154830537Y-92545506D01*
X154751185Y-92448815D01*
X154654494Y-92369463D01*
X154544180Y-92310498D01*
X154424482Y-92274188D01*
X154300000Y-92261928D01*
X153935750Y-92265000D01*
X153777000Y-92423750D01*
X153523000Y-92423750D01*
X153364250Y-92265000D01*
X153000000Y-92261928D01*
X152875518Y-92274188D01*
X152755820Y-92310498D01*
X152743595Y-92317033D01*
X152542598Y-92256062D01*
X152379521Y-92240000D01*
X151220479Y-92240000D01*
X151057402Y-92256062D01*
X150848166Y-92319532D01*
X150655334Y-92422604D01*
X150486314Y-92561314D01*
X150347604Y-92730334D01*
X150244532Y-92923166D01*
X150181062Y-93132402D01*
X150159630Y-93350000D01*
X149910000Y-93350000D01*
X149910000Y-93132419D01*
X149913193Y-93100000D01*
X149900450Y-92970617D01*
X149862710Y-92846207D01*
X149801425Y-92731550D01*
X149718948Y-92631052D01*
X149618450Y-92548575D01*
X149503793Y-92487290D01*
X149379383Y-92449550D01*
X149282419Y-92440000D01*
X149250000Y-92436807D01*
X149217581Y-92440000D01*
X129032419Y-92440000D01*
X129000000Y-92436807D01*
X128967581Y-92440000D01*
X128870617Y-92449550D01*
X128746207Y-92487290D01*
X128631550Y-92548575D01*
X128531052Y-92631052D01*
X128448575Y-92731550D01*
X128387290Y-92846207D01*
X128349550Y-92970617D01*
X128336807Y-93100000D01*
X128000009Y-93100000D01*
X127955468Y-92953166D01*
X127852396Y-92760334D01*
X127713686Y-92591314D01*
X127544666Y-92452604D01*
X127351834Y-92349532D01*
X127142598Y-92286062D01*
X126979521Y-92270000D01*
X125820479Y-92270000D01*
X125657402Y-92286062D01*
X125456405Y-92347033D01*
X125444180Y-92340498D01*
X125324482Y-92304188D01*
X125200000Y-92291928D01*
X123900000Y-92291928D01*
X123775518Y-92304188D01*
X123655820Y-92340498D01*
X123545506Y-92399463D01*
X123448815Y-92478815D01*
X123369463Y-92575506D01*
X123310498Y-92685820D01*
X123274188Y-92805518D01*
X123261928Y-92930000D01*
X123027000Y-92930000D01*
X123027000Y-90390000D01*
X123261928Y-90390000D01*
X123261928Y-91290000D01*
X123274188Y-91414482D01*
X123310498Y-91534180D01*
X123369463Y-91644494D01*
X123448815Y-91741185D01*
X123545506Y-91820537D01*
X123655820Y-91879502D01*
X123775518Y-91915812D01*
X123900000Y-91928072D01*
X125200000Y-91928072D01*
X125324482Y-91915812D01*
X125444180Y-91879502D01*
X125456405Y-91872967D01*
X125657402Y-91933938D01*
X125820479Y-91950000D01*
X126979521Y-91950000D01*
X127142598Y-91933938D01*
X127351834Y-91870468D01*
X127544666Y-91767396D01*
X127713686Y-91628686D01*
X127852396Y-91459666D01*
X127955468Y-91266834D01*
X128018938Y-91057598D01*
X128040370Y-90840000D01*
X128037416Y-90810000D01*
X150159630Y-90810000D01*
X150181062Y-91027598D01*
X150244532Y-91236834D01*
X150347604Y-91429666D01*
X150486314Y-91598686D01*
X150655334Y-91737396D01*
X150848166Y-91840468D01*
X151057402Y-91903938D01*
X151220479Y-91920000D01*
X152379521Y-91920000D01*
X152542598Y-91903938D01*
X152743595Y-91842967D01*
X152755820Y-91849502D01*
X152875518Y-91885812D01*
X153000000Y-91898072D01*
X154300000Y-91898072D01*
X154424482Y-91885812D01*
X154544180Y-91849502D01*
X154654494Y-91790537D01*
X154751185Y-91711185D01*
X154830537Y-91614494D01*
X154889502Y-91504180D01*
X154925812Y-91384482D01*
X154930294Y-91338967D01*
X156365000Y-91338967D01*
X156365000Y-91661033D01*
X156427832Y-91976912D01*
X156551082Y-92274463D01*
X156730013Y-92542252D01*
X156957748Y-92769987D01*
X157225537Y-92948918D01*
X157523088Y-93072168D01*
X157838967Y-93135000D01*
X158161033Y-93135000D01*
X158476912Y-93072168D01*
X158774463Y-92948918D01*
X159042252Y-92769987D01*
X159176826Y-92635413D01*
X161544192Y-92635413D01*
X161639956Y-92899814D01*
X161929571Y-93040704D01*
X162241108Y-93122384D01*
X162562595Y-93141718D01*
X162881675Y-93097961D01*
X163186088Y-92992795D01*
X163360044Y-92899814D01*
X163455808Y-92635413D01*
X162500000Y-91679605D01*
X161544192Y-92635413D01*
X159176826Y-92635413D01*
X159269987Y-92542252D01*
X159448918Y-92274463D01*
X159572168Y-91976912D01*
X159635000Y-91661033D01*
X159635000Y-91562595D01*
X160858282Y-91562595D01*
X160902039Y-91881675D01*
X161007205Y-92186088D01*
X161100186Y-92360044D01*
X161364587Y-92455808D01*
X162320395Y-91500000D01*
X162679605Y-91500000D01*
X163635413Y-92455808D01*
X163899814Y-92360044D01*
X164040704Y-92070429D01*
X164122384Y-91758892D01*
X164141718Y-91437405D01*
X164097961Y-91118325D01*
X163992795Y-90813912D01*
X163899814Y-90639956D01*
X163635413Y-90544192D01*
X162679605Y-91500000D01*
X162320395Y-91500000D01*
X161364587Y-90544192D01*
X161100186Y-90639956D01*
X160959296Y-90929571D01*
X160877616Y-91241108D01*
X160858282Y-91562595D01*
X159635000Y-91562595D01*
X159635000Y-91338967D01*
X159572168Y-91023088D01*
X159448918Y-90725537D01*
X159269987Y-90457748D01*
X159176826Y-90364587D01*
X161544192Y-90364587D01*
X162500000Y-91320395D01*
X163455808Y-90364587D01*
X163360044Y-90100186D01*
X163070429Y-89959296D01*
X162758892Y-89877616D01*
X162437405Y-89858282D01*
X162118325Y-89902039D01*
X161813912Y-90007205D01*
X161639956Y-90100186D01*
X161544192Y-90364587D01*
X159176826Y-90364587D01*
X159042252Y-90230013D01*
X158774463Y-90051082D01*
X158476912Y-89927832D01*
X158161033Y-89865000D01*
X157838967Y-89865000D01*
X157523088Y-89927832D01*
X157225537Y-90051082D01*
X156957748Y-90230013D01*
X156730013Y-90457748D01*
X156551082Y-90725537D01*
X156427832Y-91023088D01*
X156365000Y-91338967D01*
X154930294Y-91338967D01*
X154938072Y-91260000D01*
X154938072Y-90360000D01*
X154925812Y-90235518D01*
X154889502Y-90115820D01*
X154830537Y-90005506D01*
X154751185Y-89908815D01*
X154654494Y-89829463D01*
X154544180Y-89770498D01*
X154424482Y-89734188D01*
X154300000Y-89721928D01*
X153000000Y-89721928D01*
X152875518Y-89734188D01*
X152755820Y-89770498D01*
X152743595Y-89777033D01*
X152542598Y-89716062D01*
X152379521Y-89700000D01*
X151220479Y-89700000D01*
X151057402Y-89716062D01*
X150848166Y-89779532D01*
X150655334Y-89882604D01*
X150486314Y-90021314D01*
X150347604Y-90190334D01*
X150244532Y-90383166D01*
X150181062Y-90592402D01*
X150159630Y-90810000D01*
X128037416Y-90810000D01*
X128018938Y-90622402D01*
X127955468Y-90413166D01*
X127852396Y-90220334D01*
X127713686Y-90051314D01*
X127544666Y-89912604D01*
X127351834Y-89809532D01*
X127142598Y-89746062D01*
X126979521Y-89730000D01*
X125820479Y-89730000D01*
X125657402Y-89746062D01*
X125456405Y-89807033D01*
X125444180Y-89800498D01*
X125324482Y-89764188D01*
X125200000Y-89751928D01*
X123900000Y-89751928D01*
X123775518Y-89764188D01*
X123655820Y-89800498D01*
X123545506Y-89859463D01*
X123448815Y-89938815D01*
X123369463Y-90035506D01*
X123310498Y-90145820D01*
X123274188Y-90265518D01*
X123261928Y-90390000D01*
X123027000Y-90390000D01*
X123027000Y-88750000D01*
X123261928Y-88750000D01*
X123274188Y-88874482D01*
X123310498Y-88994180D01*
X123369463Y-89104494D01*
X123448815Y-89201185D01*
X123545506Y-89280537D01*
X123655820Y-89339502D01*
X123775518Y-89375812D01*
X123900000Y-89388072D01*
X124264250Y-89385000D01*
X124423000Y-89226250D01*
X124423000Y-88427000D01*
X123423750Y-88427000D01*
X123265000Y-88585750D01*
X123261928Y-88750000D01*
X123027000Y-88750000D01*
X123027000Y-87850000D01*
X123261928Y-87850000D01*
X123265000Y-88014250D01*
X123423750Y-88173000D01*
X124423000Y-88173000D01*
X124423000Y-87373750D01*
X124677000Y-87373750D01*
X124677000Y-88173000D01*
X124697000Y-88173000D01*
X124697000Y-88427000D01*
X124677000Y-88427000D01*
X124677000Y-89226250D01*
X124835750Y-89385000D01*
X125200000Y-89388072D01*
X125324482Y-89375812D01*
X125444180Y-89339502D01*
X125456405Y-89332967D01*
X125657402Y-89393938D01*
X125820479Y-89410000D01*
X126979521Y-89410000D01*
X127142598Y-89393938D01*
X127351834Y-89330468D01*
X127544666Y-89227396D01*
X127713686Y-89088686D01*
X127852396Y-88919666D01*
X127955468Y-88726834D01*
X128018938Y-88517598D01*
X128040370Y-88300000D01*
X128037416Y-88270000D01*
X150159630Y-88270000D01*
X150181062Y-88487598D01*
X150244532Y-88696834D01*
X150347604Y-88889666D01*
X150486314Y-89058686D01*
X150655334Y-89197396D01*
X150848166Y-89300468D01*
X151057402Y-89363938D01*
X151220479Y-89380000D01*
X152379521Y-89380000D01*
X152542598Y-89363938D01*
X152743595Y-89302967D01*
X152755820Y-89309502D01*
X152875518Y-89345812D01*
X153000000Y-89358072D01*
X154300000Y-89358072D01*
X154424482Y-89345812D01*
X154544180Y-89309502D01*
X154654494Y-89250537D01*
X154751185Y-89171185D01*
X154830537Y-89074494D01*
X154889502Y-88964180D01*
X154925812Y-88844482D01*
X154938072Y-88720000D01*
X154938072Y-87820000D01*
X154925812Y-87695518D01*
X154889502Y-87575820D01*
X154830537Y-87465506D01*
X154751185Y-87368815D01*
X154654494Y-87289463D01*
X154544180Y-87230498D01*
X154424482Y-87194188D01*
X154300000Y-87181928D01*
X153000000Y-87181928D01*
X152875518Y-87194188D01*
X152755820Y-87230498D01*
X152743595Y-87237033D01*
X152542598Y-87176062D01*
X152379521Y-87160000D01*
X151220479Y-87160000D01*
X151057402Y-87176062D01*
X150848166Y-87239532D01*
X150655334Y-87342604D01*
X150486314Y-87481314D01*
X150347604Y-87650334D01*
X150244532Y-87843166D01*
X150181062Y-88052402D01*
X150159630Y-88270000D01*
X128037416Y-88270000D01*
X128018938Y-88082402D01*
X127955468Y-87873166D01*
X127852396Y-87680334D01*
X127713686Y-87511314D01*
X127544666Y-87372604D01*
X127351834Y-87269532D01*
X127142598Y-87206062D01*
X126979521Y-87190000D01*
X125820479Y-87190000D01*
X125657402Y-87206062D01*
X125456405Y-87267033D01*
X125444180Y-87260498D01*
X125324482Y-87224188D01*
X125200000Y-87211928D01*
X124835750Y-87215000D01*
X124677000Y-87373750D01*
X124423000Y-87373750D01*
X124264250Y-87215000D01*
X123900000Y-87211928D01*
X123775518Y-87224188D01*
X123655820Y-87260498D01*
X123545506Y-87319463D01*
X123448815Y-87398815D01*
X123369463Y-87495506D01*
X123310498Y-87605820D01*
X123274188Y-87725518D01*
X123261928Y-87850000D01*
X123027000Y-87850000D01*
X123027000Y-85310000D01*
X123261928Y-85310000D01*
X123261928Y-86210000D01*
X123274188Y-86334482D01*
X123310498Y-86454180D01*
X123369463Y-86564494D01*
X123448815Y-86661185D01*
X123545506Y-86740537D01*
X123655820Y-86799502D01*
X123775518Y-86835812D01*
X123900000Y-86848072D01*
X125200000Y-86848072D01*
X125324482Y-86835812D01*
X125444180Y-86799502D01*
X125456405Y-86792967D01*
X125657402Y-86853938D01*
X125820479Y-86870000D01*
X126979521Y-86870000D01*
X127142598Y-86853938D01*
X127351834Y-86790468D01*
X127544666Y-86687396D01*
X127713686Y-86548686D01*
X127852396Y-86379666D01*
X127955468Y-86186834D01*
X128018938Y-85977598D01*
X128040370Y-85760000D01*
X128037416Y-85730000D01*
X150159630Y-85730000D01*
X150181062Y-85947598D01*
X150244532Y-86156834D01*
X150347604Y-86349666D01*
X150486314Y-86518686D01*
X150655334Y-86657396D01*
X150848166Y-86760468D01*
X151057402Y-86823938D01*
X151220479Y-86840000D01*
X152379521Y-86840000D01*
X152542598Y-86823938D01*
X152743595Y-86762967D01*
X152755820Y-86769502D01*
X152875518Y-86805812D01*
X153000000Y-86818072D01*
X154300000Y-86818072D01*
X154424482Y-86805812D01*
X154544180Y-86769502D01*
X154654494Y-86710537D01*
X154751185Y-86631185D01*
X154830537Y-86534494D01*
X154889502Y-86424180D01*
X154925812Y-86304482D01*
X154938072Y-86180000D01*
X154938072Y-85280000D01*
X154925812Y-85155518D01*
X154889502Y-85035820D01*
X154830537Y-84925506D01*
X154751185Y-84828815D01*
X154654494Y-84749463D01*
X154544180Y-84690498D01*
X154424482Y-84654188D01*
X154300000Y-84641928D01*
X153000000Y-84641928D01*
X152875518Y-84654188D01*
X152755820Y-84690498D01*
X152743595Y-84697033D01*
X152542598Y-84636062D01*
X152379521Y-84620000D01*
X151220479Y-84620000D01*
X151057402Y-84636062D01*
X150848166Y-84699532D01*
X150655334Y-84802604D01*
X150486314Y-84941314D01*
X150347604Y-85110334D01*
X150244532Y-85303166D01*
X150181062Y-85512402D01*
X150159630Y-85730000D01*
X128037416Y-85730000D01*
X128018938Y-85542402D01*
X127955468Y-85333166D01*
X127852396Y-85140334D01*
X127713686Y-84971314D01*
X127544666Y-84832604D01*
X127351834Y-84729532D01*
X127142598Y-84666062D01*
X126979521Y-84650000D01*
X125820479Y-84650000D01*
X125657402Y-84666062D01*
X125456405Y-84727033D01*
X125444180Y-84720498D01*
X125324482Y-84684188D01*
X125200000Y-84671928D01*
X123900000Y-84671928D01*
X123775518Y-84684188D01*
X123655820Y-84720498D01*
X123545506Y-84779463D01*
X123448815Y-84858815D01*
X123369463Y-84955506D01*
X123310498Y-85065820D01*
X123274188Y-85185518D01*
X123261928Y-85310000D01*
X123027000Y-85310000D01*
X123027000Y-83670000D01*
X123261928Y-83670000D01*
X123274188Y-83794482D01*
X123310498Y-83914180D01*
X123369463Y-84024494D01*
X123448815Y-84121185D01*
X123545506Y-84200537D01*
X123655820Y-84259502D01*
X123775518Y-84295812D01*
X123900000Y-84308072D01*
X124264250Y-84305000D01*
X124423000Y-84146250D01*
X124423000Y-83347000D01*
X123423750Y-83347000D01*
X123265000Y-83505750D01*
X123261928Y-83670000D01*
X123027000Y-83670000D01*
X123027000Y-82770000D01*
X123261928Y-82770000D01*
X123265000Y-82934250D01*
X123423750Y-83093000D01*
X124423000Y-83093000D01*
X124423000Y-82293750D01*
X124677000Y-82293750D01*
X124677000Y-83093000D01*
X124697000Y-83093000D01*
X124697000Y-83347000D01*
X124677000Y-83347000D01*
X124677000Y-84146250D01*
X124835750Y-84305000D01*
X125200000Y-84308072D01*
X125324482Y-84295812D01*
X125444180Y-84259502D01*
X125456405Y-84252967D01*
X125657402Y-84313938D01*
X125820479Y-84330000D01*
X126979521Y-84330000D01*
X127142598Y-84313938D01*
X127351834Y-84250468D01*
X127544666Y-84147396D01*
X127713686Y-84008686D01*
X127852396Y-83839666D01*
X127955468Y-83646834D01*
X128018938Y-83437598D01*
X128040370Y-83220000D01*
X128037416Y-83190000D01*
X150159630Y-83190000D01*
X150181062Y-83407598D01*
X150244532Y-83616834D01*
X150347604Y-83809666D01*
X150486314Y-83978686D01*
X150655334Y-84117396D01*
X150848166Y-84220468D01*
X151057402Y-84283938D01*
X151220479Y-84300000D01*
X152379521Y-84300000D01*
X152542598Y-84283938D01*
X152743595Y-84222967D01*
X152755820Y-84229502D01*
X152875518Y-84265812D01*
X153000000Y-84278072D01*
X154300000Y-84278072D01*
X154424482Y-84265812D01*
X154544180Y-84229502D01*
X154654494Y-84170537D01*
X154751185Y-84091185D01*
X154830537Y-83994494D01*
X154889502Y-83884180D01*
X154925812Y-83764482D01*
X154938072Y-83640000D01*
X154938072Y-82740000D01*
X154925812Y-82615518D01*
X154889502Y-82495820D01*
X154830537Y-82385506D01*
X154751185Y-82288815D01*
X154654494Y-82209463D01*
X154544180Y-82150498D01*
X154424482Y-82114188D01*
X154300000Y-82101928D01*
X153000000Y-82101928D01*
X152875518Y-82114188D01*
X152755820Y-82150498D01*
X152743595Y-82157033D01*
X152542598Y-82096062D01*
X152379521Y-82080000D01*
X151220479Y-82080000D01*
X151057402Y-82096062D01*
X150848166Y-82159532D01*
X150655334Y-82262604D01*
X150486314Y-82401314D01*
X150347604Y-82570334D01*
X150244532Y-82763166D01*
X150181062Y-82972402D01*
X150159630Y-83190000D01*
X128037416Y-83190000D01*
X128018938Y-83002402D01*
X127955468Y-82793166D01*
X127852396Y-82600334D01*
X127713686Y-82431314D01*
X127544666Y-82292604D01*
X127351834Y-82189532D01*
X127142598Y-82126062D01*
X126979521Y-82110000D01*
X125820479Y-82110000D01*
X125657402Y-82126062D01*
X125456405Y-82187033D01*
X125444180Y-82180498D01*
X125324482Y-82144188D01*
X125200000Y-82131928D01*
X124835750Y-82135000D01*
X124677000Y-82293750D01*
X124423000Y-82293750D01*
X124264250Y-82135000D01*
X123900000Y-82131928D01*
X123775518Y-82144188D01*
X123655820Y-82180498D01*
X123545506Y-82239463D01*
X123448815Y-82318815D01*
X123369463Y-82415506D01*
X123310498Y-82525820D01*
X123274188Y-82645518D01*
X123261928Y-82770000D01*
X123027000Y-82770000D01*
X123027000Y-80230000D01*
X123261928Y-80230000D01*
X123261928Y-81130000D01*
X123274188Y-81254482D01*
X123310498Y-81374180D01*
X123369463Y-81484494D01*
X123448815Y-81581185D01*
X123545506Y-81660537D01*
X123655820Y-81719502D01*
X123775518Y-81755812D01*
X123900000Y-81768072D01*
X125200000Y-81768072D01*
X125324482Y-81755812D01*
X125444180Y-81719502D01*
X125456405Y-81712967D01*
X125657402Y-81773938D01*
X125820479Y-81790000D01*
X126979521Y-81790000D01*
X127142598Y-81773938D01*
X127351834Y-81710468D01*
X127544666Y-81607396D01*
X127713686Y-81468686D01*
X127852396Y-81299666D01*
X127955468Y-81106834D01*
X128018938Y-80897598D01*
X128040370Y-80680000D01*
X128037416Y-80650000D01*
X150159630Y-80650000D01*
X150181062Y-80867598D01*
X150244532Y-81076834D01*
X150347604Y-81269666D01*
X150486314Y-81438686D01*
X150655334Y-81577396D01*
X150848166Y-81680468D01*
X151057402Y-81743938D01*
X151220479Y-81760000D01*
X152379521Y-81760000D01*
X152542598Y-81743938D01*
X152743595Y-81682967D01*
X152755820Y-81689502D01*
X152875518Y-81725812D01*
X153000000Y-81738072D01*
X154300000Y-81738072D01*
X154424482Y-81725812D01*
X154544180Y-81689502D01*
X154654494Y-81630537D01*
X154751185Y-81551185D01*
X154830537Y-81454494D01*
X154889502Y-81344180D01*
X154925812Y-81224482D01*
X154938072Y-81100000D01*
X154938072Y-80200000D01*
X154925812Y-80075518D01*
X154889502Y-79955820D01*
X154830537Y-79845506D01*
X154751185Y-79748815D01*
X154654494Y-79669463D01*
X154544180Y-79610498D01*
X154424482Y-79574188D01*
X154300000Y-79561928D01*
X153000000Y-79561928D01*
X152875518Y-79574188D01*
X152755820Y-79610498D01*
X152743595Y-79617033D01*
X152542598Y-79556062D01*
X152379521Y-79540000D01*
X151220479Y-79540000D01*
X151057402Y-79556062D01*
X150848166Y-79619532D01*
X150655334Y-79722604D01*
X150486314Y-79861314D01*
X150347604Y-80030334D01*
X150244532Y-80223166D01*
X150181062Y-80432402D01*
X150159630Y-80650000D01*
X128037416Y-80650000D01*
X128018938Y-80462402D01*
X127955468Y-80253166D01*
X127852396Y-80060334D01*
X127713686Y-79891314D01*
X127544666Y-79752604D01*
X127351834Y-79649532D01*
X127142598Y-79586062D01*
X126979521Y-79570000D01*
X125820479Y-79570000D01*
X125657402Y-79586062D01*
X125456405Y-79647033D01*
X125444180Y-79640498D01*
X125324482Y-79604188D01*
X125200000Y-79591928D01*
X123900000Y-79591928D01*
X123775518Y-79604188D01*
X123655820Y-79640498D01*
X123545506Y-79699463D01*
X123448815Y-79778815D01*
X123369463Y-79875506D01*
X123310498Y-79985820D01*
X123274188Y-80105518D01*
X123261928Y-80230000D01*
X123027000Y-80230000D01*
X123027000Y-77690000D01*
X123261928Y-77690000D01*
X123261928Y-78590000D01*
X123274188Y-78714482D01*
X123310498Y-78834180D01*
X123369463Y-78944494D01*
X123448815Y-79041185D01*
X123545506Y-79120537D01*
X123655820Y-79179502D01*
X123775518Y-79215812D01*
X123900000Y-79228072D01*
X125200000Y-79228072D01*
X125324482Y-79215812D01*
X125444180Y-79179502D01*
X125456405Y-79172967D01*
X125657402Y-79233938D01*
X125820479Y-79250000D01*
X126979521Y-79250000D01*
X127142598Y-79233938D01*
X127351834Y-79170468D01*
X127544666Y-79067396D01*
X127713686Y-78928686D01*
X127852396Y-78759666D01*
X127955468Y-78566834D01*
X128018938Y-78357598D01*
X128040370Y-78140000D01*
X128037416Y-78110000D01*
X150159630Y-78110000D01*
X150181062Y-78327598D01*
X150244532Y-78536834D01*
X150347604Y-78729666D01*
X150486314Y-78898686D01*
X150655334Y-79037396D01*
X150848166Y-79140468D01*
X151057402Y-79203938D01*
X151220479Y-79220000D01*
X152379521Y-79220000D01*
X152542598Y-79203938D01*
X152743595Y-79142967D01*
X152755820Y-79149502D01*
X152875518Y-79185812D01*
X153000000Y-79198072D01*
X154300000Y-79198072D01*
X154424482Y-79185812D01*
X154544180Y-79149502D01*
X154654494Y-79090537D01*
X154751185Y-79011185D01*
X154830537Y-78914494D01*
X154889502Y-78804180D01*
X154925812Y-78684482D01*
X154938072Y-78560000D01*
X154938072Y-77660000D01*
X154925812Y-77535518D01*
X154889502Y-77415820D01*
X154830537Y-77305506D01*
X154751185Y-77208815D01*
X154654494Y-77129463D01*
X154544180Y-77070498D01*
X154424482Y-77034188D01*
X154300000Y-77021928D01*
X153000000Y-77021928D01*
X152875518Y-77034188D01*
X152755820Y-77070498D01*
X152743595Y-77077033D01*
X152542598Y-77016062D01*
X152379521Y-77000000D01*
X151220479Y-77000000D01*
X151057402Y-77016062D01*
X150848166Y-77079532D01*
X150655334Y-77182604D01*
X150486314Y-77321314D01*
X150347604Y-77490334D01*
X150244532Y-77683166D01*
X150181062Y-77892402D01*
X150159630Y-78110000D01*
X128037416Y-78110000D01*
X128018938Y-77922402D01*
X127955468Y-77713166D01*
X127852396Y-77520334D01*
X127713686Y-77351314D01*
X127544666Y-77212604D01*
X127351834Y-77109532D01*
X127142598Y-77046062D01*
X126979521Y-77030000D01*
X125820479Y-77030000D01*
X125657402Y-77046062D01*
X125456405Y-77107033D01*
X125444180Y-77100498D01*
X125324482Y-77064188D01*
X125200000Y-77051928D01*
X123900000Y-77051928D01*
X123775518Y-77064188D01*
X123655820Y-77100498D01*
X123545506Y-77159463D01*
X123448815Y-77238815D01*
X123369463Y-77335506D01*
X123310498Y-77445820D01*
X123274188Y-77565518D01*
X123261928Y-77690000D01*
X123027000Y-77690000D01*
X123027000Y-75150000D01*
X123261928Y-75150000D01*
X123261928Y-76050000D01*
X123274188Y-76174482D01*
X123310498Y-76294180D01*
X123369463Y-76404494D01*
X123448815Y-76501185D01*
X123545506Y-76580537D01*
X123655820Y-76639502D01*
X123775518Y-76675812D01*
X123900000Y-76688072D01*
X125200000Y-76688072D01*
X125324482Y-76675812D01*
X125444180Y-76639502D01*
X125456405Y-76632967D01*
X125657402Y-76693938D01*
X125820479Y-76710000D01*
X126979521Y-76710000D01*
X127142598Y-76693938D01*
X127351834Y-76630468D01*
X127544666Y-76527396D01*
X127713686Y-76388686D01*
X127852396Y-76219666D01*
X127955468Y-76026834D01*
X128018938Y-75817598D01*
X128040370Y-75600000D01*
X128037416Y-75570000D01*
X150159630Y-75570000D01*
X150181062Y-75787598D01*
X150244532Y-75996834D01*
X150347604Y-76189666D01*
X150486314Y-76358686D01*
X150655334Y-76497396D01*
X150848166Y-76600468D01*
X151057402Y-76663938D01*
X151220479Y-76680000D01*
X152379521Y-76680000D01*
X152542598Y-76663938D01*
X152743595Y-76602967D01*
X152755820Y-76609502D01*
X152875518Y-76645812D01*
X153000000Y-76658072D01*
X154300000Y-76658072D01*
X154424482Y-76645812D01*
X154544180Y-76609502D01*
X154654494Y-76550537D01*
X154751185Y-76471185D01*
X154830537Y-76374494D01*
X154889502Y-76264180D01*
X154925812Y-76144482D01*
X154938072Y-76020000D01*
X154938072Y-75120000D01*
X154925812Y-74995518D01*
X154889502Y-74875820D01*
X154830537Y-74765506D01*
X154751185Y-74668815D01*
X154654494Y-74589463D01*
X154544180Y-74530498D01*
X154424482Y-74494188D01*
X154300000Y-74481928D01*
X153000000Y-74481928D01*
X152875518Y-74494188D01*
X152755820Y-74530498D01*
X152743595Y-74537033D01*
X152542598Y-74476062D01*
X152379521Y-74460000D01*
X151220479Y-74460000D01*
X151057402Y-74476062D01*
X150848166Y-74539532D01*
X150655334Y-74642604D01*
X150486314Y-74781314D01*
X150347604Y-74950334D01*
X150244532Y-75143166D01*
X150181062Y-75352402D01*
X150159630Y-75570000D01*
X128037416Y-75570000D01*
X128018938Y-75382402D01*
X127955468Y-75173166D01*
X127852396Y-74980334D01*
X127713686Y-74811314D01*
X127544666Y-74672604D01*
X127351834Y-74569532D01*
X127142598Y-74506062D01*
X126979521Y-74490000D01*
X125820479Y-74490000D01*
X125657402Y-74506062D01*
X125456405Y-74567033D01*
X125444180Y-74560498D01*
X125324482Y-74524188D01*
X125200000Y-74511928D01*
X123900000Y-74511928D01*
X123775518Y-74524188D01*
X123655820Y-74560498D01*
X123545506Y-74619463D01*
X123448815Y-74698815D01*
X123369463Y-74795506D01*
X123310498Y-74905820D01*
X123274188Y-75025518D01*
X123261928Y-75150000D01*
X123027000Y-75150000D01*
X123027000Y-72610000D01*
X123261928Y-72610000D01*
X123261928Y-73510000D01*
X123274188Y-73634482D01*
X123310498Y-73754180D01*
X123369463Y-73864494D01*
X123448815Y-73961185D01*
X123545506Y-74040537D01*
X123655820Y-74099502D01*
X123775518Y-74135812D01*
X123900000Y-74148072D01*
X125200000Y-74148072D01*
X125324482Y-74135812D01*
X125444180Y-74099502D01*
X125456405Y-74092967D01*
X125657402Y-74153938D01*
X125820479Y-74170000D01*
X126979521Y-74170000D01*
X127142598Y-74153938D01*
X127351834Y-74090468D01*
X127544666Y-73987396D01*
X127713686Y-73848686D01*
X127852396Y-73679666D01*
X127955468Y-73486834D01*
X128018938Y-73277598D01*
X128040370Y-73060000D01*
X128037416Y-73030000D01*
X150159630Y-73030000D01*
X150181062Y-73247598D01*
X150244532Y-73456834D01*
X150347604Y-73649666D01*
X150486314Y-73818686D01*
X150655334Y-73957396D01*
X150848166Y-74060468D01*
X151057402Y-74123938D01*
X151220479Y-74140000D01*
X152379521Y-74140000D01*
X152542598Y-74123938D01*
X152743595Y-74062967D01*
X152755820Y-74069502D01*
X152875518Y-74105812D01*
X153000000Y-74118072D01*
X154300000Y-74118072D01*
X154424482Y-74105812D01*
X154544180Y-74069502D01*
X154654494Y-74010537D01*
X154751185Y-73931185D01*
X154830537Y-73834494D01*
X154889502Y-73724180D01*
X154925812Y-73604482D01*
X154938072Y-73480000D01*
X154938072Y-72580000D01*
X154925812Y-72455518D01*
X154889502Y-72335820D01*
X154830537Y-72225506D01*
X154751185Y-72128815D01*
X154654494Y-72049463D01*
X154544180Y-71990498D01*
X154424482Y-71954188D01*
X154300000Y-71941928D01*
X153000000Y-71941928D01*
X152875518Y-71954188D01*
X152755820Y-71990498D01*
X152743595Y-71997033D01*
X152542598Y-71936062D01*
X152379521Y-71920000D01*
X151220479Y-71920000D01*
X151057402Y-71936062D01*
X150848166Y-71999532D01*
X150655334Y-72102604D01*
X150486314Y-72241314D01*
X150347604Y-72410334D01*
X150244532Y-72603166D01*
X150181062Y-72812402D01*
X150159630Y-73030000D01*
X128037416Y-73030000D01*
X128018938Y-72842402D01*
X127955468Y-72633166D01*
X127852396Y-72440334D01*
X127713686Y-72271314D01*
X127544666Y-72132604D01*
X127351834Y-72029532D01*
X127142598Y-71966062D01*
X126979521Y-71950000D01*
X125820479Y-71950000D01*
X125657402Y-71966062D01*
X125456405Y-72027033D01*
X125444180Y-72020498D01*
X125324482Y-71984188D01*
X125200000Y-71971928D01*
X123900000Y-71971928D01*
X123775518Y-71984188D01*
X123655820Y-72020498D01*
X123545506Y-72079463D01*
X123448815Y-72158815D01*
X123369463Y-72255506D01*
X123310498Y-72365820D01*
X123274188Y-72485518D01*
X123261928Y-72610000D01*
X123027000Y-72610000D01*
X123027000Y-70070000D01*
X123261928Y-70070000D01*
X123261928Y-70970000D01*
X123274188Y-71094482D01*
X123310498Y-71214180D01*
X123369463Y-71324494D01*
X123448815Y-71421185D01*
X123545506Y-71500537D01*
X123655820Y-71559502D01*
X123775518Y-71595812D01*
X123900000Y-71608072D01*
X125200000Y-71608072D01*
X125324482Y-71595812D01*
X125444180Y-71559502D01*
X125456405Y-71552967D01*
X125657402Y-71613938D01*
X125820479Y-71630000D01*
X126979521Y-71630000D01*
X127142598Y-71613938D01*
X127351834Y-71550468D01*
X127544666Y-71447396D01*
X127713686Y-71308686D01*
X127852396Y-71139666D01*
X127955468Y-70946834D01*
X128018938Y-70737598D01*
X128040370Y-70520000D01*
X128037416Y-70490000D01*
X150159630Y-70490000D01*
X150181062Y-70707598D01*
X150244532Y-70916834D01*
X150347604Y-71109666D01*
X150486314Y-71278686D01*
X150655334Y-71417396D01*
X150848166Y-71520468D01*
X151057402Y-71583938D01*
X151220479Y-71600000D01*
X152379521Y-71600000D01*
X152542598Y-71583938D01*
X152743595Y-71522967D01*
X152755820Y-71529502D01*
X152875518Y-71565812D01*
X153000000Y-71578072D01*
X153364250Y-71575000D01*
X153523000Y-71416250D01*
X153523000Y-70617000D01*
X153777000Y-70617000D01*
X153777000Y-71416250D01*
X153935750Y-71575000D01*
X154300000Y-71578072D01*
X154424482Y-71565812D01*
X154544180Y-71529502D01*
X154654494Y-71470537D01*
X154751185Y-71391185D01*
X154830537Y-71294494D01*
X154889502Y-71184180D01*
X154925812Y-71064482D01*
X154938072Y-70940000D01*
X154935000Y-70775750D01*
X154776250Y-70617000D01*
X153777000Y-70617000D01*
X153523000Y-70617000D01*
X153503000Y-70617000D01*
X153503000Y-70363000D01*
X153523000Y-70363000D01*
X153523000Y-69563750D01*
X153777000Y-69563750D01*
X153777000Y-70363000D01*
X154776250Y-70363000D01*
X154935000Y-70204250D01*
X154938072Y-70040000D01*
X154925812Y-69915518D01*
X154889502Y-69795820D01*
X154830537Y-69685506D01*
X154751185Y-69588815D01*
X154654494Y-69509463D01*
X154544180Y-69450498D01*
X154424482Y-69414188D01*
X154300000Y-69401928D01*
X153935750Y-69405000D01*
X153777000Y-69563750D01*
X153523000Y-69563750D01*
X153364250Y-69405000D01*
X153000000Y-69401928D01*
X152875518Y-69414188D01*
X152755820Y-69450498D01*
X152743595Y-69457033D01*
X152542598Y-69396062D01*
X152379521Y-69380000D01*
X151220479Y-69380000D01*
X151057402Y-69396062D01*
X150848166Y-69459532D01*
X150655334Y-69562604D01*
X150486314Y-69701314D01*
X150347604Y-69870334D01*
X150244532Y-70063166D01*
X150181062Y-70272402D01*
X150159630Y-70490000D01*
X128037416Y-70490000D01*
X128018938Y-70302402D01*
X127955468Y-70093166D01*
X127852396Y-69900334D01*
X127713686Y-69731314D01*
X127544666Y-69592604D01*
X127351834Y-69489532D01*
X127142598Y-69426062D01*
X126979521Y-69410000D01*
X125820479Y-69410000D01*
X125657402Y-69426062D01*
X125456405Y-69487033D01*
X125444180Y-69480498D01*
X125324482Y-69444188D01*
X125200000Y-69431928D01*
X123900000Y-69431928D01*
X123775518Y-69444188D01*
X123655820Y-69480498D01*
X123545506Y-69539463D01*
X123448815Y-69618815D01*
X123369463Y-69715506D01*
X123310498Y-69825820D01*
X123274188Y-69945518D01*
X123261928Y-70070000D01*
X123027000Y-70070000D01*
X123027000Y-67530000D01*
X123261928Y-67530000D01*
X123261928Y-68430000D01*
X123274188Y-68554482D01*
X123310498Y-68674180D01*
X123369463Y-68784494D01*
X123448815Y-68881185D01*
X123545506Y-68960537D01*
X123655820Y-69019502D01*
X123775518Y-69055812D01*
X123900000Y-69068072D01*
X125200000Y-69068072D01*
X125324482Y-69055812D01*
X125444180Y-69019502D01*
X125456405Y-69012967D01*
X125657402Y-69073938D01*
X125820479Y-69090000D01*
X126979521Y-69090000D01*
X127142598Y-69073938D01*
X127351834Y-69010468D01*
X127544666Y-68907396D01*
X127713686Y-68768686D01*
X127852396Y-68599666D01*
X127955468Y-68406834D01*
X128018938Y-68197598D01*
X128040370Y-67980000D01*
X128037416Y-67950000D01*
X150159630Y-67950000D01*
X150181062Y-68167598D01*
X150244532Y-68376834D01*
X150347604Y-68569666D01*
X150486314Y-68738686D01*
X150655334Y-68877396D01*
X150848166Y-68980468D01*
X151057402Y-69043938D01*
X151220479Y-69060000D01*
X152379521Y-69060000D01*
X152542598Y-69043938D01*
X152743595Y-68982967D01*
X152755820Y-68989502D01*
X152875518Y-69025812D01*
X153000000Y-69038072D01*
X154300000Y-69038072D01*
X154424482Y-69025812D01*
X154544180Y-68989502D01*
X154654494Y-68930537D01*
X154751185Y-68851185D01*
X154830537Y-68754494D01*
X154889502Y-68644180D01*
X154925812Y-68524482D01*
X154938072Y-68400000D01*
X154938072Y-67500000D01*
X154925812Y-67375518D01*
X154889502Y-67255820D01*
X154830537Y-67145506D01*
X154751185Y-67048815D01*
X154654494Y-66969463D01*
X154544180Y-66910498D01*
X154424482Y-66874188D01*
X154300000Y-66861928D01*
X153000000Y-66861928D01*
X152875518Y-66874188D01*
X152755820Y-66910498D01*
X152743595Y-66917033D01*
X152542598Y-66856062D01*
X152379521Y-66840000D01*
X151220479Y-66840000D01*
X151057402Y-66856062D01*
X150848166Y-66919532D01*
X150655334Y-67022604D01*
X150486314Y-67161314D01*
X150347604Y-67330334D01*
X150244532Y-67523166D01*
X150181062Y-67732402D01*
X150159630Y-67950000D01*
X128037416Y-67950000D01*
X128018938Y-67762402D01*
X127955468Y-67553166D01*
X127852396Y-67360334D01*
X127713686Y-67191314D01*
X127544666Y-67052604D01*
X127351834Y-66949532D01*
X127142598Y-66886062D01*
X126979521Y-66870000D01*
X125820479Y-66870000D01*
X125657402Y-66886062D01*
X125456405Y-66947033D01*
X125444180Y-66940498D01*
X125324482Y-66904188D01*
X125200000Y-66891928D01*
X123900000Y-66891928D01*
X123775518Y-66904188D01*
X123655820Y-66940498D01*
X123545506Y-66999463D01*
X123448815Y-67078815D01*
X123369463Y-67175506D01*
X123310498Y-67285820D01*
X123274188Y-67405518D01*
X123261928Y-67530000D01*
X123027000Y-67530000D01*
X123027000Y-65890000D01*
X123261928Y-65890000D01*
X123274188Y-66014482D01*
X123310498Y-66134180D01*
X123369463Y-66244494D01*
X123448815Y-66341185D01*
X123545506Y-66420537D01*
X123655820Y-66479502D01*
X123775518Y-66515812D01*
X123900000Y-66528072D01*
X124264250Y-66525000D01*
X124423000Y-66366250D01*
X124423000Y-65567000D01*
X123423750Y-65567000D01*
X123265000Y-65725750D01*
X123261928Y-65890000D01*
X123027000Y-65890000D01*
X123027000Y-64990000D01*
X123261928Y-64990000D01*
X123265000Y-65154250D01*
X123423750Y-65313000D01*
X124423000Y-65313000D01*
X124423000Y-64513750D01*
X124677000Y-64513750D01*
X124677000Y-65313000D01*
X124697000Y-65313000D01*
X124697000Y-65567000D01*
X124677000Y-65567000D01*
X124677000Y-66366250D01*
X124835750Y-66525000D01*
X125200000Y-66528072D01*
X125324482Y-66515812D01*
X125444180Y-66479502D01*
X125456405Y-66472967D01*
X125657402Y-66533938D01*
X125820479Y-66550000D01*
X126979521Y-66550000D01*
X127142598Y-66533938D01*
X127351834Y-66470468D01*
X127544666Y-66367396D01*
X127713686Y-66228686D01*
X127852396Y-66059666D01*
X127955468Y-65866834D01*
X128018938Y-65657598D01*
X128040370Y-65440000D01*
X128037416Y-65410000D01*
X150159630Y-65410000D01*
X150181062Y-65627598D01*
X150244532Y-65836834D01*
X150347604Y-66029666D01*
X150486314Y-66198686D01*
X150655334Y-66337396D01*
X150848166Y-66440468D01*
X151057402Y-66503938D01*
X151220479Y-66520000D01*
X152379521Y-66520000D01*
X152542598Y-66503938D01*
X152743595Y-66442967D01*
X152755820Y-66449502D01*
X152875518Y-66485812D01*
X153000000Y-66498072D01*
X154300000Y-66498072D01*
X154424482Y-66485812D01*
X154544180Y-66449502D01*
X154654494Y-66390537D01*
X154751185Y-66311185D01*
X154830537Y-66214494D01*
X154889502Y-66104180D01*
X154925812Y-65984482D01*
X154938072Y-65860000D01*
X154938072Y-64960000D01*
X154925812Y-64835518D01*
X154889502Y-64715820D01*
X154830537Y-64605506D01*
X154751185Y-64508815D01*
X154654494Y-64429463D01*
X154544180Y-64370498D01*
X154424482Y-64334188D01*
X154300000Y-64321928D01*
X153000000Y-64321928D01*
X152875518Y-64334188D01*
X152755820Y-64370498D01*
X152743595Y-64377033D01*
X152542598Y-64316062D01*
X152379521Y-64300000D01*
X151220479Y-64300000D01*
X151057402Y-64316062D01*
X150848166Y-64379532D01*
X150655334Y-64482604D01*
X150486314Y-64621314D01*
X150347604Y-64790334D01*
X150244532Y-64983166D01*
X150181062Y-65192402D01*
X150159630Y-65410000D01*
X128037416Y-65410000D01*
X128018938Y-65222402D01*
X127955468Y-65013166D01*
X127852396Y-64820334D01*
X127713686Y-64651314D01*
X127544666Y-64512604D01*
X127351834Y-64409532D01*
X127142598Y-64346062D01*
X126979521Y-64330000D01*
X125820479Y-64330000D01*
X125657402Y-64346062D01*
X125456405Y-64407033D01*
X125444180Y-64400498D01*
X125324482Y-64364188D01*
X125200000Y-64351928D01*
X124835750Y-64355000D01*
X124677000Y-64513750D01*
X124423000Y-64513750D01*
X124264250Y-64355000D01*
X123900000Y-64351928D01*
X123775518Y-64364188D01*
X123655820Y-64400498D01*
X123545506Y-64459463D01*
X123448815Y-64538815D01*
X123369463Y-64635506D01*
X123310498Y-64745820D01*
X123274188Y-64865518D01*
X123261928Y-64990000D01*
X123027000Y-64990000D01*
X123027000Y-60700000D01*
X123024560Y-60675224D01*
X123017333Y-60651399D01*
X123005597Y-60629443D01*
X122989803Y-60610197D01*
X122970557Y-60594403D01*
X122948601Y-60582667D01*
X122924776Y-60575440D01*
X122900000Y-60573000D01*
X113660000Y-60573000D01*
X113660000Y-50383870D01*
X125160568Y-61790171D01*
X125179254Y-61805470D01*
X125191283Y-61811928D01*
X123900000Y-61811928D01*
X123775518Y-61824188D01*
X123655820Y-61860498D01*
X123545506Y-61919463D01*
X123448815Y-61998815D01*
X123369463Y-62095506D01*
X123310498Y-62205820D01*
X123274188Y-62325518D01*
X123261928Y-62450000D01*
X123261928Y-63350000D01*
X123274188Y-63474482D01*
X123310498Y-63594180D01*
X123369463Y-63704494D01*
X123448815Y-63801185D01*
X123545506Y-63880537D01*
X123655820Y-63939502D01*
X123775518Y-63975812D01*
X123900000Y-63988072D01*
X125200000Y-63988072D01*
X125324482Y-63975812D01*
X125444180Y-63939502D01*
X125456405Y-63932967D01*
X125657402Y-63993938D01*
X125820479Y-64010000D01*
X126979521Y-64010000D01*
X127142598Y-63993938D01*
X127351834Y-63930468D01*
X127544666Y-63827396D01*
X127713686Y-63688686D01*
X127852396Y-63519666D01*
X127955468Y-63326834D01*
X128018938Y-63117598D01*
X128040370Y-62900000D01*
X128018938Y-62682402D01*
X127955468Y-62473166D01*
X127852396Y-62280334D01*
X127713686Y-62111314D01*
X127544666Y-61972604D01*
X127351834Y-61869532D01*
X127223261Y-61830530D01*
X150786147Y-61872682D01*
X150655334Y-61942604D01*
X150486314Y-62081314D01*
X150347604Y-62250334D01*
X150244532Y-62443166D01*
X150181062Y-62652402D01*
X150159630Y-62870000D01*
X150181062Y-63087598D01*
X150244532Y-63296834D01*
X150347604Y-63489666D01*
X150486314Y-63658686D01*
X150655334Y-63797396D01*
X150848166Y-63900468D01*
X151057402Y-63963938D01*
X151220479Y-63980000D01*
X152379521Y-63980000D01*
X152542598Y-63963938D01*
X152743595Y-63902967D01*
X152755820Y-63909502D01*
X152875518Y-63945812D01*
X153000000Y-63958072D01*
X154300000Y-63958072D01*
X154424482Y-63945812D01*
X154544180Y-63909502D01*
X154654494Y-63850537D01*
X154751185Y-63771185D01*
X154830537Y-63674494D01*
X154889502Y-63564180D01*
X154925812Y-63444482D01*
X154938072Y-63320000D01*
X154938072Y-62420000D01*
X154925812Y-62295518D01*
X154889502Y-62175820D01*
X154830537Y-62065506D01*
X154751185Y-61968815D01*
X154654494Y-61889463D01*
X154544180Y-61830498D01*
X154424482Y-61794188D01*
X154300000Y-61781928D01*
X153347312Y-61781928D01*
X168373531Y-46660000D01*
X175340000Y-46660000D01*
X175340000Y-60673000D01*
X175340000Y-60673000D01*
G37*
X175340000Y-60673000D02*
X165900000Y-60673000D01*
X165875224Y-60675440D01*
X165851399Y-60682667D01*
X165829443Y-60694403D01*
X165810197Y-60710197D01*
X165794403Y-60729443D01*
X165782667Y-60751399D01*
X165775440Y-60775224D01*
X165773000Y-60800000D01*
X165773000Y-103200000D01*
X165775440Y-103224776D01*
X165782667Y-103248601D01*
X165794403Y-103270557D01*
X165810197Y-103289803D01*
X165829443Y-103305597D01*
X165851399Y-103317333D01*
X165875224Y-103324560D01*
X165900000Y-103327000D01*
X175340001Y-103327000D01*
X175340001Y-117340000D01*
X113660000Y-117340000D01*
X113660000Y-103333674D01*
X122898717Y-103426994D01*
X122924776Y-103424560D01*
X122948601Y-103417333D01*
X122970557Y-103405597D01*
X122989803Y-103389803D01*
X123005597Y-103370557D01*
X123017333Y-103348601D01*
X123024560Y-103324776D01*
X123027000Y-103300000D01*
X123027000Y-92930000D01*
X123261928Y-92930000D01*
X123261928Y-93830000D01*
X123274188Y-93954482D01*
X123310498Y-94074180D01*
X123369463Y-94184494D01*
X123448815Y-94281185D01*
X123545506Y-94360537D01*
X123655820Y-94419502D01*
X123775518Y-94455812D01*
X123900000Y-94468072D01*
X125200000Y-94468072D01*
X125324482Y-94455812D01*
X125444180Y-94419502D01*
X125456405Y-94412967D01*
X125657402Y-94473938D01*
X125820479Y-94490000D01*
X126979521Y-94490000D01*
X127142598Y-94473938D01*
X127351834Y-94410468D01*
X127544666Y-94307396D01*
X127713686Y-94168686D01*
X127852396Y-93999666D01*
X127955468Y-93806834D01*
X128018938Y-93597598D01*
X128040370Y-93380000D01*
X128018938Y-93162402D01*
X128000009Y-93100000D01*
X128336807Y-93100000D01*
X128340001Y-93132429D01*
X128340000Y-110067581D01*
X128336807Y-110100000D01*
X128349550Y-110229383D01*
X128387290Y-110353793D01*
X128448575Y-110468450D01*
X128531052Y-110568948D01*
X128631550Y-110651425D01*
X128746207Y-110712710D01*
X128870617Y-110750450D01*
X129000000Y-110763193D01*
X129032419Y-110760000D01*
X149217581Y-110760000D01*
X149250000Y-110763193D01*
X149282419Y-110760000D01*
X149379383Y-110750450D01*
X149503793Y-110712710D01*
X149618450Y-110651425D01*
X149718948Y-110568948D01*
X149801425Y-110468450D01*
X149862710Y-110353793D01*
X149900450Y-110229383D01*
X149913193Y-110100000D01*
X149910000Y-110067581D01*
X149910000Y-105000000D01*
X154737815Y-105000000D01*
X154766487Y-105291111D01*
X154851401Y-105571034D01*
X154989294Y-105829014D01*
X155174866Y-106055134D01*
X155400986Y-106240706D01*
X155658966Y-106378599D01*
X155938889Y-106463513D01*
X156157050Y-106485000D01*
X156302950Y-106485000D01*
X156521111Y-106463513D01*
X156801034Y-106378599D01*
X157059014Y-106240706D01*
X157285134Y-106055134D01*
X157470706Y-105829014D01*
X157500000Y-105774209D01*
X157529294Y-105829014D01*
X157714866Y-106055134D01*
X157940986Y-106240706D01*
X158198966Y-106378599D01*
X158478889Y-106463513D01*
X158697050Y-106485000D01*
X158842950Y-106485000D01*
X159061111Y-106463513D01*
X159341034Y-106378599D01*
X159599014Y-106240706D01*
X159825134Y-106055134D01*
X160010706Y-105829014D01*
X160045201Y-105764477D01*
X160114822Y-105881355D01*
X160309731Y-106097588D01*
X160543080Y-106271641D01*
X160805901Y-106396825D01*
X160953110Y-106441476D01*
X161183000Y-106320155D01*
X161183000Y-105127000D01*
X161163000Y-105127000D01*
X161163000Y-104873000D01*
X161183000Y-104873000D01*
X161183000Y-103679845D01*
X161437000Y-103679845D01*
X161437000Y-104873000D01*
X161457000Y-104873000D01*
X161457000Y-105127000D01*
X161437000Y-105127000D01*
X161437000Y-106320155D01*
X161666890Y-106441476D01*
X161814099Y-106396825D01*
X162076920Y-106271641D01*
X162310269Y-106097588D01*
X162386034Y-106013534D01*
X162410498Y-106094180D01*
X162469463Y-106204494D01*
X162548815Y-106301185D01*
X162645506Y-106380537D01*
X162755820Y-106439502D01*
X162875518Y-106475812D01*
X163000000Y-106488072D01*
X164700000Y-106488072D01*
X164824482Y-106475812D01*
X164944180Y-106439502D01*
X165054494Y-106380537D01*
X165151185Y-106301185D01*
X165230537Y-106204494D01*
X165289502Y-106094180D01*
X165325812Y-105974482D01*
X165338072Y-105850000D01*
X165338072Y-104150000D01*
X165325812Y-104025518D01*
X165289502Y-103905820D01*
X165230537Y-103795506D01*
X165151185Y-103698815D01*
X165054494Y-103619463D01*
X164944180Y-103560498D01*
X164824482Y-103524188D01*
X164700000Y-103511928D01*
X163000000Y-103511928D01*
X162875518Y-103524188D01*
X162755820Y-103560498D01*
X162645506Y-103619463D01*
X162548815Y-103698815D01*
X162469463Y-103795506D01*
X162410498Y-103905820D01*
X162386034Y-103986466D01*
X162310269Y-103902412D01*
X162076920Y-103728359D01*
X161814099Y-103603175D01*
X161666890Y-103558524D01*
X161437000Y-103679845D01*
X161183000Y-103679845D01*
X160953110Y-103558524D01*
X160805901Y-103603175D01*
X160543080Y-103728359D01*
X160309731Y-103902412D01*
X160114822Y-104118645D01*
X160045201Y-104235523D01*
X160010706Y-104170986D01*
X159825134Y-103944866D01*
X159599014Y-103759294D01*
X159341034Y-103621401D01*
X159061111Y-103536487D01*
X158842950Y-103515000D01*
X158697050Y-103515000D01*
X158478889Y-103536487D01*
X158198966Y-103621401D01*
X157940986Y-103759294D01*
X157714866Y-103944866D01*
X157529294Y-104170986D01*
X157500000Y-104225791D01*
X157470706Y-104170986D01*
X157285134Y-103944866D01*
X157059014Y-103759294D01*
X156801034Y-103621401D01*
X156521111Y-103536487D01*
X156302950Y-103515000D01*
X156157050Y-103515000D01*
X155938889Y-103536487D01*
X155658966Y-103621401D01*
X155400986Y-103759294D01*
X155174866Y-103944866D01*
X154989294Y-104170986D01*
X154851401Y-104428966D01*
X154766487Y-104708889D01*
X154737815Y-105000000D01*
X149910000Y-105000000D01*
X149910000Y-97838967D01*
X156365000Y-97838967D01*
X156365000Y-98161033D01*
X156427832Y-98476912D01*
X156551082Y-98774463D01*
X156730013Y-99042252D01*
X156957748Y-99269987D01*
X157225537Y-99448918D01*
X157523088Y-99572168D01*
X157838967Y-99635000D01*
X158161033Y-99635000D01*
X158476912Y-99572168D01*
X158774463Y-99448918D01*
X159042252Y-99269987D01*
X159176826Y-99135413D01*
X161544192Y-99135413D01*
X161639956Y-99399814D01*
X161929571Y-99540704D01*
X162241108Y-99622384D01*
X162562595Y-99641718D01*
X162881675Y-99597961D01*
X163186088Y-99492795D01*
X163360044Y-99399814D01*
X163455808Y-99135413D01*
X162500000Y-98179605D01*
X161544192Y-99135413D01*
X159176826Y-99135413D01*
X159269987Y-99042252D01*
X159448918Y-98774463D01*
X159572168Y-98476912D01*
X159635000Y-98161033D01*
X159635000Y-98062595D01*
X160858282Y-98062595D01*
X160902039Y-98381675D01*
X161007205Y-98686088D01*
X161100186Y-98860044D01*
X161364587Y-98955808D01*
X162320395Y-98000000D01*
X162679605Y-98000000D01*
X163635413Y-98955808D01*
X163899814Y-98860044D01*
X164040704Y-98570429D01*
X164122384Y-98258892D01*
X164141718Y-97937405D01*
X164097961Y-97618325D01*
X163992795Y-97313912D01*
X163899814Y-97139956D01*
X163635413Y-97044192D01*
X162679605Y-98000000D01*
X162320395Y-98000000D01*
X161364587Y-97044192D01*
X161100186Y-97139956D01*
X160959296Y-97429571D01*
X160877616Y-97741108D01*
X160858282Y-98062595D01*
X159635000Y-98062595D01*
X159635000Y-97838967D01*
X159572168Y-97523088D01*
X159448918Y-97225537D01*
X159269987Y-96957748D01*
X159176826Y-96864587D01*
X161544192Y-96864587D01*
X162500000Y-97820395D01*
X163455808Y-96864587D01*
X163360044Y-96600186D01*
X163070429Y-96459296D01*
X162758892Y-96377616D01*
X162437405Y-96358282D01*
X162118325Y-96402039D01*
X161813912Y-96507205D01*
X161639956Y-96600186D01*
X161544192Y-96864587D01*
X159176826Y-96864587D01*
X159042252Y-96730013D01*
X158774463Y-96551082D01*
X158476912Y-96427832D01*
X158161033Y-96365000D01*
X157838967Y-96365000D01*
X157523088Y-96427832D01*
X157225537Y-96551082D01*
X156957748Y-96730013D01*
X156730013Y-96957748D01*
X156551082Y-97225537D01*
X156427832Y-97523088D01*
X156365000Y-97838967D01*
X149910000Y-97838967D01*
X149910000Y-93350000D01*
X150159630Y-93350000D01*
X150181062Y-93567598D01*
X150244532Y-93776834D01*
X150347604Y-93969666D01*
X150486314Y-94138686D01*
X150655334Y-94277396D01*
X150848166Y-94380468D01*
X151057402Y-94443938D01*
X151220479Y-94460000D01*
X152379521Y-94460000D01*
X152542598Y-94443938D01*
X152743595Y-94382967D01*
X152755820Y-94389502D01*
X152875518Y-94425812D01*
X153000000Y-94438072D01*
X153364250Y-94435000D01*
X153523000Y-94276250D01*
X153523000Y-93477000D01*
X153777000Y-93477000D01*
X153777000Y-94276250D01*
X153935750Y-94435000D01*
X154300000Y-94438072D01*
X154424482Y-94425812D01*
X154544180Y-94389502D01*
X154654494Y-94330537D01*
X154751185Y-94251185D01*
X154830537Y-94154494D01*
X154889502Y-94044180D01*
X154925812Y-93924482D01*
X154938072Y-93800000D01*
X154935000Y-93635750D01*
X154776250Y-93477000D01*
X153777000Y-93477000D01*
X153523000Y-93477000D01*
X153503000Y-93477000D01*
X153503000Y-93223000D01*
X153523000Y-93223000D01*
X153523000Y-92423750D01*
X153777000Y-92423750D01*
X153777000Y-93223000D01*
X154776250Y-93223000D01*
X154935000Y-93064250D01*
X154938072Y-92900000D01*
X154925812Y-92775518D01*
X154889502Y-92655820D01*
X154830537Y-92545506D01*
X154751185Y-92448815D01*
X154654494Y-92369463D01*
X154544180Y-92310498D01*
X154424482Y-92274188D01*
X154300000Y-92261928D01*
X153935750Y-92265000D01*
X153777000Y-92423750D01*
X153523000Y-92423750D01*
X153364250Y-92265000D01*
X153000000Y-92261928D01*
X152875518Y-92274188D01*
X152755820Y-92310498D01*
X152743595Y-92317033D01*
X152542598Y-92256062D01*
X152379521Y-92240000D01*
X151220479Y-92240000D01*
X151057402Y-92256062D01*
X150848166Y-92319532D01*
X150655334Y-92422604D01*
X150486314Y-92561314D01*
X150347604Y-92730334D01*
X150244532Y-92923166D01*
X150181062Y-93132402D01*
X150159630Y-93350000D01*
X149910000Y-93350000D01*
X149910000Y-93132419D01*
X149913193Y-93100000D01*
X149900450Y-92970617D01*
X149862710Y-92846207D01*
X149801425Y-92731550D01*
X149718948Y-92631052D01*
X149618450Y-92548575D01*
X149503793Y-92487290D01*
X149379383Y-92449550D01*
X149282419Y-92440000D01*
X149250000Y-92436807D01*
X149217581Y-92440000D01*
X129032419Y-92440000D01*
X129000000Y-92436807D01*
X128967581Y-92440000D01*
X128870617Y-92449550D01*
X128746207Y-92487290D01*
X128631550Y-92548575D01*
X128531052Y-92631052D01*
X128448575Y-92731550D01*
X128387290Y-92846207D01*
X128349550Y-92970617D01*
X128336807Y-93100000D01*
X128000009Y-93100000D01*
X127955468Y-92953166D01*
X127852396Y-92760334D01*
X127713686Y-92591314D01*
X127544666Y-92452604D01*
X127351834Y-92349532D01*
X127142598Y-92286062D01*
X126979521Y-92270000D01*
X125820479Y-92270000D01*
X125657402Y-92286062D01*
X125456405Y-92347033D01*
X125444180Y-92340498D01*
X125324482Y-92304188D01*
X125200000Y-92291928D01*
X123900000Y-92291928D01*
X123775518Y-92304188D01*
X123655820Y-92340498D01*
X123545506Y-92399463D01*
X123448815Y-92478815D01*
X123369463Y-92575506D01*
X123310498Y-92685820D01*
X123274188Y-92805518D01*
X123261928Y-92930000D01*
X123027000Y-92930000D01*
X123027000Y-90390000D01*
X123261928Y-90390000D01*
X123261928Y-91290000D01*
X123274188Y-91414482D01*
X123310498Y-91534180D01*
X123369463Y-91644494D01*
X123448815Y-91741185D01*
X123545506Y-91820537D01*
X123655820Y-91879502D01*
X123775518Y-91915812D01*
X123900000Y-91928072D01*
X125200000Y-91928072D01*
X125324482Y-91915812D01*
X125444180Y-91879502D01*
X125456405Y-91872967D01*
X125657402Y-91933938D01*
X125820479Y-91950000D01*
X126979521Y-91950000D01*
X127142598Y-91933938D01*
X127351834Y-91870468D01*
X127544666Y-91767396D01*
X127713686Y-91628686D01*
X127852396Y-91459666D01*
X127955468Y-91266834D01*
X128018938Y-91057598D01*
X128040370Y-90840000D01*
X128037416Y-90810000D01*
X150159630Y-90810000D01*
X150181062Y-91027598D01*
X150244532Y-91236834D01*
X150347604Y-91429666D01*
X150486314Y-91598686D01*
X150655334Y-91737396D01*
X150848166Y-91840468D01*
X151057402Y-91903938D01*
X151220479Y-91920000D01*
X152379521Y-91920000D01*
X152542598Y-91903938D01*
X152743595Y-91842967D01*
X152755820Y-91849502D01*
X152875518Y-91885812D01*
X153000000Y-91898072D01*
X154300000Y-91898072D01*
X154424482Y-91885812D01*
X154544180Y-91849502D01*
X154654494Y-91790537D01*
X154751185Y-91711185D01*
X154830537Y-91614494D01*
X154889502Y-91504180D01*
X154925812Y-91384482D01*
X154930294Y-91338967D01*
X156365000Y-91338967D01*
X156365000Y-91661033D01*
X156427832Y-91976912D01*
X156551082Y-92274463D01*
X156730013Y-92542252D01*
X156957748Y-92769987D01*
X157225537Y-92948918D01*
X157523088Y-93072168D01*
X157838967Y-93135000D01*
X158161033Y-93135000D01*
X158476912Y-93072168D01*
X158774463Y-92948918D01*
X159042252Y-92769987D01*
X159176826Y-92635413D01*
X161544192Y-92635413D01*
X161639956Y-92899814D01*
X161929571Y-93040704D01*
X162241108Y-93122384D01*
X162562595Y-93141718D01*
X162881675Y-93097961D01*
X163186088Y-92992795D01*
X163360044Y-92899814D01*
X163455808Y-92635413D01*
X162500000Y-91679605D01*
X161544192Y-92635413D01*
X159176826Y-92635413D01*
X159269987Y-92542252D01*
X159448918Y-92274463D01*
X159572168Y-91976912D01*
X159635000Y-91661033D01*
X159635000Y-91562595D01*
X160858282Y-91562595D01*
X160902039Y-91881675D01*
X161007205Y-92186088D01*
X161100186Y-92360044D01*
X161364587Y-92455808D01*
X162320395Y-91500000D01*
X162679605Y-91500000D01*
X163635413Y-92455808D01*
X163899814Y-92360044D01*
X164040704Y-92070429D01*
X164122384Y-91758892D01*
X164141718Y-91437405D01*
X164097961Y-91118325D01*
X163992795Y-90813912D01*
X163899814Y-90639956D01*
X163635413Y-90544192D01*
X162679605Y-91500000D01*
X162320395Y-91500000D01*
X161364587Y-90544192D01*
X161100186Y-90639956D01*
X160959296Y-90929571D01*
X160877616Y-91241108D01*
X160858282Y-91562595D01*
X159635000Y-91562595D01*
X159635000Y-91338967D01*
X159572168Y-91023088D01*
X159448918Y-90725537D01*
X159269987Y-90457748D01*
X159176826Y-90364587D01*
X161544192Y-90364587D01*
X162500000Y-91320395D01*
X163455808Y-90364587D01*
X163360044Y-90100186D01*
X163070429Y-89959296D01*
X162758892Y-89877616D01*
X162437405Y-89858282D01*
X162118325Y-89902039D01*
X161813912Y-90007205D01*
X161639956Y-90100186D01*
X161544192Y-90364587D01*
X159176826Y-90364587D01*
X159042252Y-90230013D01*
X158774463Y-90051082D01*
X158476912Y-89927832D01*
X158161033Y-89865000D01*
X157838967Y-89865000D01*
X157523088Y-89927832D01*
X157225537Y-90051082D01*
X156957748Y-90230013D01*
X156730013Y-90457748D01*
X156551082Y-90725537D01*
X156427832Y-91023088D01*
X156365000Y-91338967D01*
X154930294Y-91338967D01*
X154938072Y-91260000D01*
X154938072Y-90360000D01*
X154925812Y-90235518D01*
X154889502Y-90115820D01*
X154830537Y-90005506D01*
X154751185Y-89908815D01*
X154654494Y-89829463D01*
X154544180Y-89770498D01*
X154424482Y-89734188D01*
X154300000Y-89721928D01*
X153000000Y-89721928D01*
X152875518Y-89734188D01*
X152755820Y-89770498D01*
X152743595Y-89777033D01*
X152542598Y-89716062D01*
X152379521Y-89700000D01*
X151220479Y-89700000D01*
X151057402Y-89716062D01*
X150848166Y-89779532D01*
X150655334Y-89882604D01*
X150486314Y-90021314D01*
X150347604Y-90190334D01*
X150244532Y-90383166D01*
X150181062Y-90592402D01*
X150159630Y-90810000D01*
X128037416Y-90810000D01*
X128018938Y-90622402D01*
X127955468Y-90413166D01*
X127852396Y-90220334D01*
X127713686Y-90051314D01*
X127544666Y-89912604D01*
X127351834Y-89809532D01*
X127142598Y-89746062D01*
X126979521Y-89730000D01*
X125820479Y-89730000D01*
X125657402Y-89746062D01*
X125456405Y-89807033D01*
X125444180Y-89800498D01*
X125324482Y-89764188D01*
X125200000Y-89751928D01*
X123900000Y-89751928D01*
X123775518Y-89764188D01*
X123655820Y-89800498D01*
X123545506Y-89859463D01*
X123448815Y-89938815D01*
X123369463Y-90035506D01*
X123310498Y-90145820D01*
X123274188Y-90265518D01*
X123261928Y-90390000D01*
X123027000Y-90390000D01*
X123027000Y-88750000D01*
X123261928Y-88750000D01*
X123274188Y-88874482D01*
X123310498Y-88994180D01*
X123369463Y-89104494D01*
X123448815Y-89201185D01*
X123545506Y-89280537D01*
X123655820Y-89339502D01*
X123775518Y-89375812D01*
X123900000Y-89388072D01*
X124264250Y-89385000D01*
X124423000Y-89226250D01*
X124423000Y-88427000D01*
X123423750Y-88427000D01*
X123265000Y-88585750D01*
X123261928Y-88750000D01*
X123027000Y-88750000D01*
X123027000Y-87850000D01*
X123261928Y-87850000D01*
X123265000Y-88014250D01*
X123423750Y-88173000D01*
X124423000Y-88173000D01*
X124423000Y-87373750D01*
X124677000Y-87373750D01*
X124677000Y-88173000D01*
X124697000Y-88173000D01*
X124697000Y-88427000D01*
X124677000Y-88427000D01*
X124677000Y-89226250D01*
X124835750Y-89385000D01*
X125200000Y-89388072D01*
X125324482Y-89375812D01*
X125444180Y-89339502D01*
X125456405Y-89332967D01*
X125657402Y-89393938D01*
X125820479Y-89410000D01*
X126979521Y-89410000D01*
X127142598Y-89393938D01*
X127351834Y-89330468D01*
X127544666Y-89227396D01*
X127713686Y-89088686D01*
X127852396Y-88919666D01*
X127955468Y-88726834D01*
X128018938Y-88517598D01*
X128040370Y-88300000D01*
X128037416Y-88270000D01*
X150159630Y-88270000D01*
X150181062Y-88487598D01*
X150244532Y-88696834D01*
X150347604Y-88889666D01*
X150486314Y-89058686D01*
X150655334Y-89197396D01*
X150848166Y-89300468D01*
X151057402Y-89363938D01*
X151220479Y-89380000D01*
X152379521Y-89380000D01*
X152542598Y-89363938D01*
X152743595Y-89302967D01*
X152755820Y-89309502D01*
X152875518Y-89345812D01*
X153000000Y-89358072D01*
X154300000Y-89358072D01*
X154424482Y-89345812D01*
X154544180Y-89309502D01*
X154654494Y-89250537D01*
X154751185Y-89171185D01*
X154830537Y-89074494D01*
X154889502Y-88964180D01*
X154925812Y-88844482D01*
X154938072Y-88720000D01*
X154938072Y-87820000D01*
X154925812Y-87695518D01*
X154889502Y-87575820D01*
X154830537Y-87465506D01*
X154751185Y-87368815D01*
X154654494Y-87289463D01*
X154544180Y-87230498D01*
X154424482Y-87194188D01*
X154300000Y-87181928D01*
X153000000Y-87181928D01*
X152875518Y-87194188D01*
X152755820Y-87230498D01*
X152743595Y-87237033D01*
X152542598Y-87176062D01*
X152379521Y-87160000D01*
X151220479Y-87160000D01*
X151057402Y-87176062D01*
X150848166Y-87239532D01*
X150655334Y-87342604D01*
X150486314Y-87481314D01*
X150347604Y-87650334D01*
X150244532Y-87843166D01*
X150181062Y-88052402D01*
X150159630Y-88270000D01*
X128037416Y-88270000D01*
X128018938Y-88082402D01*
X127955468Y-87873166D01*
X127852396Y-87680334D01*
X127713686Y-87511314D01*
X127544666Y-87372604D01*
X127351834Y-87269532D01*
X127142598Y-87206062D01*
X126979521Y-87190000D01*
X125820479Y-87190000D01*
X125657402Y-87206062D01*
X125456405Y-87267033D01*
X125444180Y-87260498D01*
X125324482Y-87224188D01*
X125200000Y-87211928D01*
X124835750Y-87215000D01*
X124677000Y-87373750D01*
X124423000Y-87373750D01*
X124264250Y-87215000D01*
X123900000Y-87211928D01*
X123775518Y-87224188D01*
X123655820Y-87260498D01*
X123545506Y-87319463D01*
X123448815Y-87398815D01*
X123369463Y-87495506D01*
X123310498Y-87605820D01*
X123274188Y-87725518D01*
X123261928Y-87850000D01*
X123027000Y-87850000D01*
X123027000Y-85310000D01*
X123261928Y-85310000D01*
X123261928Y-86210000D01*
X123274188Y-86334482D01*
X123310498Y-86454180D01*
X123369463Y-86564494D01*
X123448815Y-86661185D01*
X123545506Y-86740537D01*
X123655820Y-86799502D01*
X123775518Y-86835812D01*
X123900000Y-86848072D01*
X125200000Y-86848072D01*
X125324482Y-86835812D01*
X125444180Y-86799502D01*
X125456405Y-86792967D01*
X125657402Y-86853938D01*
X125820479Y-86870000D01*
X126979521Y-86870000D01*
X127142598Y-86853938D01*
X127351834Y-86790468D01*
X127544666Y-86687396D01*
X127713686Y-86548686D01*
X127852396Y-86379666D01*
X127955468Y-86186834D01*
X128018938Y-85977598D01*
X128040370Y-85760000D01*
X128037416Y-85730000D01*
X150159630Y-85730000D01*
X150181062Y-85947598D01*
X150244532Y-86156834D01*
X150347604Y-86349666D01*
X150486314Y-86518686D01*
X150655334Y-86657396D01*
X150848166Y-86760468D01*
X151057402Y-86823938D01*
X151220479Y-86840000D01*
X152379521Y-86840000D01*
X152542598Y-86823938D01*
X152743595Y-86762967D01*
X152755820Y-86769502D01*
X152875518Y-86805812D01*
X153000000Y-86818072D01*
X154300000Y-86818072D01*
X154424482Y-86805812D01*
X154544180Y-86769502D01*
X154654494Y-86710537D01*
X154751185Y-86631185D01*
X154830537Y-86534494D01*
X154889502Y-86424180D01*
X154925812Y-86304482D01*
X154938072Y-86180000D01*
X154938072Y-85280000D01*
X154925812Y-85155518D01*
X154889502Y-85035820D01*
X154830537Y-84925506D01*
X154751185Y-84828815D01*
X154654494Y-84749463D01*
X154544180Y-84690498D01*
X154424482Y-84654188D01*
X154300000Y-84641928D01*
X153000000Y-84641928D01*
X152875518Y-84654188D01*
X152755820Y-84690498D01*
X152743595Y-84697033D01*
X152542598Y-84636062D01*
X152379521Y-84620000D01*
X151220479Y-84620000D01*
X151057402Y-84636062D01*
X150848166Y-84699532D01*
X150655334Y-84802604D01*
X150486314Y-84941314D01*
X150347604Y-85110334D01*
X150244532Y-85303166D01*
X150181062Y-85512402D01*
X150159630Y-85730000D01*
X128037416Y-85730000D01*
X128018938Y-85542402D01*
X127955468Y-85333166D01*
X127852396Y-85140334D01*
X127713686Y-84971314D01*
X127544666Y-84832604D01*
X127351834Y-84729532D01*
X127142598Y-84666062D01*
X126979521Y-84650000D01*
X125820479Y-84650000D01*
X125657402Y-84666062D01*
X125456405Y-84727033D01*
X125444180Y-84720498D01*
X125324482Y-84684188D01*
X125200000Y-84671928D01*
X123900000Y-84671928D01*
X123775518Y-84684188D01*
X123655820Y-84720498D01*
X123545506Y-84779463D01*
X123448815Y-84858815D01*
X123369463Y-84955506D01*
X123310498Y-85065820D01*
X123274188Y-85185518D01*
X123261928Y-85310000D01*
X123027000Y-85310000D01*
X123027000Y-83670000D01*
X123261928Y-83670000D01*
X123274188Y-83794482D01*
X123310498Y-83914180D01*
X123369463Y-84024494D01*
X123448815Y-84121185D01*
X123545506Y-84200537D01*
X123655820Y-84259502D01*
X123775518Y-84295812D01*
X123900000Y-84308072D01*
X124264250Y-84305000D01*
X124423000Y-84146250D01*
X124423000Y-83347000D01*
X123423750Y-83347000D01*
X123265000Y-83505750D01*
X123261928Y-83670000D01*
X123027000Y-83670000D01*
X123027000Y-82770000D01*
X123261928Y-82770000D01*
X123265000Y-82934250D01*
X123423750Y-83093000D01*
X124423000Y-83093000D01*
X124423000Y-82293750D01*
X124677000Y-82293750D01*
X124677000Y-83093000D01*
X124697000Y-83093000D01*
X124697000Y-83347000D01*
X124677000Y-83347000D01*
X124677000Y-84146250D01*
X124835750Y-84305000D01*
X125200000Y-84308072D01*
X125324482Y-84295812D01*
X125444180Y-84259502D01*
X125456405Y-84252967D01*
X125657402Y-84313938D01*
X125820479Y-84330000D01*
X126979521Y-84330000D01*
X127142598Y-84313938D01*
X127351834Y-84250468D01*
X127544666Y-84147396D01*
X127713686Y-84008686D01*
X127852396Y-83839666D01*
X127955468Y-83646834D01*
X128018938Y-83437598D01*
X128040370Y-83220000D01*
X128037416Y-83190000D01*
X150159630Y-83190000D01*
X150181062Y-83407598D01*
X150244532Y-83616834D01*
X150347604Y-83809666D01*
X150486314Y-83978686D01*
X150655334Y-84117396D01*
X150848166Y-84220468D01*
X151057402Y-84283938D01*
X151220479Y-84300000D01*
X152379521Y-84300000D01*
X152542598Y-84283938D01*
X152743595Y-84222967D01*
X152755820Y-84229502D01*
X152875518Y-84265812D01*
X153000000Y-84278072D01*
X154300000Y-84278072D01*
X154424482Y-84265812D01*
X154544180Y-84229502D01*
X154654494Y-84170537D01*
X154751185Y-84091185D01*
X154830537Y-83994494D01*
X154889502Y-83884180D01*
X154925812Y-83764482D01*
X154938072Y-83640000D01*
X154938072Y-82740000D01*
X154925812Y-82615518D01*
X154889502Y-82495820D01*
X154830537Y-82385506D01*
X154751185Y-82288815D01*
X154654494Y-82209463D01*
X154544180Y-82150498D01*
X154424482Y-82114188D01*
X154300000Y-82101928D01*
X153000000Y-82101928D01*
X152875518Y-82114188D01*
X152755820Y-82150498D01*
X152743595Y-82157033D01*
X152542598Y-82096062D01*
X152379521Y-82080000D01*
X151220479Y-82080000D01*
X151057402Y-82096062D01*
X150848166Y-82159532D01*
X150655334Y-82262604D01*
X150486314Y-82401314D01*
X150347604Y-82570334D01*
X150244532Y-82763166D01*
X150181062Y-82972402D01*
X150159630Y-83190000D01*
X128037416Y-83190000D01*
X128018938Y-83002402D01*
X127955468Y-82793166D01*
X127852396Y-82600334D01*
X127713686Y-82431314D01*
X127544666Y-82292604D01*
X127351834Y-82189532D01*
X127142598Y-82126062D01*
X126979521Y-82110000D01*
X125820479Y-82110000D01*
X125657402Y-82126062D01*
X125456405Y-82187033D01*
X125444180Y-82180498D01*
X125324482Y-82144188D01*
X125200000Y-82131928D01*
X124835750Y-82135000D01*
X124677000Y-82293750D01*
X124423000Y-82293750D01*
X124264250Y-82135000D01*
X123900000Y-82131928D01*
X123775518Y-82144188D01*
X123655820Y-82180498D01*
X123545506Y-82239463D01*
X123448815Y-82318815D01*
X123369463Y-82415506D01*
X123310498Y-82525820D01*
X123274188Y-82645518D01*
X123261928Y-82770000D01*
X123027000Y-82770000D01*
X123027000Y-80230000D01*
X123261928Y-80230000D01*
X123261928Y-81130000D01*
X123274188Y-81254482D01*
X123310498Y-81374180D01*
X123369463Y-81484494D01*
X123448815Y-81581185D01*
X123545506Y-81660537D01*
X123655820Y-81719502D01*
X123775518Y-81755812D01*
X123900000Y-81768072D01*
X125200000Y-81768072D01*
X125324482Y-81755812D01*
X125444180Y-81719502D01*
X125456405Y-81712967D01*
X125657402Y-81773938D01*
X125820479Y-81790000D01*
X126979521Y-81790000D01*
X127142598Y-81773938D01*
X127351834Y-81710468D01*
X127544666Y-81607396D01*
X127713686Y-81468686D01*
X127852396Y-81299666D01*
X127955468Y-81106834D01*
X128018938Y-80897598D01*
X128040370Y-80680000D01*
X128037416Y-80650000D01*
X150159630Y-80650000D01*
X150181062Y-80867598D01*
X150244532Y-81076834D01*
X150347604Y-81269666D01*
X150486314Y-81438686D01*
X150655334Y-81577396D01*
X150848166Y-81680468D01*
X151057402Y-81743938D01*
X151220479Y-81760000D01*
X152379521Y-81760000D01*
X152542598Y-81743938D01*
X152743595Y-81682967D01*
X152755820Y-81689502D01*
X152875518Y-81725812D01*
X153000000Y-81738072D01*
X154300000Y-81738072D01*
X154424482Y-81725812D01*
X154544180Y-81689502D01*
X154654494Y-81630537D01*
X154751185Y-81551185D01*
X154830537Y-81454494D01*
X154889502Y-81344180D01*
X154925812Y-81224482D01*
X154938072Y-81100000D01*
X154938072Y-80200000D01*
X154925812Y-80075518D01*
X154889502Y-79955820D01*
X154830537Y-79845506D01*
X154751185Y-79748815D01*
X154654494Y-79669463D01*
X154544180Y-79610498D01*
X154424482Y-79574188D01*
X154300000Y-79561928D01*
X153000000Y-79561928D01*
X152875518Y-79574188D01*
X152755820Y-79610498D01*
X152743595Y-79617033D01*
X152542598Y-79556062D01*
X152379521Y-79540000D01*
X151220479Y-79540000D01*
X151057402Y-79556062D01*
X150848166Y-79619532D01*
X150655334Y-79722604D01*
X150486314Y-79861314D01*
X150347604Y-80030334D01*
X150244532Y-80223166D01*
X150181062Y-80432402D01*
X150159630Y-80650000D01*
X128037416Y-80650000D01*
X128018938Y-80462402D01*
X127955468Y-80253166D01*
X127852396Y-80060334D01*
X127713686Y-79891314D01*
X127544666Y-79752604D01*
X127351834Y-79649532D01*
X127142598Y-79586062D01*
X126979521Y-79570000D01*
X125820479Y-79570000D01*
X125657402Y-79586062D01*
X125456405Y-79647033D01*
X125444180Y-79640498D01*
X125324482Y-79604188D01*
X125200000Y-79591928D01*
X123900000Y-79591928D01*
X123775518Y-79604188D01*
X123655820Y-79640498D01*
X123545506Y-79699463D01*
X123448815Y-79778815D01*
X123369463Y-79875506D01*
X123310498Y-79985820D01*
X123274188Y-80105518D01*
X123261928Y-80230000D01*
X123027000Y-80230000D01*
X123027000Y-77690000D01*
X123261928Y-77690000D01*
X123261928Y-78590000D01*
X123274188Y-78714482D01*
X123310498Y-78834180D01*
X123369463Y-78944494D01*
X123448815Y-79041185D01*
X123545506Y-79120537D01*
X123655820Y-79179502D01*
X123775518Y-79215812D01*
X123900000Y-79228072D01*
X125200000Y-79228072D01*
X125324482Y-79215812D01*
X125444180Y-79179502D01*
X125456405Y-79172967D01*
X125657402Y-79233938D01*
X125820479Y-79250000D01*
X126979521Y-79250000D01*
X127142598Y-79233938D01*
X127351834Y-79170468D01*
X127544666Y-79067396D01*
X127713686Y-78928686D01*
X127852396Y-78759666D01*
X127955468Y-78566834D01*
X128018938Y-78357598D01*
X128040370Y-78140000D01*
X128037416Y-78110000D01*
X150159630Y-78110000D01*
X150181062Y-78327598D01*
X150244532Y-78536834D01*
X150347604Y-78729666D01*
X150486314Y-78898686D01*
X150655334Y-79037396D01*
X150848166Y-79140468D01*
X151057402Y-79203938D01*
X151220479Y-79220000D01*
X152379521Y-79220000D01*
X152542598Y-79203938D01*
X152743595Y-79142967D01*
X152755820Y-79149502D01*
X152875518Y-79185812D01*
X153000000Y-79198072D01*
X154300000Y-79198072D01*
X154424482Y-79185812D01*
X154544180Y-79149502D01*
X154654494Y-79090537D01*
X154751185Y-79011185D01*
X154830537Y-78914494D01*
X154889502Y-78804180D01*
X154925812Y-78684482D01*
X154938072Y-78560000D01*
X154938072Y-77660000D01*
X154925812Y-77535518D01*
X154889502Y-77415820D01*
X154830537Y-77305506D01*
X154751185Y-77208815D01*
X154654494Y-77129463D01*
X154544180Y-77070498D01*
X154424482Y-77034188D01*
X154300000Y-77021928D01*
X153000000Y-77021928D01*
X152875518Y-77034188D01*
X152755820Y-77070498D01*
X152743595Y-77077033D01*
X152542598Y-77016062D01*
X152379521Y-77000000D01*
X151220479Y-77000000D01*
X151057402Y-77016062D01*
X150848166Y-77079532D01*
X150655334Y-77182604D01*
X150486314Y-77321314D01*
X150347604Y-77490334D01*
X150244532Y-77683166D01*
X150181062Y-77892402D01*
X150159630Y-78110000D01*
X128037416Y-78110000D01*
X128018938Y-77922402D01*
X127955468Y-77713166D01*
X127852396Y-77520334D01*
X127713686Y-77351314D01*
X127544666Y-77212604D01*
X127351834Y-77109532D01*
X127142598Y-77046062D01*
X126979521Y-77030000D01*
X125820479Y-77030000D01*
X125657402Y-77046062D01*
X125456405Y-77107033D01*
X125444180Y-77100498D01*
X125324482Y-77064188D01*
X125200000Y-77051928D01*
X123900000Y-77051928D01*
X123775518Y-77064188D01*
X123655820Y-77100498D01*
X123545506Y-77159463D01*
X123448815Y-77238815D01*
X123369463Y-77335506D01*
X123310498Y-77445820D01*
X123274188Y-77565518D01*
X123261928Y-77690000D01*
X123027000Y-77690000D01*
X123027000Y-75150000D01*
X123261928Y-75150000D01*
X123261928Y-76050000D01*
X123274188Y-76174482D01*
X123310498Y-76294180D01*
X123369463Y-76404494D01*
X123448815Y-76501185D01*
X123545506Y-76580537D01*
X123655820Y-76639502D01*
X123775518Y-76675812D01*
X123900000Y-76688072D01*
X125200000Y-76688072D01*
X125324482Y-76675812D01*
X125444180Y-76639502D01*
X125456405Y-76632967D01*
X125657402Y-76693938D01*
X125820479Y-76710000D01*
X126979521Y-76710000D01*
X127142598Y-76693938D01*
X127351834Y-76630468D01*
X127544666Y-76527396D01*
X127713686Y-76388686D01*
X127852396Y-76219666D01*
X127955468Y-76026834D01*
X128018938Y-75817598D01*
X128040370Y-75600000D01*
X128037416Y-75570000D01*
X150159630Y-75570000D01*
X150181062Y-75787598D01*
X150244532Y-75996834D01*
X150347604Y-76189666D01*
X150486314Y-76358686D01*
X150655334Y-76497396D01*
X150848166Y-76600468D01*
X151057402Y-76663938D01*
X151220479Y-76680000D01*
X152379521Y-76680000D01*
X152542598Y-76663938D01*
X152743595Y-76602967D01*
X152755820Y-76609502D01*
X152875518Y-76645812D01*
X153000000Y-76658072D01*
X154300000Y-76658072D01*
X154424482Y-76645812D01*
X154544180Y-76609502D01*
X154654494Y-76550537D01*
X154751185Y-76471185D01*
X154830537Y-76374494D01*
X154889502Y-76264180D01*
X154925812Y-76144482D01*
X154938072Y-76020000D01*
X154938072Y-75120000D01*
X154925812Y-74995518D01*
X154889502Y-74875820D01*
X154830537Y-74765506D01*
X154751185Y-74668815D01*
X154654494Y-74589463D01*
X154544180Y-74530498D01*
X154424482Y-74494188D01*
X154300000Y-74481928D01*
X153000000Y-74481928D01*
X152875518Y-74494188D01*
X152755820Y-74530498D01*
X152743595Y-74537033D01*
X152542598Y-74476062D01*
X152379521Y-74460000D01*
X151220479Y-74460000D01*
X151057402Y-74476062D01*
X150848166Y-74539532D01*
X150655334Y-74642604D01*
X150486314Y-74781314D01*
X150347604Y-74950334D01*
X150244532Y-75143166D01*
X150181062Y-75352402D01*
X150159630Y-75570000D01*
X128037416Y-75570000D01*
X128018938Y-75382402D01*
X127955468Y-75173166D01*
X127852396Y-74980334D01*
X127713686Y-74811314D01*
X127544666Y-74672604D01*
X127351834Y-74569532D01*
X127142598Y-74506062D01*
X126979521Y-74490000D01*
X125820479Y-74490000D01*
X125657402Y-74506062D01*
X125456405Y-74567033D01*
X125444180Y-74560498D01*
X125324482Y-74524188D01*
X125200000Y-74511928D01*
X123900000Y-74511928D01*
X123775518Y-74524188D01*
X123655820Y-74560498D01*
X123545506Y-74619463D01*
X123448815Y-74698815D01*
X123369463Y-74795506D01*
X123310498Y-74905820D01*
X123274188Y-75025518D01*
X123261928Y-75150000D01*
X123027000Y-75150000D01*
X123027000Y-72610000D01*
X123261928Y-72610000D01*
X123261928Y-73510000D01*
X123274188Y-73634482D01*
X123310498Y-73754180D01*
X123369463Y-73864494D01*
X123448815Y-73961185D01*
X123545506Y-74040537D01*
X123655820Y-74099502D01*
X123775518Y-74135812D01*
X123900000Y-74148072D01*
X125200000Y-74148072D01*
X125324482Y-74135812D01*
X125444180Y-74099502D01*
X125456405Y-74092967D01*
X125657402Y-74153938D01*
X125820479Y-74170000D01*
X126979521Y-74170000D01*
X127142598Y-74153938D01*
X127351834Y-74090468D01*
X127544666Y-73987396D01*
X127713686Y-73848686D01*
X127852396Y-73679666D01*
X127955468Y-73486834D01*
X128018938Y-73277598D01*
X128040370Y-73060000D01*
X128037416Y-73030000D01*
X150159630Y-73030000D01*
X150181062Y-73247598D01*
X150244532Y-73456834D01*
X150347604Y-73649666D01*
X150486314Y-73818686D01*
X150655334Y-73957396D01*
X150848166Y-74060468D01*
X151057402Y-74123938D01*
X151220479Y-74140000D01*
X152379521Y-74140000D01*
X152542598Y-74123938D01*
X152743595Y-74062967D01*
X152755820Y-74069502D01*
X152875518Y-74105812D01*
X153000000Y-74118072D01*
X154300000Y-74118072D01*
X154424482Y-74105812D01*
X154544180Y-74069502D01*
X154654494Y-74010537D01*
X154751185Y-73931185D01*
X154830537Y-73834494D01*
X154889502Y-73724180D01*
X154925812Y-73604482D01*
X154938072Y-73480000D01*
X154938072Y-72580000D01*
X154925812Y-72455518D01*
X154889502Y-72335820D01*
X154830537Y-72225506D01*
X154751185Y-72128815D01*
X154654494Y-72049463D01*
X154544180Y-71990498D01*
X154424482Y-71954188D01*
X154300000Y-71941928D01*
X153000000Y-71941928D01*
X152875518Y-71954188D01*
X152755820Y-71990498D01*
X152743595Y-71997033D01*
X152542598Y-71936062D01*
X152379521Y-71920000D01*
X151220479Y-71920000D01*
X151057402Y-71936062D01*
X150848166Y-71999532D01*
X150655334Y-72102604D01*
X150486314Y-72241314D01*
X150347604Y-72410334D01*
X150244532Y-72603166D01*
X150181062Y-72812402D01*
X150159630Y-73030000D01*
X128037416Y-73030000D01*
X128018938Y-72842402D01*
X127955468Y-72633166D01*
X127852396Y-72440334D01*
X127713686Y-72271314D01*
X127544666Y-72132604D01*
X127351834Y-72029532D01*
X127142598Y-71966062D01*
X126979521Y-71950000D01*
X125820479Y-71950000D01*
X125657402Y-71966062D01*
X125456405Y-72027033D01*
X125444180Y-72020498D01*
X125324482Y-71984188D01*
X125200000Y-71971928D01*
X123900000Y-71971928D01*
X123775518Y-71984188D01*
X123655820Y-72020498D01*
X123545506Y-72079463D01*
X123448815Y-72158815D01*
X123369463Y-72255506D01*
X123310498Y-72365820D01*
X123274188Y-72485518D01*
X123261928Y-72610000D01*
X123027000Y-72610000D01*
X123027000Y-70070000D01*
X123261928Y-70070000D01*
X123261928Y-70970000D01*
X123274188Y-71094482D01*
X123310498Y-71214180D01*
X123369463Y-71324494D01*
X123448815Y-71421185D01*
X123545506Y-71500537D01*
X123655820Y-71559502D01*
X123775518Y-71595812D01*
X123900000Y-71608072D01*
X125200000Y-71608072D01*
X125324482Y-71595812D01*
X125444180Y-71559502D01*
X125456405Y-71552967D01*
X125657402Y-71613938D01*
X125820479Y-71630000D01*
X126979521Y-71630000D01*
X127142598Y-71613938D01*
X127351834Y-71550468D01*
X127544666Y-71447396D01*
X127713686Y-71308686D01*
X127852396Y-71139666D01*
X127955468Y-70946834D01*
X128018938Y-70737598D01*
X128040370Y-70520000D01*
X128037416Y-70490000D01*
X150159630Y-70490000D01*
X150181062Y-70707598D01*
X150244532Y-70916834D01*
X150347604Y-71109666D01*
X150486314Y-71278686D01*
X150655334Y-71417396D01*
X150848166Y-71520468D01*
X151057402Y-71583938D01*
X151220479Y-71600000D01*
X152379521Y-71600000D01*
X152542598Y-71583938D01*
X152743595Y-71522967D01*
X152755820Y-71529502D01*
X152875518Y-71565812D01*
X153000000Y-71578072D01*
X153364250Y-71575000D01*
X153523000Y-71416250D01*
X153523000Y-70617000D01*
X153777000Y-70617000D01*
X153777000Y-71416250D01*
X153935750Y-71575000D01*
X154300000Y-71578072D01*
X154424482Y-71565812D01*
X154544180Y-71529502D01*
X154654494Y-71470537D01*
X154751185Y-71391185D01*
X154830537Y-71294494D01*
X154889502Y-71184180D01*
X154925812Y-71064482D01*
X154938072Y-70940000D01*
X154935000Y-70775750D01*
X154776250Y-70617000D01*
X153777000Y-70617000D01*
X153523000Y-70617000D01*
X153503000Y-70617000D01*
X153503000Y-70363000D01*
X153523000Y-70363000D01*
X153523000Y-69563750D01*
X153777000Y-69563750D01*
X153777000Y-70363000D01*
X154776250Y-70363000D01*
X154935000Y-70204250D01*
X154938072Y-70040000D01*
X154925812Y-69915518D01*
X154889502Y-69795820D01*
X154830537Y-69685506D01*
X154751185Y-69588815D01*
X154654494Y-69509463D01*
X154544180Y-69450498D01*
X154424482Y-69414188D01*
X154300000Y-69401928D01*
X153935750Y-69405000D01*
X153777000Y-69563750D01*
X153523000Y-69563750D01*
X153364250Y-69405000D01*
X153000000Y-69401928D01*
X152875518Y-69414188D01*
X152755820Y-69450498D01*
X152743595Y-69457033D01*
X152542598Y-69396062D01*
X152379521Y-69380000D01*
X151220479Y-69380000D01*
X151057402Y-69396062D01*
X150848166Y-69459532D01*
X150655334Y-69562604D01*
X150486314Y-69701314D01*
X150347604Y-69870334D01*
X150244532Y-70063166D01*
X150181062Y-70272402D01*
X150159630Y-70490000D01*
X128037416Y-70490000D01*
X128018938Y-70302402D01*
X127955468Y-70093166D01*
X127852396Y-69900334D01*
X127713686Y-69731314D01*
X127544666Y-69592604D01*
X127351834Y-69489532D01*
X127142598Y-69426062D01*
X126979521Y-69410000D01*
X125820479Y-69410000D01*
X125657402Y-69426062D01*
X125456405Y-69487033D01*
X125444180Y-69480498D01*
X125324482Y-69444188D01*
X125200000Y-69431928D01*
X123900000Y-69431928D01*
X123775518Y-69444188D01*
X123655820Y-69480498D01*
X123545506Y-69539463D01*
X123448815Y-69618815D01*
X123369463Y-69715506D01*
X123310498Y-69825820D01*
X123274188Y-69945518D01*
X123261928Y-70070000D01*
X123027000Y-70070000D01*
X123027000Y-67530000D01*
X123261928Y-67530000D01*
X123261928Y-68430000D01*
X123274188Y-68554482D01*
X123310498Y-68674180D01*
X123369463Y-68784494D01*
X123448815Y-68881185D01*
X123545506Y-68960537D01*
X123655820Y-69019502D01*
X123775518Y-69055812D01*
X123900000Y-69068072D01*
X125200000Y-69068072D01*
X125324482Y-69055812D01*
X125444180Y-69019502D01*
X125456405Y-69012967D01*
X125657402Y-69073938D01*
X125820479Y-69090000D01*
X126979521Y-69090000D01*
X127142598Y-69073938D01*
X127351834Y-69010468D01*
X127544666Y-68907396D01*
X127713686Y-68768686D01*
X127852396Y-68599666D01*
X127955468Y-68406834D01*
X128018938Y-68197598D01*
X128040370Y-67980000D01*
X128037416Y-67950000D01*
X150159630Y-67950000D01*
X150181062Y-68167598D01*
X150244532Y-68376834D01*
X150347604Y-68569666D01*
X150486314Y-68738686D01*
X150655334Y-68877396D01*
X150848166Y-68980468D01*
X151057402Y-69043938D01*
X151220479Y-69060000D01*
X152379521Y-69060000D01*
X152542598Y-69043938D01*
X152743595Y-68982967D01*
X152755820Y-68989502D01*
X152875518Y-69025812D01*
X153000000Y-69038072D01*
X154300000Y-69038072D01*
X154424482Y-69025812D01*
X154544180Y-68989502D01*
X154654494Y-68930537D01*
X154751185Y-68851185D01*
X154830537Y-68754494D01*
X154889502Y-68644180D01*
X154925812Y-68524482D01*
X154938072Y-68400000D01*
X154938072Y-67500000D01*
X154925812Y-67375518D01*
X154889502Y-67255820D01*
X154830537Y-67145506D01*
X154751185Y-67048815D01*
X154654494Y-66969463D01*
X154544180Y-66910498D01*
X154424482Y-66874188D01*
X154300000Y-66861928D01*
X153000000Y-66861928D01*
X152875518Y-66874188D01*
X152755820Y-66910498D01*
X152743595Y-66917033D01*
X152542598Y-66856062D01*
X152379521Y-66840000D01*
X151220479Y-66840000D01*
X151057402Y-66856062D01*
X150848166Y-66919532D01*
X150655334Y-67022604D01*
X150486314Y-67161314D01*
X150347604Y-67330334D01*
X150244532Y-67523166D01*
X150181062Y-67732402D01*
X150159630Y-67950000D01*
X128037416Y-67950000D01*
X128018938Y-67762402D01*
X127955468Y-67553166D01*
X127852396Y-67360334D01*
X127713686Y-67191314D01*
X127544666Y-67052604D01*
X127351834Y-66949532D01*
X127142598Y-66886062D01*
X126979521Y-66870000D01*
X125820479Y-66870000D01*
X125657402Y-66886062D01*
X125456405Y-66947033D01*
X125444180Y-66940498D01*
X125324482Y-66904188D01*
X125200000Y-66891928D01*
X123900000Y-66891928D01*
X123775518Y-66904188D01*
X123655820Y-66940498D01*
X123545506Y-66999463D01*
X123448815Y-67078815D01*
X123369463Y-67175506D01*
X123310498Y-67285820D01*
X123274188Y-67405518D01*
X123261928Y-67530000D01*
X123027000Y-67530000D01*
X123027000Y-65890000D01*
X123261928Y-65890000D01*
X123274188Y-66014482D01*
X123310498Y-66134180D01*
X123369463Y-66244494D01*
X123448815Y-66341185D01*
X123545506Y-66420537D01*
X123655820Y-66479502D01*
X123775518Y-66515812D01*
X123900000Y-66528072D01*
X124264250Y-66525000D01*
X124423000Y-66366250D01*
X124423000Y-65567000D01*
X123423750Y-65567000D01*
X123265000Y-65725750D01*
X123261928Y-65890000D01*
X123027000Y-65890000D01*
X123027000Y-64990000D01*
X123261928Y-64990000D01*
X123265000Y-65154250D01*
X123423750Y-65313000D01*
X124423000Y-65313000D01*
X124423000Y-64513750D01*
X124677000Y-64513750D01*
X124677000Y-65313000D01*
X124697000Y-65313000D01*
X124697000Y-65567000D01*
X124677000Y-65567000D01*
X124677000Y-66366250D01*
X124835750Y-66525000D01*
X125200000Y-66528072D01*
X125324482Y-66515812D01*
X125444180Y-66479502D01*
X125456405Y-66472967D01*
X125657402Y-66533938D01*
X125820479Y-66550000D01*
X126979521Y-66550000D01*
X127142598Y-66533938D01*
X127351834Y-66470468D01*
X127544666Y-66367396D01*
X127713686Y-66228686D01*
X127852396Y-66059666D01*
X127955468Y-65866834D01*
X128018938Y-65657598D01*
X128040370Y-65440000D01*
X128037416Y-65410000D01*
X150159630Y-65410000D01*
X150181062Y-65627598D01*
X150244532Y-65836834D01*
X150347604Y-66029666D01*
X150486314Y-66198686D01*
X150655334Y-66337396D01*
X150848166Y-66440468D01*
X151057402Y-66503938D01*
X151220479Y-66520000D01*
X152379521Y-66520000D01*
X152542598Y-66503938D01*
X152743595Y-66442967D01*
X152755820Y-66449502D01*
X152875518Y-66485812D01*
X153000000Y-66498072D01*
X154300000Y-66498072D01*
X154424482Y-66485812D01*
X154544180Y-66449502D01*
X154654494Y-66390537D01*
X154751185Y-66311185D01*
X154830537Y-66214494D01*
X154889502Y-66104180D01*
X154925812Y-65984482D01*
X154938072Y-65860000D01*
X154938072Y-64960000D01*
X154925812Y-64835518D01*
X154889502Y-64715820D01*
X154830537Y-64605506D01*
X154751185Y-64508815D01*
X154654494Y-64429463D01*
X154544180Y-64370498D01*
X154424482Y-64334188D01*
X154300000Y-64321928D01*
X153000000Y-64321928D01*
X152875518Y-64334188D01*
X152755820Y-64370498D01*
X152743595Y-64377033D01*
X152542598Y-64316062D01*
X152379521Y-64300000D01*
X151220479Y-64300000D01*
X151057402Y-64316062D01*
X150848166Y-64379532D01*
X150655334Y-64482604D01*
X150486314Y-64621314D01*
X150347604Y-64790334D01*
X150244532Y-64983166D01*
X150181062Y-65192402D01*
X150159630Y-65410000D01*
X128037416Y-65410000D01*
X128018938Y-65222402D01*
X127955468Y-65013166D01*
X127852396Y-64820334D01*
X127713686Y-64651314D01*
X127544666Y-64512604D01*
X127351834Y-64409532D01*
X127142598Y-64346062D01*
X126979521Y-64330000D01*
X125820479Y-64330000D01*
X125657402Y-64346062D01*
X125456405Y-64407033D01*
X125444180Y-64400498D01*
X125324482Y-64364188D01*
X125200000Y-64351928D01*
X124835750Y-64355000D01*
X124677000Y-64513750D01*
X124423000Y-64513750D01*
X124264250Y-64355000D01*
X123900000Y-64351928D01*
X123775518Y-64364188D01*
X123655820Y-64400498D01*
X123545506Y-64459463D01*
X123448815Y-64538815D01*
X123369463Y-64635506D01*
X123310498Y-64745820D01*
X123274188Y-64865518D01*
X123261928Y-64990000D01*
X123027000Y-64990000D01*
X123027000Y-60700000D01*
X123024560Y-60675224D01*
X123017333Y-60651399D01*
X123005597Y-60629443D01*
X122989803Y-60610197D01*
X122970557Y-60594403D01*
X122948601Y-60582667D01*
X122924776Y-60575440D01*
X122900000Y-60573000D01*
X113660000Y-60573000D01*
X113660000Y-50383870D01*
X125160568Y-61790171D01*
X125179254Y-61805470D01*
X125191283Y-61811928D01*
X123900000Y-61811928D01*
X123775518Y-61824188D01*
X123655820Y-61860498D01*
X123545506Y-61919463D01*
X123448815Y-61998815D01*
X123369463Y-62095506D01*
X123310498Y-62205820D01*
X123274188Y-62325518D01*
X123261928Y-62450000D01*
X123261928Y-63350000D01*
X123274188Y-63474482D01*
X123310498Y-63594180D01*
X123369463Y-63704494D01*
X123448815Y-63801185D01*
X123545506Y-63880537D01*
X123655820Y-63939502D01*
X123775518Y-63975812D01*
X123900000Y-63988072D01*
X125200000Y-63988072D01*
X125324482Y-63975812D01*
X125444180Y-63939502D01*
X125456405Y-63932967D01*
X125657402Y-63993938D01*
X125820479Y-64010000D01*
X126979521Y-64010000D01*
X127142598Y-63993938D01*
X127351834Y-63930468D01*
X127544666Y-63827396D01*
X127713686Y-63688686D01*
X127852396Y-63519666D01*
X127955468Y-63326834D01*
X128018938Y-63117598D01*
X128040370Y-62900000D01*
X128018938Y-62682402D01*
X127955468Y-62473166D01*
X127852396Y-62280334D01*
X127713686Y-62111314D01*
X127544666Y-61972604D01*
X127351834Y-61869532D01*
X127223261Y-61830530D01*
X150786147Y-61872682D01*
X150655334Y-61942604D01*
X150486314Y-62081314D01*
X150347604Y-62250334D01*
X150244532Y-62443166D01*
X150181062Y-62652402D01*
X150159630Y-62870000D01*
X150181062Y-63087598D01*
X150244532Y-63296834D01*
X150347604Y-63489666D01*
X150486314Y-63658686D01*
X150655334Y-63797396D01*
X150848166Y-63900468D01*
X151057402Y-63963938D01*
X151220479Y-63980000D01*
X152379521Y-63980000D01*
X152542598Y-63963938D01*
X152743595Y-63902967D01*
X152755820Y-63909502D01*
X152875518Y-63945812D01*
X153000000Y-63958072D01*
X154300000Y-63958072D01*
X154424482Y-63945812D01*
X154544180Y-63909502D01*
X154654494Y-63850537D01*
X154751185Y-63771185D01*
X154830537Y-63674494D01*
X154889502Y-63564180D01*
X154925812Y-63444482D01*
X154938072Y-63320000D01*
X154938072Y-62420000D01*
X154925812Y-62295518D01*
X154889502Y-62175820D01*
X154830537Y-62065506D01*
X154751185Y-61968815D01*
X154654494Y-61889463D01*
X154544180Y-61830498D01*
X154424482Y-61794188D01*
X154300000Y-61781928D01*
X153347312Y-61781928D01*
X168373531Y-46660000D01*
X175340000Y-46660000D01*
X175340000Y-60673000D01*
M02*
