M48
INCH,TZ
T1C0.0236
T2C0.0256
T3C0.0394
T4C0.0433
%
G90
G05
T1
X49154Y-24764
X49154Y-25764
X49154Y-26764
X49154Y-27764
X49154Y-28764
X49154Y-29764
X49154Y-30764
X49154Y-31764
X49154Y-32764
X49154Y-33764
X49154Y-34764
X49154Y-35764
X49154Y-36764
X60374Y-24752
X60374Y-25752
X60374Y-26752
X60374Y-27752
X60374Y-28752
X60374Y-29752
X60374Y-30752
X60374Y-31752
X60374Y-32752
X60374Y-33752
X60374Y-34752
X60374Y-35752
X60374Y-36752
T3
X61508Y-41339
X62508Y-41339
X63508Y-41339
X64508Y-41339
T4
X62205Y-36024
X62205Y-38583
X63976Y-36024
X63976Y-38583
T2
G00X49557Y-24764
M15
G01X49970Y-24764
M16
G05
G00X49557Y-25764
M15
G01X49970Y-25764
M16
G05
G00X49557Y-26764
M15
G01X49970Y-26764
M16
G05
G00X49557Y-27764
M15
G01X49970Y-27764
M16
G05
G00X49557Y-28764
M15
G01X49970Y-28764
M16
G05
G00X49557Y-29764
M15
G01X49970Y-29764
M16
G05
G00X49557Y-30764
M15
G01X49970Y-30764
M16
G05
G00X49557Y-31764
M15
G01X49970Y-31764
M16
G05
G00X49557Y-32764
M15
G01X49970Y-32764
M16
G05
G00X49557Y-33764
M15
G01X49970Y-33764
M16
G05
G00X49557Y-34764
M15
G01X49970Y-34764
M16
G05
G00X49557Y-35764
M15
G01X49970Y-35764
M16
G05
G00X49557Y-36764
M15
G01X49970Y-36764
M16
G05
G00X59970Y-24752
M15
G01X59557Y-24752
M16
G05
G00X59970Y-25752
M15
G01X59557Y-25752
M16
G05
G00X59970Y-26752
M15
G01X59557Y-26752
M16
G05
G00X59970Y-27752
M15
G01X59557Y-27752
M16
G05
G00X59970Y-28752
M15
G01X59557Y-28752
M16
G05
G00X59970Y-29752
M15
G01X59557Y-29752
M16
G05
G00X59970Y-30752
M15
G01X59557Y-30752
M16
G05
G00X59970Y-31752
M15
G01X59557Y-31752
M16
G05
G00X59970Y-32752
M15
G01X59557Y-32752
M16
G05
G00X59970Y-33752
M15
G01X59557Y-33752
M16
G05
G00X59970Y-34752
M15
G01X59557Y-34752
M16
G05
G00X59970Y-35752
M15
G01X59557Y-35752
M16
G05
G00X59970Y-36752
M15
G01X59557Y-36752
M16
G05
T0
M30
